<?xml version="1.0" standalone="no"?>
<!DOCTYPE svg PUBLIC "-//W3C//DTD SVG 1.1//EN" "http://www.w3.org/Graphics/SVG/1.1/DTD/svg11.dtd" >
<svg xmlns="http://www.w3.org/2000/svg" xmlns:xlink="http://www.w3.org/1999/xlink" version="1.1">
<metadata></metadata>
<defs>
<font id="subscriberregular" horiz-adv-x="593" >
<font-face units-per-em="2048" ascent="1638" descent="-410" />
<missing-glyph horiz-adv-x="483" />
<glyph horiz-adv-x="0" />
<glyph unicode="&#xd;" horiz-adv-x="81" />
<glyph unicode=" "  horiz-adv-x="483" />
<glyph unicode="&#x09;" horiz-adv-x="483" />
<glyph unicode="&#xa0;" horiz-adv-x="483" />
<glyph unicode="!" horiz-adv-x="323" d="M43 150q6 34 35 53q14 8 28 14q50 16 95 19q9 2 35 -7q19 -3 26 -24q14 -43 17 -55q10 -32 -9 -60q-5 -5 -8 -14q-14 -38 -61 -51q-31 -9 -41 -9q-55 -1 -91.5 41.5t-25.5 92.5zM51 1333q0 40 37 51q58 20 119 -8q31 -12 31 -49v-332q2 -72 -5 -289t-22 -323 q-6 -45 -49 -45q-25 0 -33 22l-6 17q-11 56 -19 112t-12.5 99t-6.5 75.5t-3.5 57t-1.5 27.5q-4 50 -10 132.5t-8 108t-5 77t-3.5 82.5t-1.5 78t-1 107z" />
<glyph unicode="&#x22;" horiz-adv-x="344" d="M41 879q0 17 2 49t2 49q2 10 2 31v61q0 12 2 18q3 23 27 23q36 3 71 -25q14 -11 17 -30q0 -49 -4 -62q-4 -22 -13.5 -65t-13.5 -64l-6 -20q-6 -21 -29 -21q-25 0 -41 15.5t-16 40.5zM193 1042v37q0 33 32 29q34 0 64 -23q15 -12 12 -32q0 -36 -2 -54q-1 -21 -4 -64.5 t-4 -66.5q-1 -4 -2 -13.5t-2 -14.5q-4 -19 -18 -26t-31 1q-27 12 -33 41q-4 20 -4 33l-6 153h-2z" />
<glyph unicode="#" horiz-adv-x="858" d="M41 599.5q1 7.5 10 12.5q30 10 35 11h23q20 4 30 4q17 0 21 18l16 78q3 19 10.5 54.5t10.5 53.5q5 23 1.5 27.5t-28.5 7.5l-47 6q-14 4 -25 9q-24 10 -22 24q0 7 5 12.5t8 6.5t13 4l48 6h49q9 0 11 1.5t5 10.5q7 41 14 64q5 24 17 69t16 64q2 2 2 6q16 56 86 51 q9 0 21 -4q42 -9 45 -53q0 -44 -2 -64t-17 -106q0 -1 -6 -37q-3 -12 8 -12h105q18 0 24 22q5 15 14.5 46.5t14.5 47.5q15 46 33 93q22 56 92 53q8 0 20 -4q21 -7 21 -27q-1 -10 -2 -29t-2 -28q-3 -21 -10.5 -61t-10.5 -60q-1 -3 -2 -11t-2 -12q-2 -7 -0.5 -10t3 -3.5 t8.5 -0.5l51 -6q8 -2 23.5 -7.5t17.5 -6.5q3 -2 16 -15q11 -15 -4 -24q-13 -10 -29 -13q-55 -8 -80 -10q-4 -2 -14 -2q-16 -3 -18 -18l-25 -103q-3 -15 -10 -42t-10 -42q-2 -9 -1 -10.5t11 -3.5q9 -1 28.5 -2t28.5 -2q12 -2 43 -15q10 -5 15 -10q11 -14 -3 -28 q-16 -13 -30 -13q-54 -4 -80 -4q-32 -1 -34.5 -3.5t-10.5 -33.5q-24 -92 -29 -112q-2 -9 -5 -30t-5 -30q-5 -20 -16.5 -57.5t-16.5 -56.5q-12 -39 -53 -45q-16 -2 -49 -2q-34 5 -37 38q-4 77 6 129q5 25 16.5 77t16.5 77l4 16q4 19 0.5 23t-23.5 4h-67q-9 0 -12.5 -0.5 t-5.5 -4t-3 -11.5l-37 -148l-36 -143q-9 -38 -45 -41q-29 -4 -43 0q-31 5 -31 35v78v12q-3 72 14 160q1 9 4 27.5t4 27.5q0 12 -10 12q-41 4 -59 12q-13 3 -23 13q-9 6 -8 13.5zM334 637q2 -5 18.5 -4.5t18.5 0.5h14h49q9 0 12 10q0 5 5 10l43 172q0 7 2 11q0 6 -7 6l-92 6 q-7 0 -11 -0.5t-6.5 -1t-4 -3t-1.5 -4t-0.5 -5.5t-0.5 -7q-20 -90 -33 -157q-2 -6 -4 -19t-2 -14z" />
<glyph unicode="$" horiz-adv-x="698" d="M42 284q-5 45 11 78q9 24 37 31q45 14 92 -4q30 -13 27 -41v-47q0 -44 47 -72q12 -9 16 9q4 23 2 34q0 19 -1 55.5t-1 55.5q-3 62 2 111q2 23 2 69q0 14 -12 23q-8 7 -25.5 20.5t-25.5 20.5q-70 56 -115 151q-6 15 -16 72q-11 63 2 133q21 97 82 166q52 56 98 70 q13 7 27 10q13 3 16 14q2 10 5 32.5t5 33.5l7 47q3 24 26 24q9 0 25 -4q17 -3 22.5 -11t3.5 -26q-2 -31 -2 -90q-1 -9 1.5 -11.5t11.5 -2.5q97 -15 153 -47q33 -19 53 -41q59 -59 27 -137q-9 -23 -21 -47t-29 -55.5t-24 -45.5q-12 -23 -37.5 -34.5t-56.5 -6.5 q-25 4 -38.5 23.5t-10.5 44.5l6 26q29 99 35 144q2 14 2 43q-6 48 -51 39q-6 0 -8 -2q-13 -3 -16 -6.5t-3 -16.5v-170h2q0 -28 -1 -83t-1 -83q-5 -96 -6 -100q0 -25 21 -37q59 -39 120 -82q40 -26 64 -63q41 -59 20 -125q-44 -136 -157 -187q-58 -23 -66 -26q-16 -3 -16 -19 l-6 -61q0 -6 -5 -31q-3 -27 -32 -37q-17 -7 -45 -4q-22 3 -25 27q0 5 1 14t1 14q4 40 4 62q0 9 -2.5 11.5t-11.5 2.5q-58 6 -111 27q-29 13 -63 43q-31 30 -36 75zM262 963q-12 -57 2 -140l8 -26h4q5 40 5 49q2 45 2 135v18q0 3 -4 7q-5 -5 -5 -7zM381 387h2v-74q0 -5 1 -16 t1 -16q11 4 27 24q20 23 34 66q9 30 0 57q-13 36 -53 68q-7 3 -10 -7q0 -67 -2 -102z" />
<glyph unicode="%" horiz-adv-x="745" d="M43 1231q13 77 63 133q52 57 134 41q12 -4 36 -4q18 0 69 4t79 2q15 -1 43.5 -2t42.5 -2q31 0 51 10q12 6 27 6q40 -3 67 -30q17 -14 17 -41q-1 -6 -1.5 -17.5t-1.5 -21t-3 -17.5q-13 -61 -37 -147q-39 -118 -117 -316l-36 -99l-36 -99q-11 -29 -33 -82t-30 -74l-25 -65 q-26 -83 -69 -170q-1 -6 -11 -25q0 -4 2 -4h5q3 1 9 4t9 4l133 72q7 4 19.5 12t13.5 8q44 31 74 35q76 10 118 -43q44 -55 47 -133q3 -18 -4 -35q-31 -122 -147 -145q-55 -13 -102 6q-87 36 -78 129q1 7 4 21.5t4 21.5q0 10 2 14q0 6 -2 6h-8q-6 -5 -28 -21.5t-32 -25.5 q-8 -6 -30 -25t-35 -28q-61 -49 -137 -37q-17 0 -29 6q-29 14 -21 45q3 11 11 31t10 27q12 32 35 95t35 95q60 165 149 422q41 117 84 234q38 101 55 159q9 27 29.5 77.5t26.5 64.5q5 8 8 16q9 19 7 22t-22 3h-32v2q-47 -3 -93 -9q-11 0 -8 -14l19 -43q18 -51 10 -90 q-1 -5 -1.5 -15t-1.5 -18.5t-3 -15.5q-11 -52 -62 -90q-23 -21 -73 -21t-99 19q-71 28 -94 96q-10 27 -6 82zM188 1147q10 -29 19 -37q4 1 7.5 2.5t7 5l6 6t6 7.5t4.5 6q4 6 12 22q14 44 14 76q2 18 -12 70q-2 4 -8 10q-10 -5 -13 -8q-28 -44 -38 -103q-9 -39 -5 -57z M512 119q0 -29 14 -51q9 -14 21 -2q15 15 35 51q24 57 -11 133q-6 9 -12 0q-32 -52 -39 -90q-3 -10 -8 -41z" />
<glyph unicode="&#x26;" horiz-adv-x="800" d="M43 371q-20 226 143 397q32 32 80 55l13 6q7 4 10 9l-8 8q-73 41 -115 121q-22 46 -25 90q-7 71 6 121q22 85 80 143q60 60 123 84q18 9 35 12q18 3 21 23q5 35 8 47l6 22q14 31 45 25q18 -4 35 -12q23 -10 26 -35q4 -32 4 -51q0 -15 2 -23q0 -11 9 -14q12 -4 18 -8 q41 -16 88 -56q38 -33 49 -84.5t-10 -93.5q-16 -37 -57 -31l-33 13q-25 13 -25 43q2 32 -14 90q-7 25 -25 43q-6 -37 -6 -107q-1 -9 -2 -27.5t-2 -27.5q-3 -31 -37 -31q-26 0 -44 14.5t-23 39.5q-2 12 -5 36.5t-5 36.5q0 2 -1 5.5t-1 5.5q-9 -4 -9 -5q-29 -29 -39 -45 q-33 -55 -39 -69q-14 -29 -14 -76q3 -98 84 -166q6 -6 31 -16l72 -19q33 -8 47 -20q20 -12 19 -27t-23 -24q-12 -5 -33 -9q-57 -9 -107 -39q-30 -17 -39 -28q-93 -93 -123 -223q-17 -80 11 -191q10 -42 41 -96q28 -46 82 -72q8 -3 10 4q1 6 1.5 17.5t1.5 21t3 17.5 q4 19 12 30q9 13 36 20t40 -1q15 -8 18 -21q10 -34 11 -43l6 -33q3 -11 10 -6q17 5 37 25q32 35 53 92q14 38 17 78t-31 82q-1 1 -13 15t-18 22q-16 26 8 39q43 29 86 12q4 -2 15 -9.5t18 -9.5q30 -11 53 -55q22 -49 17 -96q-13 -94 -60 -164q-22 -31 -53 -53 q-45 -34 -102 -60l-17 -6q-10 -3 -10 -14l-6 -96q-4 -20 -4 -33q0 -24 -25 -35q-16 -4 -20 -4q-29 -3 -41.5 6.5t-16.5 38.5q-2 13 -5 37t-5 37q-2 6 -2 14q-3 10 -6 12t-14 2q-54 5 -68 9q-157 40 -215 174q-35 78 -45 170z" />
<glyph unicode="'" horiz-adv-x="196" d="M41 1085q0 32 29 29q39 0 71 -29q13 -10 13 -28v-56h2q-3 -54 -9 -106q0 -14 -8 -25q-6 -11 -19.5 -14t-25.5 4q-37 16 -43 55q-1 8 -2 24.5t-2 23.5q-4 66 -4 98q-2 8 -2 24z" />
<glyph unicode="(" horiz-adv-x="450" d="M41 604q2 30 5 90.5t5 89.5q0 12 2 37t2 37q6 141 47 281q24 88 66 174q40 77 82 125q20 23 47 43q24 18 46 18t52 -18q22 -17 2 -37q-53 -53 -96 -144q-30 -64 -45 -135q-1 -7 -11 -54t-14 -71q-13 -74 -20 -161q-3 -33 -6 -93t-4 -79q-1 -15 4 -101l6 -88 q0 -16 10 -108q14 -75 27 -160q17 -81 63 -162q8 -13 25 -27q31 -25 55 -71q11 -20 -6 -37q-22 -22 -55 -24.5t-58 16.5q-33 23 -55 45q-46 58 -57 76q-48 82 -76 213q-16 71 -29 167q-3 18 -5 38.5t-4 45.5t-3 39q-1 0 -1 17l1 18h-2z" />
<glyph unicode=")" horiz-adv-x="444" d="M41.5 1497.5q4.5 11.5 26.5 11.5q52 3 88 -30q27 -22 57 -72q29 -48 63 -141q15 -38 27 -78q13 -37 25 -129q13 -77 34 -180q26 -114 31 -189q2 -35 10 -110q-3 -163 -43 -314q-13 -57 -51 -149q-1 -2 -37 -62l-32 -49q-27 -45 -86 -55q-33 -8 -50 -2q-36 12 -16 45l6 8 q72 93 105 227q26 100 32 213q4 108 -2 162q-2 22 -4 65t-4 64q-2 68 -10 199q-4 43 -16 129l-13 61q-4 28 -13 58t-21.5 68t-18.5 57q-15 52 -49 118l-31 50q-12 13 -7.5 24.5z" />
<glyph unicode="*" horiz-adv-x="550" d="M42 1227q1 9 13 14q16 4 27 4h98q4 0 6 2q0 4 -2 6q-13 9 -24.5 21t-26 31t-20.5 26q-9 9 -15 21q-6 9 -2 15.5t15 8.5q34 4 53 -8l29 -25l22 -22q4 -2 6 -2l4 8q0 28 4 78q0 15 4 39q6 33 39 33q21 2 52 -13q25 -16 22 -45q0 -8 -1 -26t-1 -27q0 -3 -1 -8t-1 -8 q32 28 45 41q12 10 28.5 12t28.5 -6q17 -7 7 -23q-1 -2 -6 -7.5t-7 -8.5l-69 -92q-7 -11 6 -11q17 -2 50 -5t50 -5q17 -3 29 -12q12 -12 -2 -23q-8 -4 -15 -4q-32 -4 -49 -4q-37 0 -57 -2l-2 -2v-4l53 -49q11 -11 17 -23q8 -19 -11 -28q-32 -10 -63 14q-9 9 -33 29 q-10 10 -10 -7q-1 -15 -1 -42t-1 -41q0 -13 -4 -37q-3 -22 -27 -25q-20 -3 -45 8q-14 6 -14 25l-7 72q0 8 -4 8t-8 -4q-27 -24 -53 -50q-26 -23 -66 -6q-25 9 -8 33q6 10 21 25q8 8 22.5 23t26 26.5t22.5 21.5q2 3 4.5 5.5t6 5.5t4.5 4q0 4 2 6q-1 0 -3 1t-3 1h-58 q-37 0 -55 6q-22 7 -33 14q-10 8 -9 17z" />
<glyph unicode="+" horiz-adv-x="692" d="M41.5 667q2.5 8 11.5 11q2 2 8 2l37 6q20 1 62 2t63 2q27 0 31 4q4 3 4.5 7.5t-1 11.5t-1.5 10q0 52 -4 154q0 33 12 67q11 35 51 41q41 6 76 -8q29 -13 35 -43q6 -27 6 -88q1 -17 2 -58t2 -61q1 -10 4.5 -13t14.5 -1l82 12q43 8 92 -16q4 -2 10 -9.5t8 -9.5 q10 -16 -6 -26q-11 -7 -18 -7q-15 -3 -47 -8t-48 -8l-75 -12q-12 -1 -16.5 -6t-4.5 -15q-8 -93 -6 -137q3 -35 -6 -65q-9 -35 -41 -46q-31 -7 -57 -4q-32 6 -35 35q-1 7 -4 24t-4 27q-2 19 -4.5 56t-4.5 55q0 17 -4 49q0 12 -12 14h-18q-64 0 -95 -2q-36 0 -69 17 q-12 5 -27 20q-6 8 -3.5 16z" />
<glyph unicode="," horiz-adv-x="329" d="M43 78q-4 33 0 49q5 32 39 45q37 16 86 10q38 -6 76 -32q45 -28 45 -80v-11q-8 -88 -37 -133q-6 -8 -14 -24q-20 -49 -80 -49q-21 0 -37 8q-24 8 -12 33q7 14 18 22q26 24 23 68q0 4 -9 8q-12 4 -20 4q-62 14 -78 82z" />
<glyph unicode="-" horiz-adv-x="686" d="M41 755q1 11 16 19q9 5 37 10q7 2 56 7h59q77 -5 293 -5q51 0 76 -6q18 -5 45 -16q6 -2 14 -10q19 -22 -4 -39q-24 -15 -53 -15q-44 0 -64 2h-31h-90q-7 0 -22.5 1.5t-22.5 1.5q-121 0 -182 2q-44 0 -78 10q-25 8 -37 18q-13 9 -12 20z" />
<glyph unicode="." horiz-adv-x="325" d="M45 82q10 39 43 53q44 17 76 15q37 3 78 -17q18 -12 20 -14q29 -19 19 -53q-34 -124 -156 -107l-10 4q-43 9 -61.5 44t-8.5 75z" />
<glyph unicode="/" horiz-adv-x="677" d="M43 55q0 5 4 17q22 52 88 221q25 66 43 135q40 154 76 260q4 11 18.5 57t22.5 70q5 15 16.5 44.5t16.5 45.5l61 176l31 90q37 98 88 195q12 21 33 53q27 37 69 15q31 -16 23 -50l-19 -69q-13 -49 -44.5 -140t-37.5 -110q-10 -29 -86 -234q-7 -15 -20 -55 q-19 -60 -53 -173.5t-49 -162.5q-3 -11 -29 -92q-17 -60 -72 -184q-16 -43 -45 -113l-6 -14q-6 -20 -18.5 -27.5t-38.5 -9.5q-5 1 -18.5 3t-22 4t-15.5 7q-22 14 -16 41z" />
<glyph unicode="0" horiz-adv-x="595" d="M43 686v21q1 30 2 91.5t2 92.5q12 166 27 239q16 82 39 152q23 63 61 107q18 24 53 41q20 10 54 6q33 -7 55 -21q12 -9 31 -12h6q52 -17 72 -33t49 -63q34 -57 41 -144q0 -2 12 -88q0 -2 1 -5.5t1 -4.5q8 -111 0 -166q-3 -13 -4 -27.5t-1 -33.5t-1 -29q0 -73 -2 -88 q-1 -8 -1 -24t-1 -23q0 -26 -4 -66v-33q0 -59 -3 -120q0 -22 -4 -58q-13 -109 -20 -153q-13 -71 -37 -125q-25 -51 -78 -72q-82 -30 -151 -6q-28 8 -54 31q-92 78 -114 202q-17 107 -25 191q-12 107 -6 221zM229 692q-6 -141 11 -264q11 -90 20 -145q14 -65 45 -101 q11 -16 19 -16q1 4 4 11t4 11q4 25 11 74t11 74q5 23 15 149l6 193q0 25 2 37q4 102 0 155q-2 25 -2 74q0 8 2 24.5t2 24.5q0 10 -2 30.5t-2 29.5q0 67 -6 135q-6 67 -37 131l-6 4q-4 -4 -4 -6l-7 -14q-38 -113 -49 -160q-17 -72 -22 -131l-6 -78q-11 -103 -9 -166v-76z" />
<glyph unicode="1" horiz-adv-x="444" d="M49 43q-6 14 17 33q10 6 30 14q1 1 35 12q3 1 7.5 2t6 1.5t3.5 2t2.5 2.5t1 4.5t0 7t-1.5 9.5q-3 24 -3 51q0 70 3 137q1 18 2.5 50.5t2.5 58.5t1 49q1 29 2 87t2 87q0 48 4 146q2 26 7 76.5t7 76.5q15 168 17 195q4 39 8 117q0 4 -2 6q-4 0 -8 -2l-33 -19 q-46 -21 -101 6q-4 4 -6 4q-26 23 2 41l70 45q51 33 82 72q18 24 51 27q49 0 94 -25q42 -25 39 -71v-25q-2 -51 -10 -166q-2 -49 -10 -151q-2 -23 -7.5 -67.5t-7.5 -66.5q0 -3 -6 -84q-3 -41 -8 -247q0 -60 -8 -170v-62q0 -84 -2 -127q0 -31 -6 -61q-3 -11 8 -15l45 -14 q20 -4 22 -18q3 -17 -14 -25q-27 -15 -43 -20q-37 -10 -68 -7q-34 5 -165 5h-29q-29 4 -33 18z" />
<glyph unicode="2" horiz-adv-x="628" d="M41 1139q-3 100 55 192q53 75 140 96q58 15 118 3q74 -12 138 -54q69 -47 86 -116q3 -11 8 -66q5 -91 -23 -217q-16 -70 -61 -207q-18 -48 -52 -144.5t-51 -144.5q-10 -26 -29.5 -72t-27.5 -65l-74 -170q-4 -12 -24 -51q-2 -10 8 -10h24q12 0 37 2t37 2l96 -6q11 0 29 -9 q23 -8 23 -22q2 -14 -19 -27l-26 -12q-39 -12 -97 -16h-104h-107q-34 4 -49 8q-19 3 -35 16q-26 16 -12 45q24 49 61.5 144t57.5 137q38 82 108 287q44 132 84 264q27 87 39 182q9 74 0 149q-3 33 -22 62q-23 28 -55 18q-36 -12 -50 -28q-36 -36 -61 -99q-7 -20 -21 -88 l-6 -37q-7 -21 -26 -26q-44 -12 -84 12q-29 16 -33 68z" />
<glyph unicode="3" horiz-adv-x="673" d="M41 1186q6 90 63 153q24 28 39 43q50 50 117 62q9 2 55 2q90 5 191 -57q45 -27 67 -86q38 -97 -2 -211q-22 -57 -71 -109q-6 -7 -20.5 -20.5t-20.5 -20.5q-4 -3 -3.5 -6.5t5.5 -5.5l14 -6q114 -45 141 -160q22 -95 13 -186l-6 -72q-20 -138 -25 -164q-6 -35 -29 -133 q-8 -33 -24 -70q-19 -52 -90 -98q-57 -35 -107 -45q-64 -11 -106 -4q-57 9 -74 16q-74 27 -98 101q-24 67 -19 118v47v11q1 30 16 43.5t46 13.5q3 0 8.5 -1t7.5 -1q33 -5 45 -15t21 -42l36 -138q2 -7 9 -21.5t8 -17.5q3 -9 10 -16q9 -12 27 -6q69 35 92 102q23 73 31 138 l24 153q14 103 14 180t-12 129q-7 28 -16 52q-3 13 -17 10q-10 0 -14 -2q-42 -14 -72 -29q-36 -14 -61 -10q-50 3 -90 33q-9 6 -17 14q-18 21 5 41q30 26 43 35q61 51 139 129q67 70 78 153q10 72 -13 127q-6 14 -22 17q-35 0 -62 -15q-110 -57 -131 -176l-6 -37 q0 -15 -18 -22q-21 -4 -31 -2q-38 8 -53 16q-38 20 -35 66z" />
<glyph unicode="4" horiz-adv-x="612" d="M44 755.5q-8 19.5 3 51.5l8 20q16 32 38 93.5t28 76.5q78 203 80 207q43 101 88 172q11 17 20 27q21 28 58 18q25 -3 49 -18q23 -16 20 -45q-7 -48 -33 -125q-24 -69 -57 -158q-61 -173 -110 -276q-6 -12 -4 -14.5t14 -2.5q19 0 56.5 -1t55.5 -1q16 2 20 5t5 20l6 69 q7 91 39 222q0 9 6 18q9 22 29 25q34 7 59 -4q23 -10 29 -31q8 -24 8 -39q4 -54 8 -166h-4l6 -129q0 -169 -2 -203q-2 -8 -2 -28q0 -70 -14 -170l-6 -74q-9 -75 -15 -154l-6 -55q-2 -4 -2 -10q-6 -50 -57 -62q-24 -4 -39 -4q-29 0 -41 27q-12 20 -16 65q-6 120 4 254v9 q4 130 8 194q0 19 1 57t1 58v18q0 6 -8 6h-13q-89 -7 -149 0q-12 2 -34 4.5t-34 4.5q-28 3 -61 16q-32 13 -40 32.5z" />
<glyph unicode="5" horiz-adv-x="632" d="M41 1212q3 72 22 150q1 3 4.5 9t4.5 9q6 19 24 25q44 14 72 14h192q33 0 70 -16q16 -12 23 -19q14 -20 -9 -30q-12 -7 -36 -11h-62h-96h-19q-12 -2 -16 -6t-4 -16q0 -7 1 -22.5t1 -22.5l6 -123l-6 -182v-17q0 -9 3 -11t13 -1q153 13 256 -82q61 -56 84 -141 q17 -59 17 -107q1 -15 2.5 -42.5t2.5 -50t1 -42.5q3 -97 -21 -219q-23 -94 -49 -141q-23 -38 -53 -56q-107 -66 -227 -63q-78 3 -136 47q-37 29 -43 70q-13 67 -2 123q1 7 7 65q6 52 59 55h20q38 -6 46 -41q10 -60 20 -100q4 -27 20 -72q13 -33 37 -49q11 -8 23 -2 q42 16 59 56q32 82 43 157q15 102 11 254q-4 93 -11 129q-18 86 -53 133l-14 17q-8 10 -27 14q-55 0 -90 -35q-18 -18 -43 -18q-42 -3 -86 20q-31 19 -31 56q0 83 -6 165q-4 57 -4 170z" />
<glyph unicode="6" horiz-adv-x="649" d="M41 547h2q0 80 2 121q11 237 41 370q19 92 47 168q19 54 60 111q29 44 90 84q17 12 47 16q82 13 143 -18q27 -9 45 -33q9 -12 4 -25t-22 -14q-3 -1 -6 -1t-7 0.5t-6 0.5q-28 6 -53 -12q-51 -38 -78 -82q-40 -68 -63 -154q-25 -108 -29 -129q-2 -6 -2 -22q-2 -6 6 -6 q11 3 45 8q63 14 131 -8q122 -39 150 -170q15 -67 18 -136q0 -14 1 -42t1 -42q0 -139 -33 -260q-16 -58 -53 -145q-28 -57 -78 -86q-80 -51 -180 -35q-90 12 -143 100q-39 63 -55 142q-14 56 -17 127q-4 56 -8 172zM227 541q5 -137 9 -162q2 -16 5 -47t5 -47q9 -66 47 -125 q12 -24 37 -43q8 -8 12 0l18 28l13 35q48 131 51 258q1 14 1 29.5t-0.5 35t-0.5 29.5q2 63 -12 152q-5 45 -25 92q-19 32 -45 55q-10 8 -20 -2q-29 -21 -58 -24q-4 -4 -10 -4q-13 0 -16 -17q0 -8 -1 -24.5t-1 -24.5q-6 -98 -9 -194z" />
<glyph unicode="7" horiz-adv-x="681" d="M45 1364q-11 18 4 27q23 11 25 12q42 6 45 6q11 1 24 1t28.5 -0.5t23.5 -0.5h41q15 -1 31 0t36 3t31 3q17 2 50 5t50 5q6 0 64 5q49 5 104 -25q47 -28 35 -84q-3 -27 -12 -47q-9 -28 -60 -223q-5 -20 -14 -60t-14 -59q-1 -12 1 -15.5t11 -3.5q26 0 55 -18q10 -6 10 -15.5 t-10 -15.5q-19 -16 -43 -16q-20 -4 -33 -4t-16 -17q-4 -18 -13.5 -57t-13.5 -61q-57 -267 -116 -492q-41 -150 -43 -158q-9 -30 -39 -47q-50 -24 -103 -18q-6 0 -8 2q-25 4 -32 16t-1 37q11 52 31 113q13 45 72 295l73 348q0 2 1.5 6t1.5 6q0 8 -7 8q-6 1 -18 1t-18 1 q-23 0 -48 7q-16 4 -22 8q-26 19 0 39q12 6 14 6q25 7 45 10q9 1 28 2t28 2q12 2 15.5 4.5t6.5 14.5l21 88q52 226 73 297q4 8 4 12q6 15 3.5 19t-21.5 1q-95 -17 -172 -14h-16q-21 4 -84 0q-40 -3 -82 16q-21 12 -27 25z" />
<glyph unicode="8" horiz-adv-x="716" d="M41 416q7 171 57 305q15 40 54 104q34 51 92 70q2 1 7 2t7 2q10 3 4 12q-1 1 -3.5 5t-4.5 6q-56 80 -68 178q-5 67 -4 80q5 60 8 73q39 139 170 172q43 9 86 0q49 -9 86 -26q85 -43 119 -131q28 -79 25 -158q-2 -20 -19 -70q-14 -40 -43 -104q-5 -14 -20 -33 q-16 -24 -66 -82q-6 -12 0 -18q12 -21 27 -39q33 -44 57 -94q37 -76 54 -174q4 -28 4 -45q0 -60 -2 -89q-6 -142 -86 -243q-73 -94 -191 -115q-21 -4 -65 -8q-127 0 -205 104q-21 30 -45 97q-17 43 -23 96q-14 74 -12 123zM227 393q0 -23 13 -108q15 -71 36 -115 q25 -48 70 -74q24 -13 43 4q85 67 109 170q13 59 10 113q0 19 -4 55q-11 92 -39 152q-25 64 -76 143q-7 13 -41 62q-3 5 -5 7t-4 1.5t-4 -2.5t-5 -8q-28 -51 -45 -101q-55 -132 -58 -299zM332 1188q-2 -26 6 -76q9 -63 39 -115q14 -24 55 -75q10 -10 17 0l18 39 q46 74 49 188l-6 59q-3 49 -33 101q-15 27 -26 29.5t-41 -15.5q-75 -47 -78 -135z" />
<glyph unicode="9" horiz-adv-x="712" d="M43 1020q-8 69 18 149q24 69 56 117q58 88 166 113q48 6 51 6q61 0 92 -6q59 -10 115 -60q16 -16 24 -32q13 -17 23 -21q16 -12 22 -20q20 -17 23 -45q4 -52 8 -78q2 -39 10 -107q1 -5 1 -16t1 -16q0 -65 4 -187q1 -20 11 -139q0 -42 2 -62q3 -15 0.5 -96t-2.5 -98 q-1 -28 -11 -143q-9 -93 -45 -168q-34 -66 -104 -97q-55 -20 -100 -20q-40 -3 -78 0q-96 6 -140 82q-16 28 -28 59q-2 7 -4 21.5t-2 15.5q-9 39 -15 82q-1 16 -4 45.5t-4 44.5q-2 23 12.5 39.5t36.5 15.5q47 0 64 -39q2 -4 4 -11.5t2 -8.5q19 -58 27 -90q17 -67 61 -127 q21 -25 31 -33q14 -13 29.5 -12t27.5 16l16 25q30 62 39 131q22 174 15 391q0 15 -2 45t-2 45v131q0 15 4 39h-4q-1 -2 -8 -9.5t-9 -12.5q-39 -59 -112 -68q-122 -13 -218 53q-43 26 -77 82q-21 35 -27 74zM221 1022q-2 -35 12 -76q12 -31 39 -51q18 -12 35 -4q22 11 25 14 q4 4 24 29q41 64 54 96q9 23 28.5 70t28.5 71q11 26 22 78q9 26 -4 51q-14 24 -26.5 30.5t-38.5 0.5q-64 -16 -101 -67q-58 -73 -86 -164q-12 -40 -12 -78z" />
<glyph unicode=":" horiz-adv-x="339" d="M41 909q3 27 25 43q9 6 18 15q29 26 74 26q34 0 57 -18q3 -2 10.5 -5t10.5 -5q17 -7 28 -15q27 -15 33 -46t-12 -54q-37 -55 -105 -55q-80 3 -121 57q-21 24 -18 57zM57 526q-14 35 15 60q13 13 26 16q45 12 66 8q57 -11 59 -12q33 -19 41 -27q25 -23 26.5 -53.5 t-18.5 -56.5q-30 -41 -79 -35q-43 -3 -87 20q-32 22 -38 54q-1 7 -11 26z" />
<glyph unicode=";" horiz-adv-x="354" d="M43 907q-6 20 10 39q13 16 35 23l41 12q64 12 125 -16q39 -19 47 -57t-20 -72q-33 -38 -91 -41q-54 9 -69 16q-58 24 -78 96zM80 557q34 51 104 41q38 -4 54 -14q83 -39 75 -111q0 -61 -28 -115q-18 -30 -47 -44.5t-62 -8.5q-9 0 -29 10q-18 14 -2 27l27 31q8 8 16 28 q3 12 -10 17q-22 4 -31 8q-24 5 -53 27q-58 45 -14 104z" />
<glyph unicode="&#x3c;" horiz-adv-x="563" d="M74 752q-11 22 8 39l4 4q13 7 26 18t21 19t22 23.5t19 21.5q11 11 38.5 42.5t43.5 47.5q19 19 59 55l95 84q12 12 18 16q37 24 82 -2q21 -15 6 -35q-19 -27 -33 -43l-45 -49q-49 -45 -135 -147q-10 -10 -29 -32.5t-24 -27.5l-19 -24q-8 -10 -8.5 -15.5t0.5 -7t10 -8.5 l72 -61l82 -68q68 -56 98 -82q17 -17 29 -35q19 -31 -14 -41q-4 -2 -8 -3t-9 -1.5t-8 -1.5q-41 3 -67 19q-31 16 -48 30q-64 55 -129 105q-20 14 -59 53q-14 11 -63 60q-25 25 -35 47z" />
<glyph unicode="=" horiz-adv-x="559" d="M41 836q2 14 20 18q28 8 48 8h122h95q40 2 102 -12q16 -3 39 -14q7 -4 12 -13q6 -6 5 -13.5t-9 -10.5q-18 -11 -35 -11q-70 -8 -104 -6q-1 0 -42 -1t-42 1q-8 1 -60.5 3.5t-80.5 7.5q-23 3 -43 12q-7 0 -13 6q-16 12 -14 25zM45 622q1 11 14 17q19 9 35 12q120 15 148 17 q17 2 46 4t34 2q61 0 90 -2q46 -3 84 -27q2 -2 6 -5.5t7 -6.5t5 -6q11 -14 -4 -25q-4 -3 -31 -8q-11 0 -35 4q-23 6 -67 2q-41 -2 -113 -10q-1 0 -49 -6q-74 -7 -121 2q-26 8 -39 16q-11 9 -10 20z" />
<glyph unicode="&#x3e;" horiz-adv-x="616" d="M51.5 523q-2.5 20 16.5 40q44 43 90 84q102 86 157 123q31 19 74 66l14 18q6 12 5.5 17t-9.5 12q-100 80 -123 96q-32 23 -71 57q-22 18 -49 62q-6 9 -6 16q-7 20 12 27q16 6 28 4q50 -11 74 -33q27 -23 81 -64t61 -47q62 -47 120 -96q25 -25 35 -37q26 -37 2 -75 q-18 -30 -45 -54q-43 -34 -61 -47q-122 -87 -228 -190q-29 -29 -73 -33q-42 0 -80 20q-22 14 -24.5 34z" />
<glyph unicode="?" horiz-adv-x="667" d="M41 1167v58q9 92 82 147q67 50 125 62q67 11 110 4q9 -2 70 -13q56 -14 104 -53q38 -30 54 -63q39 -76 39 -156q0 -103 -41 -199l-97 -243q-17 -46 -51 -127q-33 -89 -41 -135q-5 -30 -37 -48q-47 -23 -110 -16q-7 0 -19 4q-21 9 -18 31q0 3 6 45q12 54 53 158l92 245 l56 154q23 70 20 131q3 57 -16 119q-9 27 -27 51l-18 18q-16 13 -33 7q-7 -4 -22.5 -11.5t-22.5 -11.5q-18 -8 -41 -27q-34 -24 -53 -51q-32 -48 -29 -121q1 -10 4 -29.5t4 -29.5q6 -33 19 -66q11 -32 -21 -40q-52 -13 -82 22q-19 22 -32 59q-25 72 -27 125zM170 123 q-6 35 14 61q50 74 144 64q22 0 32 -23q2 -5 9.5 -12t9.5 -10q26 -26 30.5 -60.5t-14.5 -66.5q-11 -21 -35 -35q-46 -18 -73 -16q-47 -4 -78.5 26.5t-38.5 71.5z" />
<glyph unicode="@" horiz-adv-x="1073" d="M43 690q5 56 27 144q38 137 135 237q16 18 50 52t50 51q68 65 160 83q18 6 39 9h63q168 6 310 -111q69 -57 110 -141q26 -53 35 -117q10 -68 8 -115q-6 -93 -37 -192q-11 -36 -37 -74q-55 -74 -137 -82q-46 -6 -98 10q-60 20 -92 82l-6 15q-7 12 -17 4l-4 -4 q-51 -54 -137 -47q-48 7 -76 24q-53 30 -74 88q-25 67 -10 137q16 91 64 162q36 56 98 86q52 24 96 13q30 -3 60 -13q34 -5 63 -28q16 -13 33 -13l18 -6q33 -11 33 -43v-27q-1 -14 -4 -38.5t-5 -45t-3 -38.5q-7 -112 12 -183q10 -28 27 -47q8 -13 18 0q15 18 23 35 q20 42 34 105q1 9 6.5 37t7 46t-0.5 37q-7 112 -35 183q-22 62 -59 104q-49 55 -97 88q-44 28 -94 19q-88 -12 -151 -78l-93 -99q-62 -71 -92 -163q-27 -79 -35 -146q-9 -79 7 -160q22 -115 94 -223q18 -29 57 -53q45 -26 135 -53q49 -14 82 -19q28 -6 60 0q13 3 42.5 10.5 t45.5 10.5q27 7 51 -2l14 -6q18 -12 4 -29q-8 -8 -20 -14q-79 -35 -146 -43q-96 -16 -217 18q-87 21 -141 49q-28 12 -66 35q-46 26 -84 84q-69 106 -96 235q-14 74 -8 160zM481 670l6 -49q1 -4 5.5 -6t5.5 1q7 7 10 13q42 50 74 133q18 46 45 129l6 18q4 11 -8 11 q-11 3 -21 -7q-33 -23 -51 -49q-47 -66 -66 -155q-2 -7 -4 -22.5t-2 -16.5z" />
<glyph unicode="A" horiz-adv-x="704" d="M55 281v79l2 101q6 93 9 190q0 1 2 33.5t4 48.5q4 100 8 144q13 141 41 262q16 87 51 159l23 45q29 47 73 60q44 14 76 14q65 0 96 -8q109 -27 150 -133q29 -74 45 -162q13 -85 16 -153q0 -20 3 -62t3 -63q0 -129 -2 -195q1 -14 1 -29.5t-0.5 -35t-0.5 -29.5 q0 -45 -4 -139l-6 -177q-1 -19 -2 -56.5t-2 -55.5q0 -31 -2 -45q0 -24 -27 -47q-35 -21 -73 -27q-23 -3 -47 0q-33 8 -33 41q4 102 4 152q1 24 2 71t2 70l4 84v182v2q0 9 -2.5 11t-11.5 1q-11 0 -36 -1t-40 -1q-23 1 -79.5 4.5t-88.5 4.5q-6 0 -7.5 -2t-0.5 -9 q-5 -27 -5 -49q0 -10 1 -18q-4 -69 -8 -207q0 -47 2 -70q0 -106 -5 -147q-2 -10 -3 -22t-1.5 -26t-1.5 -22q0 -21 -6.5 -30t-27.5 -15q-20 -6 -41 0q-22 6 -25 27q-2 19 -7 57.5t-7 58.5q-2 23 -7.5 67.5t-7.5 66.5zM211 709q-1 -7 1 -9t11 -2h113q0 2 9.5 2h36.5q9 0 20 -1 q23 0 55 1q9 0 11.5 3t4.5 12q-1 17 -1 50t-1 50q-1 29 -4 88t-4 88q-2 60 -17 150q-10 61 -40 135q-5 15 -17 35q-13 20 -21.5 20.5t-21.5 -14.5q-2 -4 -8 -10q-31 -51 -35 -62q-61 -148 -76 -317l-12 -158q-4 -40 -4 -61z" />
<glyph unicode="B" horiz-adv-x="757" d="M49 477v41q4 86 6 131l4 76q1 45 6.5 129t6.5 104l2 95l6 116v33q0 63 2 96q0 13 2 17q4 27 -6 41q-7 9 0 26q13 16 31 21q11 2 36 8t43.5 9.5t36.5 4.5q26 0 72 -4q52 -8 80 -16q129 -37 211 -148q29 -46 37 -92q2 -10 2 -21q0 -22 -9 -50q-12 -64 -57 -115 q-27 -36 -80 -82q-2 -2 -8 -7t-10 -9q20 -3 31 -9q96 -25 161 -90q52 -55 68 -137q4 -24 4 -53q0 -64 -20 -150q-33 -126 -127 -231q-15 -18 -45 -48t-39 -40q-30 -33 -64 -47q-41 -21 -115 -53q-41 -17 -76 -17h-10q-14 0 -22 -8q-7 -9 -31 -14q-29 0 -43 2q-37 6 -45 41 q-6 12 -6 28l-8 68q-4 28 -8 72l-9 65q-4 28 -4 47zM219 109q0 -5 2.5 -6.5t5.5 1.5q88 47 121 80q62 65 111 131q64 93 102 224q17 81 17 137v12q0 36 -13 66q-12 27 -39 32q-27 6 -53 6q-22 0 -43 -4q-51 -7 -90 -20q-14 -5 -28 -5q-20 0 -42 9q-4 0 -8 4q-8 3 -10 1.5 t-4 -9.5q-2 -6 -2 -18l-8 -123q-1 -30 -2.5 -92t-2.5 -93v-145v-6q0 -31 -8 -117q-1 -3 -6 -65zM248 1327q6 -12 6 -24q7 -33 10 -60q-1 -28 -2 -84t-2 -84q-4 -94 -4 -137q-2 -8 -2 -25q3 -6 8 -4l8 6q89 81 127 125q55 65 74 131q9 22 9 47q0 8 -1 17q-10 62 -61 76 q-71 21 -137 24h-27q-6 0 -6 -8z" />
<glyph unicode="C" horiz-adv-x="673" d="M41 657q0 121 22 250q31 191 127 342q36 59 91 111q63 57 147 57h8q1 0 13 -2t18 -4q57 -12 108 -47q27 -16 48 -51q1 -1 8 -15q3 -15 -7.5 -27t-25.5 -9q-30 4 -41 26q-6 12 -27 29q-20 13 -41 4q-40 -16 -59 -43q-2 -3 -21 -29t-28 -41q-62 -93 -100 -198 q-21 -55 -41 -166q-15 -99 -15 -224v-42q0 -18 3.5 -49t4.5 -42l7 -75q10 -99 32 -181q18 -57 60 -106q33 -39 82 -51q12 -3 22 4q19 11 29 24q28 40 47 93q2 4 5 14t5 14q16 38 47 51q20 8 35 -4q23 -20 23 -43q-1 -5 -1 -13.5t-1 -12.5q-15 -72 -50 -135q-22 -38 -61 -56 q-44 -19 -106 -22q-102 0 -177 47q-87 54 -131 164q-19 52 -34 155q-12 68 -19 178z" />
<glyph unicode="D" horiz-adv-x="690" d="M49 1386q11 20 37 31q36 16 70 16q14 0 28 -3q21 -3 45 -9q48 -9 95 -30q121 -67 194 -170q74 -115 111 -265q12 -51 20 -157q-3 -87 -22 -181q-27 -117 -84 -247q-54 -117 -121 -217q-62 -92 -137 -148q-4 -4 -8.5 -7.5t-10 -7t-8.5 -5.5q-26 -16 -55 -19q-60 0 -97 19 q-5 4 -14.5 7.5t-11.5 4.5q-27 10 -27 37q-3 24 0 45q1 20 4 57.5t4 55.5q5 55 6.5 155.5t2.5 128.5q1 40 2 120t2 120l6 176q1 29 2 89t2 89q1 19 2 57t2 58q1 15 4 43t4 41q2 8 2 26q3 8 1 13t-4 6t-11 6q-22 13 -33 22q-18 21 -2 43zM231 1315q12 -61 21 -123 q5 -31 10 -133q0 -15 -1 -44t-1 -44q0 -205 -2 -305q0 -87 -4 -263q0 -90 -2 -133q0 -9 -1 -27.5t-1 -27.5q2 -2 4 -2q1 2 10 16q94 155 158 344q40 123 51 238q3 36 3 71q0 91 -19 173q-24 101 -82 182q-30 43 -62 57q-55 24 -71 29q-11 3 -11 -8z" />
<glyph unicode="E" horiz-adv-x="649" d="M41 276v402v31h2v172q0 92 4 284q1 15 1.5 42.5t1.5 51t3 44.5q0 26 15 73q14 31 49 29q6 0 14 -4q22 -5 48 -5q11 0 24 1q25 2 31 2.5t31 -2t32 -2.5q102 -11 109 -11q32 0 53 -18q7 -5 12 -14q6 -12 1.5 -23t-17.5 -14q-28 -4 -45 -4q-47 -2 -142 -2q-5 0 -14 -1 t-14 -1q-13 -3 -13 -15q2 -46 2.5 -55t-2 -55.5t-2.5 -55.5q-3 -31 -3 -119v-73q1 -90 1 -142v-51v-10q0 -10 10 -10q17 0 23 2q16 0 48 1t48 1q43 0 84 -33q11 -8 17 -16q6 -10 1.5 -20t-16.5 -11l-51 -6q-73 -9 -147 -21q-9 -2 -12 -4.5t-3 -11.5q0 -20 1 -61t1 -62v-229 q0 -50 17 -109q10 -28 35 -57q22 -28 59 -28q8 0 16 1q58 7 107 15l37 6q30 10 57 10q27 -4 39 -12q26 -17 6 -37q-16 -16 -29 -21q-25 -13 -71 -24q-109 -25 -195 -25h-18q-59 3 -99 19q-103 39 -131 151q-16 60 -16 137z" />
<glyph unicode="F" horiz-adv-x="579" d="M41 582q0 62 8 194l6 139q6 95 6 191q0 88 -2 131q-1 14 -4 42.5t-4 43.5q0 10 -1 30.5t-1 30.5q3 30 33 33h16q6 0 17.5 1t17.5 1q2 2 10 2q101 6 164 6h29q5 0 12 -1t15.5 -2.5t13.5 -2.5q23 -2 84 -10q21 -2 57 -22q4 -2 8.5 -8t5.5 -7q8 -10 5 -20t-15 -13l-55 -6 h-92l-139 -6q-9 0 -12 -2.5t-3 -11.5l6 -78q0 -3 1 -9t1 -9q8 -141 8 -264q0 -37 -1 -72q-5 -63 -5 -76v-16q0 -9 9 -9q11 1 33 2t32 2q8 1 17 1q37 0 81 -17q1 0 13 -6q6 -6 5.5 -15.5t-7.5 -13.5q-8 -8 -23 -12q-9 -2 -29 -5t-30 -5q-15 -2 -43.5 -5.5t-42.5 -5.5 q-12 -1 -15.5 -5.5t-5.5 -16.5v-246l6 -377q0 -20 -2 -30q-3 -32 -32 -41q-22 -9 -35 -9q-10 -1 -20 -1q-32 0 -66 14q-24 14 -27 35q-4 24 -4 34v267h-2q0 43 -1 128t-1 128z" />
<glyph unicode="G" horiz-adv-x="686" d="M41 549q0 79 12 239q10 122 25 207q28 135 53 226q22 81 70 143q54 74 142 74h7q17 -2 58 -11q94 -30 149 -90q37 -43 37 -82q0 -31 -6 -43q-11 -25 -37 -16q-40 14 -45 45q-2 12 -10 31q-1 7 -11 26q-14 28 -40 28q-12 0 -27 -7q-43 -17 -70 -66q-43 -69 -61 -153 q-33 -146 -41 -193q-3 -21 -13 -121q-4 -40 -8 -124q-1 -25 -2 -75.5t-2 -76.5v-10h2q0 -14 -0.5 -41t-0.5 -49t1 -41q3 -97 31 -176q17 -52 49 -84q18 -16 28.5 -16.5t28.5 16.5q44 41 66 86q44 83 57 200q6 47 6 92q0 13 -4 37q-3 8 -10 8q-12 -1 -33 -4t-30 -4 q-16 -1 -29 -1q-52 0 -78 12q-23 7 -33 18q-12 11 -10 22t17 19q15 7 28 10q72 15 117 17q9 0 27.5 2t27.5 2h8q30 0 78 -13q14 -2 37 -16q21 -14 21 -33l6 -18q16 -43 16 -84q0 -3 -2 -52t-4 -75q-10 -117 -51 -197q-5 -14 -23 -45q-51 -80 -149 -92q-21 -3 -41 -3 q-78 0 -152 36q-86 38 -135 135q-23 52 -37 131q-10 70 -10 250z" />
<glyph unicode="H" horiz-adv-x="673" d="M41 160l2 811q0 34 1 71.5t2.5 82.5t2.5 71q1 18 2 55t2 56q0 25 4 79q0 28 31 31q17 3 31 0q55 -13 90 -45q25 -25 20 -53q-2 -6 -2 -19q-6 -166 -6 -318q0 -92 2 -179v-17q0 -23 2.5 -25.5t26.5 -2.5h90q69 0 88 -4q16 -5 16 12q0 10 0.5 29t0.5 33.5t-1 27.5v422 q0 12 -2 37t-2 37q0 31 11 41.5t41 7.5q62 -6 102 -49q15 -15 18 -37q2 -6 2 -17l7 -157l6 -377q0 -9 1.5 -40.5t0.5 -49.5q0 -121 -4 -363q-1 -31 -2 -93.5t-2 -94.5q0 -29 -19 -80q-9 -21 -29 -27q-27 -10 -53 -10q-24 0 -47 8q-26 10 -29 33q-8 50 -8 74q-2 0 -1 55l1 55 q1 54 2 164t2 164q4 70 4 103v18q0 10 -12 10h-57q-20 0 -60.5 -1t-60.5 -1q-22 -2 -26.5 -6t-4.5 -25q0 -68 1 -205.5t1 -207.5v-113q0 -19 -2 -27l-18 -90q-4 -8 -4 -14q-6 -19 -25 -25q-22 -7 -44 -7q-24 0 -48 9q-18 9 -25 29q-4 20 -4 31q-8 39 -10 61q-6 30 -6 62z " />
<glyph unicode="I" horiz-adv-x="284" d="M43 834q1 42 2 125.5t2 125.5q4 176 4 263q0 18 2 28q3 27 29 33q8 2 27 2q44 -6 88 -35q32 -26 32 -63q-2 -123 -2 -334q0 -53 -1 -127t-1 -104q0 -29 1 -61.5t2.5 -72t2.5 -61.5v-2l7 -133l6 -348v-11q0 -25 -7 -35.5t-30 -19.5q-34 -13 -67 -13q-21 0 -42 5 q-16 4 -22 8q-17 7 -17 25q-2 8 -2 22v158q-1 27 -1.5 76t-1.5 89.5t-3 76.5q-9 152 -9 284q0 51 1 99z" />
<glyph unicode="J" horiz-adv-x="587" d="M41 197v6q0 37 33 45q18 6 34 6t29 -6q26 -10 35 -33q4 -10 16.5 -38.5t18.5 -43.5q3 -7 8 -14t8.5 -11t12 -12t10.5 -10q2 -3 5 -3t5 3q9 7 18 20q31 48 43 97q20 76 23 137q9 115 12 227q0 50 8 156v10q1 52 4.5 159.5t4.5 162.5h-2v176l-7 82q0 12 -14 12h-43 q-67 4 -104 25q-21 9 -39 24q-8 6 -17 23q-6 9 -1 17.5t16 10.5q16 3 32 0q33 -8 72 -8q21 0 43 2q14 1 57 11q12 5 31 0q46 -7 92 -50q29 -26 35 -61l12 -92q11 -136 11 -221q3 -88 3 -146q0 -29 -1 -51q0 -58 -4 -176q-6 -151 -6 -152q-9 -169 -19 -221q-15 -74 -33 -113 q-4 -12 -16 -36q-54 -99 -178 -119q-37 -6 -72 -6q-52 0 -98 24q-31 13 -56 45q-8 8 -8 23l-6 57q-1 10 -4 31t-4 31z" />
<glyph unicode="K" horiz-adv-x="604" d="M43 682q0 114 4 352q2 72 10 221q1 15 5 57.5t4 65.5q3 37 38 37q13 0 33 -4q39 -8 76 -37q28 -22 28 -55q0 -5 -1 -10q-2 -14 -7 -78l-6 -146q-1 -7 -2 -24t-2 -25v-41h4q16 29 29 58q30 69 96 168q39 56 41 59q8 15 19 29t27.5 33t23.5 28q16 18 36 18q15 0 33 -10 q24 -15 13 -43q-6 -10 -25.5 -45.5t-32.5 -54.5q-76 -117 -129 -225q-7 -17 -25.5 -50t-25.5 -49q-5 -7 -4 -9t8 -5q95 -31 148 -111q73 -112 94 -233q6 -41 6 -82q2 -70 2 -215v-180q0 -29 -22 -45q-23 -15 -52 -21q-28 -7 -49 -7q-14 0 -26 3q-12 4 -21 10q-12 6 -12 19 v20q0 172 -2 256q0 67 -4 193q-6 82 -33 162l-43 100q-10 29 -41 53q-8 8 -18 6q-14 -3 -17 -18v-14q1 -55 1 -164.5t1 -163.5l6 -240q0 -49 4 -147q0 -22 -7 -32.5t-27 -14.5q-24 -8 -50 -8q-34 0 -71 14q-31 12 -31 49v31q-5 125 -5 334q0 105 1 231z" />
<glyph unicode="L" horiz-adv-x="532" d="M41 66q1 15 2 44.5t2 45.5q1 24 4 74.5t4 74.5q1 48 2 144t2 143q0 172 2 256q0 45 3 129t4 104v107q-2 52 -2 94q0 62 4 100q0 22 20 29q20 4 29 4q64 -7 102 -39q28 -19 25 -51v-84h-2q1 -23 2.5 -62t2.5 -70.5t1 -59.5q0 -46 -4 -136v-194q0 -178 -2 -266 q0 -63 -4 -177q-1 -17 -4.5 -52t-4.5 -54q-2 -20 -2 -61q0 -10 3 -13.5t12 -3.5q27 0 41 2q50 4 79 8q16 1 30 1q36 0 63 -7q14 -3 26 -12q20 -13 2 -31q-8 -11 -18 -14q-35 -15 -43 -16q-33 -7 -78 -11q-77 -8 -108 -10q-28 -2 -56 -2t-57 2q-17 0 -49 12q-33 11 -33 52z " />
<glyph unicode="M" horiz-adv-x="968" d="M41 49q1 72 2 216t2 216q1 41 4 123t4 123v145q0 128 2 191q0 39 1 83t2.5 98t2.5 85q0 23 5 41q8 34 45 37h65q13 0 29 -4q19 -6 26 -23q17 -35 21 -49q9 -29 26.5 -81t24.5 -74q12 -32 39 -140q44 -161 57 -225q42 -174 68 -338l12 -59q0 -2 4 -6q4 4 4 6l7 18l67 264 q59 219 113 385l57 187q3 13 8 51q4 28 4 45q0 28 27 31q21 6 41 6q46 0 88 -25q30 -20 27 -49l-6 -70q-1 -20 -2.5 -59t-2.5 -59q-2 -23 -5 -72t-5 -72l-6 -92q-4 -76 -5 -161q-1 -57 -1 -122q0 -32 0.5 -66.5t0.5 -63.5q0 -59 -1 -97q-1 -36 -4 -111t-4 -114l-1 -40 q0 -40 1 -40q0 -33 -27 -51q-52 -37 -107 -37h-8t-6 2q-17 2 -24.5 10t-7.5 27v74q4 102 4 157v398v59h-4l-27 -100q-47 -204 -64 -299q-2 -12 -41 -195l-20 -63q-3 -10 -16 -31q-24 -44 -82 -51q-27 -5 -43 20l-4 8q-54 127 -70 209q-3 15 -68 342q-5 26 -15 75t-13 65 q-6 -14 -6 -37q0 -64 -3 -129q-3 -50 -4 -106.5t-1 -126t-1 -107.5q0 -20 -1 -58.5t-1 -58.5q-3 -64 -61 -84q-27 -11 -62 -11q-8 0 -16 1q-41 6 -43 45q-2 4 -2 14z" />
<glyph unicode="N" horiz-adv-x="710" d="M49 766q-1 16 -1 38q0 44 3 111q1 8 1.5 31.5t2.5 36.5l11 107q2 14 3 43t3 43q1 9 2.5 57.5t7.5 73.5q0 5 -1 14.5t-1 13.5q0 18 16 31q25 21 56 21q18 0 38 -7q8 -1 24 -8l17 -6q16 -9 25 -25q4 -12 8 -18q10 -13 19.5 -28.5t15 -26t14.5 -31.5l12 -28t12 -32.5 t11 -29.5q16 -40 29.5 -85.5t29 -105t23.5 -88.5q6 -21 16.5 -62.5t16.5 -62.5q5 -19 10 -26q-2 31 -2 92q-1 21 0.5 61t1.5 52q0 4 1 10.5t1 9.5q-1 21 0 44t3 50.5t3 42.5l13 107q3 43 8 69q8 44 8 101v28q3 13 18 17h9q39 0 65 -23q8 -8 16 -24q18 -72 23 -117 q3 -63 12 -125v-22q0 -72 -2 -109q0 -2 -1 -7.5t-1 -8.5l2 -205l-1 -56q0 -55 1 -55l11 -313q3 -55 3 -92q0 -19 -1 -33q0 -74 -9 -145q-9 -38 -22 -50q-31 -21 -64 -26q-21 0 -28 14q-6 12 -19 12q-23 0 -30 25q-3 8 -7.5 24.5t-7.5 24.5q-3 9 -28.5 94t-40.5 129 q-28 86 -86 308l-78 321q0 1 -0.5 2t-1.5 3.5t-2 4.5q-8 -51 -8 -93q0 -13 1 -25l5 -324q0 -29 -1 -85t-1 -83q0 -61 2 -92l4 -127v-21q-3 -49 -41 -69q-36 -22 -78 -25q-2 -2 -4 -2q-29 3 -42 13t-14 40q-4 156 -4 234l-2 24q1 123 1 149v7q0 32 -4 143q-4 124 -5 150z" />
<glyph unicode="O" horiz-adv-x="714" d="M45 621q-1 22 -1 45q0 55 5 122l4 74q6 95 21 185l20 120q23 88 51 156q30 73 107 94q15 6 33 6q56 9 73 9q60 0 115 -27q9 -5 31 -10q34 -8 57 -41q15 -26 23 -45q46 -104 61 -217q2 -22 17 -152q6 -58 6 -110q0 -32 -2 -62l2 -18q1 -52 1 -67.5t-8 -68t-10 -69.5 q-14 -115 -61 -301q-10 -42 -37 -94q-59 -111 -180 -132q-23 -4 -45 -4q-84 0 -144 62q-27 27 -47 76q-35 84 -53 172q-22 115 -29 190zM233 725q-3 -24 -3 -54q0 -52 8 -124q4 -63 24 -180q15 -93 53 -179q3 -10 29 -51q7 -11 12 -11t11 11q25 49 34 78q47 150 58 242 q2 16 8 58.5t9.5 73t4.5 58.5q2 59 2 178l-10 140l-18 147q-1 8 -4.5 24.5t-4.5 24.5q-7 34 -29 95t-26 73q-6 14 -16 6q-38 -20 -49 -51q-30 -82 -35 -100q-9 -32 -19 -93.5t-14 -78.5q-11 -57 -20 -211z" />
<glyph unicode="P" horiz-adv-x="657" d="M41 217h2v113q4 86 4 387q0 45 1 127t1 148.5t-2 125.5q-4 164 -4 246v4q0 24 6.5 33.5t28.5 13.5l86 19q21 4 63 0q106 -5 222 -91q33 -26 61 -57q80 -77 98 -188q8 -48 8 -94q0 -70 -18 -136q-39 -137 -127 -241q-53 -59 -104 -95q-15 -9 -40 -27.5t-36 -25.5 q-22 -13 -47 -22q-15 -6 -15 -19q0 -46 -2 -71q-4 -42 -4 -193q0 -32 4 -102q1 -33 -10.5 -49t-40.5 -27q-28 -12 -59 -12h-13q-14 0 -20 2q-36 9 -39 45l-2 14q0 29 -1 86t-1 86zM225 1333q0 -4 1 -13.5t1 -14.5l6 -224v-229v-227v-19l3 -4q4 0 6 2q29 29 45 43 q54 60 78 113q57 122 65 221q2 23 2 47q0 69 -16 125q-33 112 -160 186q-6 4 -20 4q-11 0 -11 -10z" />
<glyph unicode="Q" horiz-adv-x="714" d="M42 539.5q0 33.5 0.5 92t0.5 85.5q0 16 1 34t2.5 39.5t2.5 34.5q1 15 4 47t4 48q10 70 13 86q4 24 9 50.5t11.5 58.5t9.5 50q13 64 56 146q18 43 69 78q18 15 43 18q16 2 31 2q51 0 98 -23q24 -15 29 -24q10 -10 16 -12q83 -28 123 -119q20 -44 39 -117q7 -26 18.5 -76 t18.5 -75q13 -50 21 -136q0 -9 2 -28.5t2 -28.5q2 -16 3 -33t1.5 -37.5t1.5 -31.5q1 -8 1 -19q0 -48 -11 -143q-9 -81 -27 -160q-23 -108 -72 -188q-10 -19 -28 -45q-8 -11 0 -19q8 -12 10 -14q47 -64 100 -168q14 -28 17 -37q6 -22 -19 -33q-18 -6 -22 -6q-9 -1 -18 -1 q-52 0 -81 36q-21 27 -61.5 75t-50.5 60q-10 13 -29 10q-29 -6 -55 -6q-21 0 -41 4q-70 12 -117 68q-15 15 -39 43q-31 36 -47 90q-21 63 -31 152q-5 41 -7 90t-2 82.5zM225 608q4 -176 19 -276q9 -61 32 -113q6 -13 9 -13.5t12 9.5q21 21 49 21q16 1 29 1q22 0 37 -4 q9 -2 12 -0.5t6 11.5q4 8 4 14q28 87 41 186q11 79 14 174v11q0 33 -4 131q-3 89 -20 166q-9 37 -23.5 107.5t-21.5 103.5q-19 84 -45 131q-2 2 -5 8.5t-7 10t-9 5.5q-2 -3 -6 -7.5t-7 -8.5t-5 -8q-33 -64 -49 -119q-34 -115 -43 -240l-6 -78q-9 -65 -9 -88q-1 -22 -2 -67.5 t-2 -67.5z" />
<glyph unicode="R" horiz-adv-x="765" d="M47 33q9 92 12 182v16q3 217 9 435q0 113 -2 168v28q0 51 -5 123q0 56 -8 166q-5 81 -5 151q0 30 1 58q0 19 6 27.5t23 11.5l63 20q21 5 55 5q17 0 37 -1q28 -2 78 -14q35 -7 60 -18q20 -8 110 -52q25 -11 84 -55q82 -70 103 -178q10 -44 10 -96q0 -33 -4 -68 q-8 -73 -37 -151q-22 -53 -39 -86q-43 -75 -100 -121q-11 -8 -12 -11t3 -14q20 -50 97 -213q31 -63 51 -110l63 -146q9 -18 9 -37q0 -23 -21 -41q-24 -18 -55 -24q-37 -8 -58 -2q-38 9 -49 41l-112 254q-63 140 -66 147l-18 45q-5 9 -13 4q-35 -17 -61 -22q-4 0 -8 -9v-16 l-2 -135h-2l-2 -115q-6 -57 -9 -110q-3 -35 -30 -50q-50 -26 -99 -26q-10 0 -30 4q-27 9 -27 35zM229 1319q2 -29 4.5 -87t4.5 -87l4 -90q1 -27 5 -81.5t5 -80.5q0 -151 2 -227q-2 -23 -2 -66q0 -12 2 -18q0 -3 2 -4.5t4 0.5q18 9 33 18q73 40 117 111q36 66 51 118 q19 54 26 121q5 45 5 84q0 53 -9 94q-27 124 -139 174q-50 22 -55 25q-7 4 -15.5 6t-18.5 3.5t-15 2.5q-7 2 -11 -6v-10z" />
<glyph unicode="S" horiz-adv-x="665" d="M41 887q0 196 88 356q33 61 72 100q41 41 86 60q41 17 87 17q18 0 36 -3q22 -2 73 -14q45 -12 82 -41q44 -32 53 -94q5 -23 5 -55q0 -39 -7 -91q-1 -6 -18 -137q-1 -7 -23 -102q-1 -7 -16 -47q-10 -19 -29 -29q-26 -13 -52 -13l-56 15q-34 15 -34 46q0 4 1 9q7 34 14 88 l19 119l12 92q5 34 5 77q0 18 -1 38q0 4 -2 6q-6 32 -10.5 34.5t-32.5 -15.5q-35 -23 -65 -72q-76 -118 -95 -268q-4 -31 -8 -97q0 -104 31 -209q25 -100 106 -151q70 -46 105 -66q30 -20 70 -47q39 -28 55 -67q16 -34 16 -67v-11q-10 -86 -59 -135q-52 -59 -121 -82 q-77 -25 -152 -31q-19 0 -47 4q-61 10 -102 31q-29 16 -43 39q-10 14 -10 27q0 16 16 30q36 34 94 37q22 0 41 -16q2 -2 8 -7.5t8.5 -7.5t8 -7t8.5 -7.5t8.5 -6.5t9.5 -6t9.5 -4.5t10.5 -4.5t11 -3q11 -3 20 -3q24 0 42 16q52 45 65 100q3 11 3 22q0 26 -15 50 q-17 25 -45 47q-18 12 -53.5 35t-53.5 36q-3 2 -23.5 15t-29.5 20q-121 90 -149 221q-16 73 -25 142q-2 14 -2 88z" />
<glyph unicode="T" horiz-adv-x="722" d="M51 1358q-24 24 6 37q6 3 31 8t50 6.5t67 2.5t51 1q17 1 74.5 4.5t87.5 4.5h22q108 0 131 -3q34 -3 78 -20q10 -4 25 -19q9 -9 7.5 -19.5t-13.5 -14.5q-15 -5 -17 -5h-22q-13 0 -37.5 0.5t-40 0.5t-37 -1t-39.5 -4q-8 -1 -10.5 -2t-4 -4.5t-1.5 -11.5v-193v-165h-2v-336 q0 -89 -6 -174q-1 0 -1 -55l1 -56q0 -5 1 -14t1 -13q0 -102 6 -204v-6q0 -38 -35 -60q-47 -29 -92 -29q-16 0 -31 6t-18 23q-4 16 -4 25q0 27 -3 79.5t-4 65.5q-6 189 -6 195q0 28 3 85t3 85q0 91 1 273t1 273q0 29 2.5 86t2.5 84v13q0 4 -0.5 6t-0.5 4t-1 3t-1.5 2 t-3.5 1.5t-4 0.5t-5.5 0.5t-6.5 0.5q-19 2 -115 2q-32 0 -69 16q-12 6 -21 15z" />
<glyph unicode="U" horiz-adv-x="710" d="M41 1255q0 13 2 40t2 40v51q0 27 23 35q29 8 47 6q30 -2 69 -16q6 -2 14 -8t11 -8q18 -9 18 -35v-64q0 -39 -2 -110t-2 -129t4 -109q4 -46 4 -65h2v-441q0 -120 27 -237q8 -30 14 -43q26 -52 95 -62q21 -3 41 17q24 24 30 57q16 82 17 90q12 86 12 211q0 26 4 78.5 t4 77.5v8q0 3 6 162q1 27 5 101t4 114q0 34 4 104l12 160q2 25 2 72q0 32 25 39q24 8 38 8q43 0 66 -8q15 -6 21 -14t6 -25v-41q0 -27 2 -84t2 -84q0 -21 0.5 -60.5t0.5 -72t-1 -60.5l-6 -129q-1 -30 -6.5 -83.5t-6.5 -67.5q-6 -69 -6 -72q-5 -30 -20 -190q-10 -93 -13 -111 q-12 -78 -24 -115q-16 -46 -58 -88q-79 -79 -190 -100q-30 -6 -58 -6q-46 0 -87 16q-73 28 -97 96q-16 43 -26 103q-21 129 -21 260q0 121 -2 182q-1 29 -1.5 119.5t-2.5 140.5q-4 78 -4 350z" />
<glyph unicode="V" horiz-adv-x="720" d="M54 1374.5q3 7.5 4.5 9.5t9 8t12.5 11q2 2 8 2q84 0 123 -23q22 -13 25 -36q32 -133 49 -254q5 -33 14.5 -100.5t17.5 -120.5t17 -99q7 -43 24.5 -129t24.5 -129q2 -13 7 -34t7 -29h4q0 1 1 4.5t1 5.5q0 21 9 86q3 65 14 117q3 23 13.5 81t13.5 89q13 97 43 215 q16 66 26 155q2 16 6 50t8.5 59.5t10.5 48.5q2 8 12 18q6 6 12 9q11 5 23.5 7t21.5 2t24.5 -0.5t23.5 -0.5q2 0 14 -6q15 -9 12 -27q-1 -3 -18 -92q-8 -34 -20.5 -101.5t-20.5 -101.5q-6 -30 -16.5 -92t-16.5 -92q-20 -135 -27 -160q-4 -17 -8 -55q-3 -22 -9.5 -89.5 t-12.5 -103.5l-11 -84q-4 -69 -10 -104l-14 -129q-3 -27 -10 -60q-3 -18 -17 -32q-44 -42 -112 -48h-6q-39 0 -50 35l-28 88q-38 119 -74 297q-46 237 -59 308q-31 182 -39 247q-2 43 -13 101q-21 130 -28 188q-2 12 -7.5 37t-7.5 39q-4 7 -1 14.5z" />
<glyph unicode="W" horiz-adv-x="1038" d="M41 934q0 113 6 227q2 28 1.5 56t-1.5 57q-1 12 -1 28q0 32 3 80q3 40 47 43q10 1 20 1q35 0 68 -17q47 -21 47 -76q-1 -19 -1 -60v-47q0 -16 1 -29q0 -54 -2 -77q-1 -34 -2 -101t-2 -101q0 -22 2 -68t2 -68q0 -52 2 -77q1 -34 11 -158l6 -107q2 -33 10 -90 q9 -70 27 -135q7 -24 22 -61q5 -10 23 -37q9 -11 14 -14.5t10 1t11 19.5q15 29 22 76q8 38 16 110q19 130 19 246v31v62q2 60 2 79l6 133v33q-4 94 -4 137q0 1 6 100q0 20 4 56q3 66 13 151q0 7 10 47q5 16 22 23q18 8 36.5 7.5t35.5 -7.5q8 -1 22 -16q19 -25 19 -58l6 -184 q0 -28 -4 -78v-143q-1 -26 -1 -77t-1 -77q-4 -110 -4 -168q0 -6 -2 -10q-1 -6 -1 -15q0 -27 7 -79q4 -36 4 -56q5 -30 8 -81q10 -86 29 -152q19 -48 39 -68q22 -25 67 -32q12 0 15 6q11 18 16 31q17 45 23 102q2 26 7 82t7 86v8q0 24 5 132q4 78 4 125q0 19 -1 34 q0 26 -0.5 66t-0.5 70t1 56q0 43 4 133q10 104 15 134q0 4 12 133q4 54 4 75q0 22 16 25q20 4 31 2q41 -7 70 -24q26 -17 26 -52v-129q0 -223 -2 -268q0 -23 1 -66.5t1 -64.5v-133q0 -19 0.5 -54t0.5 -63.5t-1 -52.5q-8 -165 -20 -248q-8 -47 -14 -74q-25 -102 -132 -141 q-54 -23 -116 -23q-34 0 -70 7q-75 18 -115 49q-8 6 -10 6t-8 -6q-76 -76 -201 -76q-87 0 -141 63q-33 43 -45 74q-25 67 -41 154q-18 125 -23 203q0 21 -3.5 59t-4.5 51l-6 166q-4 110 -4 164z" />
<glyph unicode="X" horiz-adv-x="706" d="M51 1354q-3 19 1.5 28.5t21.5 18.5q22 12 61 12q34 -4 49 -8q40 -10 52 -49l43 -142q9 -31 32.5 -78t39.5 -88.5t16 -80.5q0 -2 4 -6q4 4 4 6q0 14 4.5 28t12.5 31.5t11 26.5q8 24 29 88.5t38.5 110.5t37.5 87l6 17q6 23 27 26q17 2 32 2q32 0 54 -10q4 -2 10 -8 q13 -13 10 -27q-1 -5 -4 -15t-4 -15q-11 -56 -29.5 -116t-44 -135t-37.5 -112q-43 -147 -61 -198q-8 -24 2 -50q4 -11 47 -116q14 -32 26 -68.5t26 -81.5t22 -70q38 -114 78 -225q4 -12 4 -23q0 -25 -21 -44q-42 -39 -84 -47q-18 -3 -37 -3q-15 0 -22 17l-6 12 q-28 57 -63.5 175.5t-39.5 131.5q-2 6 -7.5 18t-9 22.5t-3.5 19.5q0 1 -2.5 3.5t-3.5 4.5l-4 -10q-14 -26 -25.5 -58t-24 -72t-20.5 -61q-31 -88 -70 -151q-34 -56 -104 -56q-35 0 -35 29q0 6 2 14q3 16 13 44t12 36q9 29 31.5 87.5t31.5 88.5q61 189 78 252q9 35 21 72 q9 24 -3 51q-25 58 -63 162q-36 96 -78 217q-17 53 -39 131q-4 13 -10.5 39.5t-13 47.5t-13.5 38q-4 11 -8 29z" />
<glyph unicode="Y" horiz-adv-x="645" d="M35 1346q-1 20 6.5 28.5t32.5 20.5q4 2 12 2q44 0 94 -29q29 -17 35 -53q8 -38 10 -66q5 -73 29 -166q5 -19 12.5 -57t12.5 -57t18.5 -55t21 -65.5t7.5 -55.5q0 -5 2 -7l4 -4l2 4l6 35q8 61 14 88l25 115q2 9 19 87t28 120q7 29 25 119q5 24 18 24q1 0 3 1t3 1 q8 0 27 0.5t28 0.5t23.5 -2.5t26.5 -8.5q16 -8 16 -33q0 -28 -12 -86q-39 -201 -41 -215q-2 -12 -23 -121q-12 -56 -24 -172q-1 -7 -11 -67q-15 -76 -22 -125q-4 -27 -27 -74q-4 -8 -4 -16q0 -41 4 -119q6 -132 6 -262q0 -4 -2 -12.5t-2 -12.5q0 -25 -28 -35q-22 -9 -50 -9 q-20 0 -43 5q-31 6 -34 35q-2 21 -9.5 62t-9.5 61q-3 22 -8 149v53.5t4 65.5q4 25 -10 39t-21 39q-13 44 -41 125t-34 100q-23 70 -39 152q-6 29 -23.5 115t-25.5 133q-2 12 -9.5 63t-13.5 78q-4 22 -8 64z" />
<glyph unicode="Z" horiz-adv-x="708" d="M45 82q2 8 7.5 23.5t6.5 17.5q23 68 88 246q47 129 113 352q9 30 117 371q7 21 47.5 101t40.5 128q0 4 4 12q5 10 -8 13q-10 2 -31 2h-31q-18 1 -38.5 -1t-46 -5.5t-38.5 -4.5h-10q-37 0 -90 25q-11 6 -22 20q-9 11 -6.5 21t14.5 16q25 13 39 15q52 9 95 9q25 0 46 -3 q1 0 98 -6q71 -4 121 -11q35 -4 84 -41q24 -20 24 -43q0 -11 -5 -22q-3 -6 -8.5 -19.5t-8.5 -19.5q-10 -21 -20.5 -44.5t-18.5 -42t-18 -46.5t-15.5 -43t-16.5 -47t-14.5 -43t-15 -47.5t-14.5 -44.5l-37 -119q-3 -11 -24 -84.5t-35 -112.5q-63 -186 -82 -239 q-5 -14 -30.5 -93t-43.5 -120q-13 -30 -16 -41t6 -11h39q8 1 24 2t23 2q63 9 112 9q25 0 46 -2q36 -5 45 -7q5 -1 12.5 -6t9.5 -6q21 -12 4 -35q-7 -10 -24 -18q-32 -14 -72 -14q-37 0 -152 -9q-73 -5 -122 -5q-24 0 -43 1q-39 3 -68 11q-13 3 -23 10q-26 18 -18 49z" />
<glyph unicode="[" horiz-adv-x="331" d="M40 842q0 39 0.5 108.5t0.5 98.5q0 38 4 116v19q-4 102 -2 153q1 21 16 107q12 49 62 61q67 14 135 -8q19 -3 29 -16q14 -18 -4 -25q-5 -2 -27 -8q-10 -2 -29 -2q-15 -3 -18 -19q0 -6 -2 -20t-2 -21v-182q0 -41 8 -127q1 -14 1.5 -40.5t1.5 -48.5t3 -42q4 -40 5.5 -115 t4.5 -108q6 -71 9 -141h-3l-6 -226q0 -18 -2 -53t-2 -53q0 -13 1 -37t1 -35v-18q0 -28 -4 -82q0 -21 6 -39q4 -12 21 -29q33 -26 0 -49q-35 -27 -76 -33h-29q-46 3 -63 41q-15 45 -17 54q-4 32 -4 49q-8 104 -8 229q0 13 -1 39t-1 39q0 12 1 36.5t1 37.5q-1 15 0.5 69 t-2.5 70q-1 8 -1 24.5t-1 24.5q-4 47 -5.5 104.5t-1.5 96.5z" />
<glyph unicode="\" horiz-adv-x="624" d="M43 1380q-8 28 18 45q21 16 60 19q31 3 43 -23q18 -32 22 -47q10 -26 56 -162q28 -103 57 -194q39 -131 55 -201q7 -26 27 -89t29 -97q19 -61 41 -154q35 -133 61 -201q20 -52 55 -194q10 -36 11 -41l6 -31q0 -26 -25 -39q-27 -10 -53 -10q-33 3 -47 31q-1 4 -4 11t-4 11 q-6 38 -33 109q-90 253 -129 420q-15 56 -32.5 119.5t-39 141.5t-33.5 120q-10 32 -61 227q-8 31 -27 90t-22 70q-3 8 -11.5 23.5t-11.5 23.5q-5 10 -8 22z" />
<glyph unicode="]" horiz-adv-x="374" d="M40.5 1478q-1.5 10 10.5 19q9 6 23 10q39 14 71 11q7 -1 21.5 -2.5t21.5 -2.5q49 -3 66 -47q15 -44 18 -90q3 -65 19 -141q13 -61 16 -154v-71l6 -246l6 -148q3 -48 13 -288q2 -61 -10 -183q0 -11 -3.5 -31t-3.5 -24q-8 -72 -79 -108q-58 -25 -70 -29q-22 -11 -51 -8 q-9 0 -15 2q-12 3 -16 13t2 20q4 8 23 26q7 5 30 19q11 7 11 14q4 20 4 35q3 96 -2 172q-2 22 -3 59.5t-2 46.5q-1 34 -4 102.5t-4 102.5v6q-4 146 -8 217l-6 181q-4 95 2 145v6q1 24 3.5 69.5t3 68.5t-0.5 69l-6 51q-2 23 -10 74q-1 9 -4.5 11.5t-12.5 2.5h-22 q-3 1 -10.5 2t-10.5 2q-15 6 -16.5 16z" />
<glyph unicode="^" horiz-adv-x="649" d="M49 1001l19 43q11 18 41 69t52 86t46 67q31 44 82 125q13 19 37 22q48 7 82 -6q41 -11 63 -53q0 -1 3.5 -9.5t4.5 -13.5q63 -176 129 -325q9 -25 4 -37t-30 -19q-13 -4 -39 -8l-35 6q-33 9 -47 37q-12 24 -88 197l-27 61q-5 11 -12 2q-20 -27 -62 -92q-54 -84 -104 -147 q-12 -17 -21 -23q-34 -34 -84 -10q-20 9 -14 28z" />
<glyph unicode="_" horiz-adv-x="821" d="M40.5 73.5q0.5 14.5 20.5 24.5t41 13q43 3 80 -5q31 -8 113 -4q14 1 53 5t60 4h88q64 0 110 -5q25 -2 76 -2q28 0 61 -10q11 -4 29 -18q14 -14 0 -29q-9 -9 -27 -16q-29 -13 -61 -13h-45l-76 5h-86h-43q-30 0 -65 -3q-41 -6 -84 -6q-102 0 -131 4q-11 2 -34 7.5t-34 7.5 q-18 7 -27 14q-19 12 -18.5 26.5z" />
<glyph unicode="`" horiz-adv-x="380" d="M41 1571q-3 26 20 35q15 6 33 6q40 -4 64 -13q30 -17 39 -30q25 -36 75 -76q29 -23 58 -68l6 -10q10 -21 -10 -31q-13 -6 -27 -10h-25v-2q-34 4 -49 8q-27 6 -49 31q-30 35 -80 78q-40 28 -51 70q0 4 -4 12z" />
<glyph unicode="a" d="M41 82q0 18 1 54t1 54q0 8 1 24t1 24q0 106 2 161q4 126 8 183q6 93 6 96q15 165 41 262q22 97 91 188q50 63 116 68q14 1 28 1q85 0 144 -54q27 -27 35 -58q18 -55 21 -114q3 -32 5 -68.5t4 -80.5t3 -68q0 -8 1 -26t1 -26q0 -10 -1 -31.5t-1 -33.5q-1 -20 -1 -59.5 t-1 -59.5q-4 -38 -4 -98q0 -40 2 -90q0 -26 1 -77t1 -77q0 -61 -4 -92q-10 -66 -70 -80q-40 -9 -57 -4q-24 7 -29 25q-12 31 -14 49q-4 32 -4 51q-1 17 -4 81.5t-3 98.5q-1 24 -2 73t-2 73q0 10 -10 10h-63l-78 -6q-11 0 -14 -13q0 -9 -1.5 -27.5t-1.5 -27.5q-2 -30 -4 -91 t-4 -91q-4 -82 -14 -123q-6 -22 -8 -27q-7 -14 -19 -20q-22 -11 -43 -11q-14 0 -28 5q-20 7 -25 22q-4 20 -4 31zM195 526q0 -11 10 -8q24 0 74 4v-2h47q14 0 20 2q14 0 14 15q1 3 1 8t1 8v113q5 33 3 45q-3 102 -9 213l-6 92q-4 22 -16 74q-3 8 -10 4l-5 -4 q-49 -61 -73 -134q-24 -84 -35 -215q-4 -30 -8 -94q-1 -18 -4 -53.5t-4 -54.5v-13z" />
<glyph unicode="b" horiz-adv-x="647" d="M47 930v13q0 48 12 116l19 71q0 7 4 19q9 19 31 22q7 0 21 -1t20 -1q24 -4 36 -2t27 2q32 0 76 -10q103 -23 168 -88q70 -67 76 -168q-3 -46 -19 -96q-24 -73 -82 -131q-6 -5 -17.5 -16.5t-17.5 -16.5q-14 -11 2 -14q5 -3 27 -8q86 -33 135 -119q32 -52 35 -99 q0 -5 1 -15t1 -15q-3 -80 -43 -162q-17 -44 -72 -92q-53 -47 -131 -84q-26 -13 -94 -31q-46 -13 -83 -13q-11 0 -21 1q-42 4 -58 22q-4 6 -14 11q-23 10 -23 32q0 15 -4 43v152h-4q0 10 1 30.5t1 32.5q0 137 -4 207q-4 192 -4 257v20q0 88 -2 131zM229 104q0 -9 3 -10.5 t12 2.5q42 18 84 60q45 39 63 98q25 76 25 135v12v8q0 73 -56 132q-16 16 -36 16h-50q-12 0 -32 4q-3 -5 -3 -11t1.5 -12.5t1.5 -9.5q0 -16 1 -45t1 -43q0 -80 -2 -121l-13 -167v-48zM231 946q0 -42 2.5 -124.5t2.5 -123.5q0 -6 2 -8l6 4q56 60 73 90q48 81 48 147v5v10 q0 46 -25 94q-29 54 -90 54h-6q-11 0 -11 -9z" />
<glyph unicode="c" horiz-adv-x="499" d="M43 528v121q2 12 2 25.5t-1 30t-1 26.5q1 19 1.5 54t1.5 64.5t3 55.5q0 51 10 109q10 65 45 112q43 64 105 72q12 2 26 2q20 0 44 -4q45 -9 88 -31q74 -43 84 -137q2 -19 -2 -51q0 -23 -15 -33t-35 -8l-26 6q-26 11 -33 33l-4 16t-4 19q-17 52 -33 73q-5 7 -12 2 q-3 -4 -9 -13t-8 -13q-30 -65 -32 -111q-9 -104 -9 -199q0 -44 2 -85l-2 -15v-65v-174q0 -23 3.5 -65t3.5 -52q4 -66 12 -100q3 -39 26 -72q1 -1 5 -6t6 -6q9 -12 13.5 -11t10.5 13q14 33 17 43q3 14 11 43t11 43q4 27 23.5 40.5t46.5 8.5q25 -3 28 -27q5 -30 5 -39 q-4 -74 -23 -121q-29 -64 -82 -88q-47 -23 -97 -23q-32 0 -65 9q-60 18 -90 74q-26 47 -35 104q-12 82 -12 170z" />
<glyph unicode="d" horiz-adv-x="573" d="M41 543v336q0 18 2 51t2 49q0 41 -4 119q0 30 8 51q8 31 45 37q12 2 27 2q32 0 74 -10q98 -25 170 -91q42 -42 49 -51q54 -66 86 -184q25 -91 28 -197q0 -15 2 -67q1 -31 1 -54q0 -15 -1 -26q-4 -126 -24 -203q-31 -109 -98 -190q-41 -50 -99 -74q-79 -31 -147 -31h-12 q-32 4 -44 17q-12 8 -20 10q-25 9 -25 37q-4 62 -4 92q-8 126 -10 192q0 17 -2 25q0 54 -4 160zM225 1012q0 -14 1 -41.5t1 -42.5q-2 -118 -2 -212q0 -141 4 -229l7 -145l6 -205q0 -1 1 -3t1 -3h6q8 14 28.5 47.5t30.5 52.5q47 92 47 197q3 57 3 95q0 19 -1 32q-2 20 -5 61 t-5 62q-5 48 -31 162q-14 67 -43 139q-7 23 -41 61l-4 2l-4 -4v-26z" />
<glyph unicode="e" horiz-adv-x="479" d="M41 817q0 97 2 144q0 11 1 23t2.5 26.5t2.5 23.5q2 8 2 23q2 15 5 43.5t5 42.5q3 20 11.5 27.5t29.5 7.5q39 2 70 2q47 0 76 -4q15 -2 43.5 -4.5t42.5 -4.5q46 -5 63 -8q9 -2 25 -14q7 -6 6 -14.5t-10 -14.5q-1 0 -3.5 -1t-4.5 -1q-57 -16 -102 -16q-15 0 -29 2 q-20 4 -58 4q-8 0 -9.5 -2.5t-0.5 -9.5l6 -41q10 -71 10 -174v-150q0 -13 3 -15.5t18 -0.5q13 0 33 4h63q13 0 45 -4l19 -6q14 -6 15 -15.5t-11 -17.5q-13 -10 -27 -10q-17 -3 -50 -8.5t-50 -8.5l-43 -6q-11 0 -11 -12v-13q0 -201 2 -301q0 -32 3.5 -92.5t3.5 -73.5 q0 -5 1 -15t1 -15q3 -21 22 -27q3 0 8.5 -1t8.5 -1q85 -6 86 -6q15 0 47 -8q3 -1 18 -11q13 -9 2 -20q-4 -8 -16 -20q-29 -19 -58 -25q-54 -12 -97 -12q-24 0 -44 4q-2 0 -26.5 2t-36.5 4q-25 6 -54 20q-38 15 -41 58q-4 32 -4 51q-4 62 -8 182q-2 53 -2 164v6h-2 q0 18 0.5 50t0.5 57.5t-1 48.5q-4 122 -4 184z" />
<glyph unicode="f" horiz-adv-x="516" d="M43 1087q0 17 2 25q4 25 -2 39q-6 12 8 23q27 19 58 19q8 0 16 -1l37 -6h20q18 4 82 4q22 2 43 2l43 -2q34 0 72 -6q25 -4 41 -17q14 -10 12.5 -22t-18.5 -19q-18 -6 -41 -6h-115q-43 0 -63 -2q-9 0 -11 -2t-2 -10q2 -14 2 -47v-311q0 -21 4 -27q2 -3 6 -4t7 -0.5 t7.5 2.5t6.5 2q18 0 52 3t52 3q8 -1 28 0.5t28 -0.5q19 -5 24 -8q14 -8 15 -19t-11 -20q-14 -14 -26 -16q-30 -10 -60 -13q-36 -4 -104 -8h-8q-2 0 -6.5 -1.5t-5 -1.5t-4 -2t-2.5 -4t-1 -6.5t0 -9.5q2 -15 2.5 -44.5t1.5 -38.5l7 -398q0 -10 1 -30.5t1 -30.5q0 -30 -17 -64 q-11 -25 -37 -28q-18 -4 -36 -4q-22 0 -43 6q-26 6 -39 32q-14 32 -17 70v123v59h-2q0 10 0.5 29t0.5 33.5t-1 27.5q-6 298 -6 299q-3 118 -3 256q0 82 1 172z" />
<glyph unicode="g" horiz-adv-x="563" d="M46 469.5q0 18.5 1 69.5v120q2 31 5 93.5t5 93.5q7 99 25 170q6 23 22 69q44 89 129 103q23 4 43 4q13 0 25 -2q23 -3 78 -21q40 -13 78 -51q16 -16 19 -47t-7 -49q-10 -16 -27 -16h-6q-43 0 -61 43q-3 6 -8.5 18t-8.5 18q-8 13 -20 5q-41 -19 -62 -72q-15 -36 -22 -90 q-1 -3 -12 -103q-3 -21 -3.5 -61.5t-2.5 -58.5q-5 -49 -5 -236q0 -15 5 -92q4 -74 8 -107q8 -72 16 -110q3 -29 23 -56q12 -15 20.5 -19t16 1.5t16.5 22.5q20 38 26 90q1 13 4.5 66t6.5 83q4 37 0 58q-1 10 -3.5 12t-13.5 4q-24 0 -34 4q-14 0 -27 10q-6 3 -6.5 11t4.5 12 q8 8 14 10q19 8 31 10q12 1 35.5 3.5t35.5 3t35 -0.5q41 -4 62 -22q16 -19 16 -37q0 -14 1 -40t1 -40q2 -24 2 -46q0 -81 -20 -148q-30 -105 -131 -146q-61 -25 -124 -25q-13 0 -26 1q-99 12 -137 104q-13 39 -20 90q-16 140 -17 154q-1 19 -3 70t-2 69.5z" />
<glyph unicode="h" horiz-adv-x="626" d="M40 275v48.5v58.5q1 64 1 75v223q0 31 1 66t2.5 77.5t2.5 65.5q3 71 3 120q0 24 -1 42q0 37 21 88q13 26 41 26q30 3 59 -10q31 -13 41 -45q1 -3 7.5 -29t8.5 -35.5t4.5 -28.5t1.5 -34q-2 -40 -2 -238q0 -10 -4 -30q0 -13 13 -13q37 -2 73.5 -2t71.5 2q12 0 12 13 q0 15 0.5 42.5t0.5 49.5t-1 41q0 32 -2 95t-2 95q0 26 8 84q0 5 3.5 14t3.5 11q5 14 24 22q18 5 36 5q32 0 64 -17q20 -13 31 -45q17 -66 17 -98q4 -248 4 -332v-27q-4 -246 -4 -370q0 -72 -7 -172q0 -12 -3.5 -35t-4.5 -29q-3 -19 -20 -33q-42 -28 -86 -28q-21 0 -29 6 t-12 26q-12 80 -12 82q-9 111 -9 181v24v48q-1 41 -1 98q-2 95 -1 125q0 6 1 18.5t1 19.5l-2 15q0 8 -8 8q-29 -3 -80 -3t-63 -1q-10 0 -13.5 -3.5t-3.5 -13.5v-98v-266q0 -9 2 -28t2 -29q0 -12 0.5 -35.5t0.5 -42.5t-1 -35q0 -39 -34 -57q-33 -19 -74 -19h-12 q-18 1 -31.5 14.5t-18.5 34.5q-8 43 -16 133q-4 42 -5 85z" />
<glyph unicode="i" horiz-adv-x="274" d="M43 623q0 168 2 202q4 78 4 230q0 36 10 78q8 34 43 34h6q35 0 78 -22q19 -13 29 -41q14 -51 14 -90v-211v-203q0 -62 -1 -187t-1 -188q0 -73 2 -110q1 -5 2 -16.5t2 -16.5q6 -25 -18 -45q-7 -7 -16 -10q-44 -21 -83 -21h-10h-16q-23 4 -31 14t-10 35q-4 59 -4 264 q0 51 -1 152.5t-1 151.5z" />
<glyph unicode="j" horiz-adv-x="483" d="M41 176q0 18 12 27q2 2 7.5 5t7.5 5q32 14 61 14h10q11 0 27 -4q17 -9 20 -28q6 -47 25 -97l6 -14q6 -6 10 -6q5 0 9 8q7 14 10 29q6 60 6 63q1 26 2 78t2 78v59h-2q0 149 -2 225q-4 140 -4 207q0 69 8 209q1 18 1 52t1 51q0 8 -2 12q0 21 23 31q14 6 47 2q36 -2 80 -27 q32 -19 32 -57q-1 -20 -2 -59.5t-2 -59.5q0 -80 -2 -119q-1 -17 -1 -51q0 -56 3 -158q0 -137 6 -272v-31v-61q-2 -59 -2 -78q0 -13 -10 -86q-12 -63 -70 -94q-42 -25 -108 -39q-28 -7 -57 -7q-9 0 -19 1q-7 0 -15 1t-17.5 2.5t-14.5 2.5q-25 8 -45 35q-41 60 -41 151z" />
<glyph unicode="k" horiz-adv-x="565" d="M41 608q0 45 1 133.5t1 132.5q0 33 -1 98.5t-1 98.5q0 43 4 66q6 24 31 30q16 4 22 4q19 2 56 -6q52 -16 61 -63q9 -38 12 -76v-188v-29q13 15 19 31q46 101 82 159l61 101l12 20q9 26 41 33q28 8 60 -6q25 -15 10 -39q-64 -121 -76 -139q-14 -22 -34 -64.5t-29 -58.5 q-35 -68 -43 -84q-7 -11 -8 -15t2.5 -6.5t15.5 -5.5q36 -11 72 -39q30 -24 41 -57q22 -58 32 -129q12 -61 19 -160q1 -23 3 -48t5 -55.5t4 -47.5q1 -11 2.5 -31t2.5 -36.5t1 -31.5q0 -19 -4 -65q0 -13 -12 -21q-17 -8 -23 -10q-24 -8 -50.5 -8t-55.5 8q-32 11 -35 47 l-12 158q-1 28 -6.5 82t-6.5 69l-12 123q-5 57 -35 146q-11 25 -28 35q-6 5 -10.5 2.5t-4.5 -9.5v-22q0 -201 2 -301q0 -27 3 -78t4 -63q2 -35 2 -105v-33q0 -58 -58 -67q-13 -2 -26 -2q-22 0 -45 6q-56 18 -56 74q-1 20 -1 61.5t-1 62.5q0 18 -2 51.5t-2 51.5q-1 21 -1 62 t-1 61q0 33 -2 97t-2 95z" />
<glyph unicode="l" horiz-adv-x="493" d="M41 465q0 237 2 356q0 61 4 193q2 37 10 116q1 3 2 9.5t2 9.5q13 39 52 39h6q35 -3 59 -17q23 -10 29 -34q13 -49 20 -111q4 -38 4 -100q0 -41 -2 -92q-2 -70 -2 -211v-371q0 -11 1 -33.5t1 -34.5t-1 -34t-1 -33q0 -25 3 -27t26 -2h82q51 0 76 -6q12 -3 26 -10 q21 -14 4 -35q-9 -14 -20 -19q-40 -24 -95 -24h-12h-38h-58q-37 0 -53 2l-59 6q-5 0 -17 4q-23 7 -33 21.5t-12 40.5q0 100 -2 151q0 41 -2 123t-2 123z" />
<glyph unicode="m" horiz-adv-x="837" d="M41 698q0 62 2 187t2 188q0 16 14 74q9 26 39 29h11q30 0 63 -13l33 -8q22 -7 33 -16q46 -50 65 -99q38 -105 41 -118q7 -25 14 -41l74 -203v-4l4 -4l4 4l37 90q58 160 84 237q5 14 16.5 40.5t14.5 33.5q2 4 5 12.5t5 12.5q16 49 78 59q19 3 41 0q47 -6 59 -49 q6 -36 6 -39q9 -65 9 -84v-369q0 -71 -4 -219q-1 -1 -1 -45v-56q0 -100 1 -101q-5 -63 -5 -74q0 -33 2 -49q3 -35 -22 -54q-39 -29 -88 -32q-10 -3 -19 0q-15 3 -22 9t-8 19q-15 84 -15 134q0 36 -4 106q0 13 -1 40t-1 42q0 74 1 222t1 222q0 7 -4 27q-8 -15 -10 -25 l-74 -217q-10 -32 -22 -63q-14 -35 -45 -43q-25 -7 -45 -10h-7q-39 0 -57 30l-24 41q-33 68 -72 199q-3 8 -8.5 25.5t-8.5 25.5h-4l-2 -14q0 -61 2 -92q0 -72 2 -107q5 -66 5 -160v-303q0 -5 -5 -35q0 -20 -18 -34q-52 -41 -113 -41h-8l-20 6q-14 6 -17 20v31q0 54 -1 164 t-1 166q0 2 -6 143q-2 14 -2 43q-4 94 -4 139z" />
<glyph unicode="n" horiz-adv-x="681" d="M41 1077v19q0 34 31 53q28 17 67 20h23h6q41 0 65 -41q40 -73 62 -139q8 -28 19.5 -81.5t15.5 -67.5q22 -95 67 -232l56 -166l18 -49l6 -4v68q-8 98 -16 147q-17 135 -17 332q0 16 1 49t1 51q0 12 5 84q3 46 51 49h9q23 0 56 -8q54 -20 54 -76q1 -19 1 -56.5t1 -55.5 q1 -25 4 -76t4 -76v-78q-2 -53 -2 -161q0 -50 4 -144l6 -119q1 -1 0.5 -45t-0.5 -45q0 -18 -2 -28q-2 -49 -10 -156q0 -15 -17 -29q-38 -28 -83 -28h-9q-10 2 -26 -2q-17 -2 -25.5 2.5t-15.5 19.5q-1 3 -12.5 30t-16.5 42q-12 37 -38 105t-32 83q-9 26 -26.5 77t-26.5 77 l-68 194q0 1 -4 9v-76q0 -19 4 -55l7 -195q0 -21 2 -61t2 -60q-1 -13 -11 -119q-3 -18 -18 -30q-46 -38 -97 -38q-7 0 -14 1q-20 0 -28 9t-8 30q0 40 -3.5 114t-3.5 91q-1 27 -2 81t-2 82q-1 16 -4.5 69t-3.5 81v113q1 16 1 49t1 49q2 28 2 59.5t-1 70.5t-1 60q0 45 -8 127z " />
<glyph unicode="o" horiz-adv-x="634" d="M43 618q2 15 4 47.5t4 47.5q1 10 4.5 39t5 41t5.5 37t7.5 41t9.5 37t13 40q43 115 121 193q37 37 85 37q15 0 32 -4q41 -10 65 -31q3 -3 17 -8l35 -13q55 -22 75 -73q37 -94 45 -140q14 -79 15 -104q0 -1 6 -182q0 -82 -2 -123q0 -42 -6 -86q-6 -56 -15 -113 q-12 -84 -39 -160q-8 -25 -30 -59q-12 -24 -54 -53q-72 -43 -145 -43q-104 0 -170 84q-34 40 -47 96q-24 86 -29 158q-1 15 -4 43t-4 43q-6 98 -6 156q0 32 2 52zM227 492q1 -21 11 -107q4 -69 10 -104q18 -90 28 -119q19 -42 52 -68q9 -7 13 -6t9 12q6 9 10 21 q38 109 46 201q0 8 12 127l12 118q3 31 4.5 88.5t3.5 79.5q0 98 -12 164l-4 16q-7 19 -20.5 56.5t-20.5 56.5q-7 16 -16 29q-6 12 -11 15.5t-10.5 0t-13.5 -13.5q-22 -34 -45 -101q-15 -47 -37 -170q-14 -71 -21 -188v-108z" />
<glyph unicode="p" horiz-adv-x="579" d="M41 1042q0 38 6 76q0 9 4 21q7 17 23 20q34 14 65 19q40 11 84 11q49 0 103 -13q44 -10 96 -37q98 -53 110 -172q7 -63 7 -116q0 -26 -2 -50q-6 -94 -27 -178q-22 -89 -84 -154q-28 -32 -74 -51q-78 -27 -90 -29q-15 -3 -19 -7.5t-5 -21.5q0 -75 -2 -114q0 -20 -5 -133 q-3 -27 -10 -60q-9 -39 -41 -59q-25 -15 -53 -15q-9 0 -18 1q-20 3 -25 16q-3 4 -8 20q0 4 -1 12t-1 11q-3 67 -13 156q-6 57 -6 172q0 61 -2 92q-4 59 -4 178q0 10 -1 30t-1 29q0 39 -1 115.5t-1 114.5q-4 78 -4 116zM217 1081q8 -32 8 -47l6 -235v-58l7 -211v-47 q0 -12 4 -14t14 4q14 7 23 16q25 25 38 62q8 22 15 49q5 29 17.5 85t17.5 85q12 69 12 99v8q-1 9 -2 27.5t-2 27.5q-5 42 -8 57q-13 39 -21 55q-14 25 -43 43q-7 7 -16 7q-10 0 -31 -1t-31 -1q-8 0 -8 -11z" />
<glyph unicode="q" horiz-adv-x="638" d="M41 498h2v102q1 12 3.5 55t4 62t4.5 52.5t7.5 61t11.5 54.5q29 127 73 202q12 24 31 46q31 47 102 47h11q40 -2 108 -39q21 -14 39 -19q51 -15 80 -55q47 -60 57 -154q2 -12 5.5 -33.5t5.5 -33.5q10 -51 10 -125q2 -25 2 -72q0 -75 -14 -178q-15 -109 -19 -133 q-6 -43 -37 -154q-9 -21 -12 -26q-18 -31 2 -60q18 -29 64 -114q11 -19 -4 -31q-7 -7 -13 -10q-33 -15 -66 -15q-21 0 -42 6q-20 7 -29 25q-17 26 -41 53q-6 9 -16 6l-19 -6q-36 -12 -72 -12q-26 0 -51 6q-75 19 -125 92q-33 48 -47 129q-10 65 -10 119zM229 532 q-1 -29 -1 -59q0 -97 12 -207q6 -53 26 -96q15 -30 39 -43q-4 4 -4 10q-11 18 -16 31q-5 11 -5 21q0 22 25 34q26 15 49 15q25 0 37 -2q7 0 10 6q1 2 2.5 6t2.5 6q13 76 16 102q2 10 3 22t1.5 26t1.5 22q8 80 10 113q2 1 1 57t-1 57q0 8 1 26t1 26l-6 118l-12 138 q-5 35 -47 108q-7 10 -15 2l-10 -10q-39 -49 -57 -94q-54 -130 -60 -260q-1 -29 -2 -88t-2 -87z" />
<glyph unicode="r" horiz-adv-x="598" d="M41 190q0 56 4 166q1 24 4 70.5t4 69.5q2 39 2 118q0 18 -1 55t-1 56q0 107 2 160q5 51 5 116q0 32 -1 68q0 15 19 70q11 19 37 22h26h58q16 2 32 2q49 0 101 -16q87 -29 153 -107q19 -21 33 -57q28 -68 33 -121q2 -15 2 -84q0 -76 -35 -172q-27 -78 -90 -131 q-4 -2 -8 -6q-8 -5 -2 -14q38 -45 61 -138q21 -73 51 -141q13 -34 25 -117q3 -19 -14 -32q-3 -3 -15 -9q-33 -13 -63 -13q-18 0 -35 5q-24 6 -33 31q-26 71 -51 127q-21 51 -51 172l-25 72q-1 5 -4.5 8.5t-5 4.5t-8.5 3t-8 2l-4 -4q-2 -4 -2 -8l-7 -127q0 -15 -1 -42t-1 -42 q0 -14 1 -42.5t1 -43.5q0 -20 -4 -60q0 -19 -20 -32q-4 -4 -8 -4q-42 -19 -77 -19q-17 0 -32 4q-34 6 -37 39q-6 27 -6 60q-4 54 -4 81zM238 786q0 -34 1 -101t1 -101v-64q0 -8 4 -8q6 0 10 2q2 1 5 4t5 4q48 42 70 107q25 66 35 145q2 22 2 43q0 86 -35 172q-17 44 -55 82 q-18 14 -35 19q-4 1 -7 -1.5t-1 -7.5q4 -32 4 -51v-98q-4 -98 -4 -146z" />
<glyph unicode="s" horiz-adv-x="591" d="M41 645q-1 16 -1 32q0 47 7 93q6 69 25 145q29 113 92 193q58 76 155 76q66 0 123 -29q84 -38 90 -135q1 -15 1 -35q0 -40 -5 -98q-3 -15 -7 -45.5t-7 -46.5q-5 -51 -37 -121q-6 -21 -31 -25q-13 -2 -25 -2q-32 0 -61 17q-28 14 -28 47q0 8 -1 23t-1 22q-1 41 -0.5 56 t6.5 55t8 55q5 41 5 75q0 15 -1 29v27q-5 5 -8 2q-17 -17 -23 -27q-41 -58 -67 -162q-19 -96 -25 -180q0 -50 6 -102q0 -21 7 -49q14 -81 88 -136q3 -2 61 -41q43 -30 57 -41q54 -39 60 -108q2 -16 2 -31q0 -89 -76 -149q-56 -46 -117 -54q-25 -3 -49 -3q-54 0 -96 16 q-61 25 -94 75q-20 29 -17 60l9 53q6 24 30 33q20 7 40 7l40 -7q29 -11 29 -35v-29q5 -52 57 -90q8 -8 17 -2q64 27 79 94q1 8 1 16q0 26 -15 46l-6 10q-52 52 -92 80q-29 18 -92 61q-83 65 -101 172q-9 56 -12 113z" />
<glyph unicode="t" horiz-adv-x="618" d="M41 1141q2 15 35 24q21 6 45 6q180 5 217 5q15 1 42 -0.5t36 -1.5q12 -1 35.5 -1.5t35.5 -1.5q36 0 64 -14q16 -10 18 -14q7 -8 6 -17t-10 -14q-7 -5 -30 -10q-15 -3 -31 0q-16 1 -33.5 0t-38.5 -3t-33 -3q-11 0 -8 -11q12 -29 12 -90l1 -77q1 -30 1 -49q0 -27 -2 -27 q0 -3 -6 -201q-1 0 -1 -46l1 -46q0 -18 0.5 -52.5t0.5 -63.5t-1 -54q0 -65 -8 -201v-37q-1 -12 -4 -36t-4 -37q-3 -25 -27 -39q-46 -25 -92 -25h-10q-8 4 -14 4q-22 6 -25 29l-6 59v62h2q0 90 4 262q0 32 -2 94t-2 94q4 130 8 187q5 109 5 182q0 36 -1 63q0 6 1 18.5t1 18.5 q0 13 -12 13q-8 -1 -22 -1q-25 0 -70 3q-23 0 -51 14q-29 17 -27 35z" />
<glyph unicode="u" horiz-adv-x="612" d="M39 793h2v165q0 37 4 107q1 14 16 57q12 33 44 33h6q46 -3 79 -29q24 -17 27 -41q8 -60 8 -80l-2 -90q-1 -8 0.5 -23t1.5 -20q0 -151 2 -227q0 -149 4 -223q4 -93 11 -129q9 -48 30 -98q16 -41 54 -62q13 -8 18 4q22 48 27 92q0 1 6 74l12 115q2 4 2 10l12 168 q10 141 11 172q0 110 -2 133q-2 8 -2 25q4 28 8 88q2 22 2 45t-2 45q0 18 5 26t19 9q14 3 27 3q32 0 57 -16q20 -10 23 -30q1 -16 6 -50t6 -51q7 -53 7 -77q0 -8 -1 -13q-2 -24 -3 -52t-1.5 -62t-1.5 -52q-3 -132 -16 -227q-3 -18 -8 -96q-1 -11 -6 -75.5t-11 -98.5 q-9 -54 -33 -107q-19 -42 -55 -65q-66 -44 -139 -44q-13 0 -25 1q-63 6 -121 45q-29 23 -49 67q-28 54 -37 113q-12 56 -12 115q0 66 -4 202z" />
<glyph unicode="v" horiz-adv-x="722" d="M41 1102q-2 20 5.5 30.5t27.5 14.5q16 3 31 3q42 0 79 -24q10 -8 23 -34q31 -63 47 -146l43 -166q14 -54 43 -155t39 -136q19 -58 27 -90h4q1 7 4 20.5t4 20.5q7 49 35 224q3 27 11 79t11 76q7 58 14 94q2 13 7.5 34.5t7.5 29.5q6 24 17.5 71t17.5 70q6 24 26 33 q25 12 59 12q14 0 29 -2l11 -4q11 -6 14 -13t2 -20q-4 -15 -11.5 -44.5t-11.5 -43.5q-2 -14 -7 -41.5t-7 -42.5q-6 -29 -14 -80q-29 -133 -35 -167q-14 -74 -19 -130q-5 -31 -14 -98t-14 -102q-3 -31 -13.5 -87.5t-13.5 -74.5l-2 -4q0 -35 -12 -105q-1 -5 -2 -13.5t-2 -12.5 q-3 -18 -19 -31q-45 -39 -98 -39h-8q-22 3 -33 19q-26 38 -33 63l-49 146q-33 97 -55 184l-68 250l-12 47q-7 28 -20 77.5t-23.5 91.5t-17.5 79q-2 14 -8.5 41.5t-8.5 42.5q-4 19 -8 53z" />
<glyph unicode="w" horiz-adv-x="1005" d="M41 731q0 61 2 92q0 38 2 56q2 72 10 221q0 8 4 24q0 28 29 35q28 8 43 6q41 0 72 -16q10 -4 26 -16q13 -10 13 -27q-1 -15 -2 -45t-2 -45q0 -3 -1 -9.5t-1 -9.5q-5 -128 -7 -153q-4 -51 -4 -152q1 -22 4 -65t4 -64q3 -21 3 -43q0 -105 6 -158q6 -69 18 -137 q6 -55 27 -108q9 -19 14 -25q4 -8 8 0q0 1 3.5 9.5t4.5 13.5q21 75 23 86l12 67q2 21 7.5 62t7.5 61q8 63 10 94q8 66 10 99q5 93 19 215q4 30 8 82l6 127q4 60 8 96q1 8 5 22t5 19q4 12 25 20q28 6 59 0q12 -3 41 -18q24 -11 27 -43q1 -22 4 -65t4 -64l6 -144 q2 -26 5 -78.5t5 -78.5q0 -5 1 -16.5t1 -16.5v-18q0 -53 9 -134q1 -4 6 -71q7 -134 26 -215q13 -58 45 -99q10 -20 21 -16q4 1 14 21q14 44 25 110q17 171 18 180q2 17 13 158q5 42 6 118t2 101q1 21 1 64t1 65q10 111 14 133q3 13 8 74q3 51 52 59q25 3 49 0q39 -3 39 -41 v-245v-11h-2v-198q-2 -108 -13 -266q-4 -82 -14 -144q-9 -78 -37 -162q-27 -73 -100 -100q-53 -20 -99 -20h-12q-126 9 -180 110l-10 19l-6 4l-5 -6l-12 -31q-20 -55 -78 -80q-52 -21 -101.5 -21t-96.5 21q-67 28 -90 90q-18 44 -33 121q-21 140 -23 199q0 56 -4 174 q-1 25 -4 74t-4 73z" />
<glyph unicode="x" horiz-adv-x="706" d="M53 1108q-5 22 1 33.5t26 17.5q22 6 44 6q41 0 79 -22q24 -14 35 -49q22 -50 26 -66q16 -53 66 -151l28 -62q0 -1 7 -8q4 4 6 8q34 96 55 172q17 46 35 111q8 20 12 41q9 26 31 26h9q46 0 79 -30q15 -15 4 -35q-11 -27 -33 -109q-3 -9 -8.5 -26.5t-7.5 -24.5 q-11 -36 -21 -75t-22.5 -92t-18.5 -75q-2 -10 -24 -90q-6 -23 4 -45t28 -62t32.5 -72.5t25.5 -61.5q40 -92 94 -244q12 -28 12 -43q-3 -31 -28 -53q-38 -32 -90 -35h-6q-40 0 -52 37q-18 46 -51 138t-51 138q-1 3 -4 9.5t-4 9.5q0 2 -4 2h-2l-7 -19q-7 -18 -55 -160 q-14 -42 -47 -98q-28 -55 -93 -55q-11 0 -24 2q-14 2 -33 10q-17 9 -14 33q0 8 8 16q19 41 54 152q26 101 51 184q22 67 59 146q9 21 0 41q-61 146 -149 362q-10 25 -30 78t-30 78q-2 4 -2 12z" />
<glyph unicode="y" horiz-adv-x="677" d="M41 1153q3 32 33 35q10 1 19 1q51 0 93 -28q7 -5 21 -24q15 -34 20 -58l49 -182q25 -87 80 -231l6 -9q18 60 35 111q6 21 21.5 68.5t23.5 74.5l37 129q4 22 17 66q6 25 18.5 36.5t38.5 12.5q33 0 53 -10q19 -8 25 -17.5t2 -29.5q-1 -16 -15 -68q-24 -90 -34 -158 q-3 -15 -6.5 -44.5t-6.5 -43.5q-20 -90 -34 -135q-14 -53 -50 -155q-2 -3 -4 -9t-4 -8q-18 -27 -18 -88q0 -16 1 -46t1 -44v-106v-119v-5q0 -62 -68 -83q-22 -7 -43 -7q-17 0 -33 5q-40 11 -40 53q0 125 -3 248q0 13 -1 36.5t-1 34.5q0 7 5 70q0 19 -11 33q-36 41 -59 102 q-70 184 -100 297q-40 156 -58 234q-6 18 -6 22q-4 24 -4 39z" />
<glyph unicode="z" horiz-adv-x="716" d="M47 72q52 99 129 299q19 49 90 274q44 135 123 297q9 17 25 50.5t29.5 60t27.5 49.5l2 6q-4 4 -10 4q-7 -1 -21.5 -2t-21.5 -2h-197q-25 0 -55 10q-16 8 -23 15q-9 8 -7.5 16.5t12.5 13.5q26 11 43 11l182 6q9 0 28.5 1t28.5 1q37 0 55 2q8 0 35 -1.5t41 -0.5h8 q36 0 76 -23q10 -5 15 -10q19 -16 10 -41q-8 -22 -15 -35q-8 -17 -18 -36t-22 -42.5t-19 -36.5q-12 -22 -88 -182q-49 -105 -80 -215q-60 -212 -158 -422l-24 -53q-3 -4 -1 -8t7 -4q6 -2 18 -2h111h100q21 0 29 2q12 2 27 2q20 0 43 -4q9 -2 22 -11q22 -15 6 -34 q-18 -18 -26 -21q-32 -17 -74 -20q-88 -6 -182 -6q-111 4 -166 14l-68 12q-26 9 -35 14q-29 20 -12 52z" />
<glyph unicode="{" horiz-adv-x="530" d="M49 653q-18 21 2 41q11 11 17 15q59 41 69 129q1 14 2 42t2 42q3 30 4 64t1 75.5t1 64.5q3 106 27 183q26 92 88 149q46 40 90 47q28 6 56 0q45 -13 57 -24q11 -6 18 -19q6 -8 2.5 -16.5t-12.5 -11.5h-18q-13 6 -33 -9l-19 -18q-44 -56 -59 -123q-11 -65 -14 -147 q-2 -31 -2 -95q-4 -138 -21 -233q-14 -73 -47 -113q-6 -7 -17.5 -17.5t-13.5 -12.5q-1 -2 -1 -5t1 -4l13 -10q56 -41 65 -115q6 -35 6 -71q0 -42 -1 -124.5t-1 -123.5q0 -67 2 -100q0 -34 23 -86q4 -11 8 -15l47 -49q3 -2 10.5 -5t10.5 -5q27 -17 4 -37q-16 -12 -25 -14 q-57 -23 -108 -6q-21 7 -70 28q-32 16 -41 51q-18 47 -25 86q-18 147 -16 244l6 160q0 34 -12 96q-10 50 -49 70q-20 15 -27 22z" />
<glyph unicode="|" horiz-adv-x="264" d="M41 336q-2 61 2 184q6 159 6 164q6 103 6 104q2 30 2.5 85t1.5 73q9 97 9 127q2 39 2 115q0 49 8 151l6 68q1 2 2 6t2 6q9 37 47 31q13 0 25 -6q27 -7 33 -33q8 -40 8 -63q2 -37 2 -121q-3 -50 10 -211l6 -137q2 -27 2 -80q0 -11 -1 -35t-1 -35q-10 -173 -14 -209 q-2 -2 -2 -10l-6 -248l-7 -156v-36q2 -27 -7 -41t-33 -23q-37 -15 -62 -10q-19 3 -27.5 11t-9.5 26q-2 14 -2 45q-3 48 -4.5 136t-3.5 122z" />
<glyph unicode="}" horiz-adv-x="428" d="M43 1499q3 14 18 14q36 0 52 -2q37 -11 63 -24q64 -31 90 -94q34 -75 43 -160q2 -28 -2 -82q0 -27 -2 -39q-4 -52 -8 -80q-14 -138 -14 -182q0 -42 12 -82q13 -46 45 -78q5 -4 27 -26q5 -6 14 -25q11 -20 -6 -41l-8 -8q-46 -29 -39 -94q5 -35 22 -127q17 -104 17 -201 q0 -23 -7 -74q-6 -49 -51 -133l-6 -8q-33 -59 -102 -62q-32 -3 -60 9q-16 5 -32 18q-14 14 2 27q26 24 59 88q16 29 16 61q3 39 -2 176q-3 56 -30 213q-8 45 -2 97q3 47 41 82q9 7 2 14l-7 6q-97 100 -84 256q1 15 4.5 43.5t4.5 42.5l12 123l4 35q1 10 2 30t2 29 q6 88 -8 166q-4 8 -4 12q-8 25 -33 37q-11 4 -37 21q-13 9 -8 22z" />
<glyph unicode="~" horiz-adv-x="677" d="M43 676q8 25 23 35q4 3 11 8t13 9t12 7q94 42 162 35q35 -4 90 -22q54 -16 97 -33q28 -11 55 4q36 19 61 41q29 26 60 2q19 -16 6 -29l-4 -6q-71 -71 -107 -95q-14 -9 -28 -16q-7 -4 -25 -8q-7 -2 -43 -2q-57 -3 -129 29q-32 14 -43 20q-36 21 -94 7q-27 -7 -43 -23 q-15 -15 -39 -8q-17 5 -31 20q-10 10 -4 25z" />
<glyph unicode="&#xa1;" horiz-adv-x="323" d="M43 1260q-11 50 25.5 92t91.5 41q10 0 41 -9q47 -13 61 -51q3 -9 8 -14q18 -28 9 -59q-3 -15 -17 -56q-7 -21 -26 -24q-24 -8 -35 -6q-49 3 -95 18q-14 6 -28 14q-29 19 -35 54zM51 76q0 60 1 107t1.5 78t3.5 83t5 77t8 108.5t10 132.5q0 3 1.5 27.5t3.5 56.5t6.5 75.5 t12.5 99t19 111.5l6 17q8 22 33 22q43 0 49 -45q15 -106 22 -323t5 -289v-332q0 -37 -31 -49q-61 -28 -119 -8q-37 11 -37 51z" />
<glyph unicode="&#xa2;" horiz-adv-x="509" d="M43 543q8 78 35 170q22 78 88 147q35 31 80 43q4 1 10.5 2t9.5 2q15 5 17 19q1 13 2 37.5t2 37.5q1 4 2 12.5t2 12.5q6 15 20 12q34 -3 37 -37q1 -13 2 -38t2 -37q0 -15 15 -21q45 -18 61 -26q15 -9 31 -25q14 -14 6 -29q-8 -10 -29 -6l-33 12q-15 8 -26 5 q-12 -2 -16.5 -6.5t-4.5 -16.5v-68q2 -35 5.5 -101.5t5.5 -94.5q0 -13 -1 -38t-1 -38v-10q-1 -25 -4.5 -77t-4.5 -77q0 -6 -1 -19t-1 -20q-1 -10 1.5 -12.5t11.5 0.5q21 8 47 4q14 0 26 -6q16 -10 6 -27q-12 -12 -20 -16q-8 -3 -45 -14q-2 -1 -7 -2t-7 -2q-9 -2 -12 -5 t-3 -12v-57q0 -9 -4 -29q-3 -18 -22 -24h-4q-20 -2 -33.5 -0.5t-20.5 12.5t-8 35v71q0 12 -10 15q-9 5 -23 8q-37 10 -80 41q-34 24 -53 55q-61 93 -51 238zM201 410q11 -76 53 -111q1 -1 4 -2t4 -2q4 8 4 10q0 94 2 133q-1 26 -2 76t-2 74q0 20 -1 59t-1 58v32q0 4 -4 4 t-4 -2q-2 -4 -9.5 -17t-10.5 -18.5t-8 -16.5t-7.5 -20.5t-3.5 -19.5q-2 -10 -7 -33t-7 -36q-13 -92 0 -168z" />
<glyph unicode="&#xa3;" horiz-adv-x="679" d="M49 88q-19 18 2 39l17 10q49 18 79 92q13 39 21 105q12 115 12 291q0 19 1 55t1 55q2 6 2 17q-1 10 -2 13.5t-5 5t-13 1.5q-40 0 -74 19q-14 7 -24 20q-7 6 -5.5 14t9.5 13q16 4 22 4l78 6q9 0 10.5 2t1.5 12q2 29 2 86q0 61 -2 90q0 116 19 211q6 33 18 68q35 79 115 96 q2 1 57 6q53 2 137 -33q54 -23 76 -69q29 -48 33 -82q5 -38 -8 -82q-6 -17 -14.5 -23t-26.5 -6q-53 2 -68 52q-9 45 -20 81q-11 28 -29 60q-6 13 -16 6q-30 -8 -47 -41q-24 -43 -33 -94q-10 -65 -10 -121q0 -10 -2.5 -32t-2.5 -34q5 -113 5 -133q1 -10 3 -11.5t13 -4.5 q18 -3 39 -10q4 -1 10 -6.5t8 -6.5q8 -7 6 -16.5t-12 -13.5q-7 -2 -21.5 -5.5t-21.5 -5.5q-8 0 -12 -2q-12 0 -12 -12v-12v-227q-5 -114 -7 -132q-4 -34 -16 -106l-12 -59q-7 -36 -33 -86q-9 -12 4 -15q77 -24 123 -28q10 0 22 -3q19 -5 43 9l7 4q34 29 86 8l12 -6 q23 -17 8 -45q-10 -15 -16 -19q-32 -28 -80 -34q-92 -10 -209 24q-35 9 -49 14q-33 10 -62 -2q-53 -16 -116 15q-14 7 -21 14z" />
<glyph unicode="&#xa4;" horiz-adv-x="509" d="M41 870q-3 28 25 31h10q24 0 45 -12q15 -8 31 -35q3 -7 6 -8.5t10 0.5q28 8 45 4h8q41 11 107 -8l34 -13l25 25q17 17 19 18q25 21 51 5q9 -4 10.5 -13t-4.5 -16q-20 -31 -33 -47q-14 -20 -2 -41q38 -78 29 -164q-6 -60 -37 -111q-20 -34 0 -59q2 -2 24 -41q6 -6 9 -16 q7 -15 -9 -21q-13 -4 -20 -2q-30 3 -51 27q-4 6 -12.5 16t-10.5 12q-7 11 -16 9q-46 -14 -96 -2q-11 3 -21 -11l-31 -63l-10 -19q-11 -23 -41 -26q-13 -1 -24 9t-9 24q0 5 3 13.5t4 10.5q30 73 34 84q5 9 4 12.5t-10 10.5q-75 69 -78 168q-3 57 25 124q9 21 -2 37 q-29 42 -35 68zM193 592q-3 -42 16 -84q11 -27 24 -35q11 -11 25 -6q3 2 10.5 5t10.5 5q27 16 40 53q45 108 -18 240q0 2 -2 4q-13 19 -35 19q-16 3 -22 -13q-3 -7 -10.5 -21.5t-10.5 -21.5l-18 -65q-10 -31 -10 -80z" />
<glyph unicode="&#xa5;" horiz-adv-x="657" d="M41 1350q0 20 2 28q3 21 25 27q1 0 4.5 1t5.5 1q32 5 65 -11.5t50 -45.5q27 -48 45 -129q15 -60 36 -191q4 -22 29 -135l19 -76q2 -6 8 -18q1 6 6 26q38 168 63 263q7 27 23 78.5t22 72.5q29 89 35 113q5 30 39 37q44 7 76 -13q26 -12 20 -41q-22 -140 -55 -270 q-3 -13 -31 -137q-3 -12 -18 -69t-23 -87q0 -6 -4 -18q-3 -13 11 -15q24 -4 41 -4q32 0 55 -26l6 -15q7 -15 -10 -18l-35 -6h-62q-21 -1 -25 -4.5t-9 -24.5l-19 -59q-2 -8 -7 -20t-7 -17q-12 -25 12 -25q23 -3 51 -20q1 -2 4.5 -5t4.5 -5q26 -29 -11 -35q-7 -2 -22 -4 t-17 -2q-17 -1 -19.5 -4t-2.5 -19v-25q0 -18 0.5 -50.5t0.5 -59.5t-1 -51q0 -70 -23 -154q-1 -4 -18 -45q-14 -28 -47 -35q-24 -3 -49 0q-14 1 -21 8t-12 23q-4 16 -6 34.5t-3.5 41.5t-2.5 35q-4 52 -4 150v120v14q0 10 -13 10h-22q-29 0 -54 25q-26 29 11 35q10 2 29.5 4 t21.5 2q6 2 16 2q11 0 11 8q8 27 10 41q0 13 -4 19l-33 57q-7 10 -16 10q-10 -2 -31 -2q-34 0 -56 37q-6 16 9 25q4 2 13 5t13 5q13 0 17 2q11 3 12.5 5.5t-0.5 16.5q-26 74 -43 142q-32 128 -49 247q-3 19 -11.5 59.5t-11.5 61.5q-6 33 -14 99z" />
<glyph unicode="&#xa6;" horiz-adv-x="215" d="M41 0v156v110q0 43 8 125q3 38 12 76q0 3 5 18q9 25 32.5 34t48.5 -3q13 -8 15 -18q6 -12 6 -31q8 -193 4 -289q0 -16 -1 -33t-2.5 -38t-2.5 -33l-6 -74l-6 -27q-6 -33 -41 -39q-12 -4 -39 -4q-18 0 -25 21q-8 32 -8 49zM47 1077v19q4 106 8 159q0 39 6 80q4 21 9 35 q10 29 36 23q13 -2 35 -13q20 -10 23 -30q4 -12 4 -23l6 -133v-125h-2v-147q0 -28 -4 -86q0 -13 -2 -19q-7 -24 -29 -24q-13 -2 -39 2q-34 6 -37 41q-4 20 -4 28q-4 116 -8 176q0 25 -2 37z" />
<glyph unicode="&#xa7;" horiz-adv-x="718" d="M45 520q-14 93 23 193q20 57 71 98q7 7 7 9t-5 9q-52 75 -69 195q-11 96 30 199q25 71 68 125q41 55 113 84q59 25 135 18q30 -3 106 -25q30 -10 70 -34q60 -42 72 -107q8 -49 10 -76q0 -23 -12 -73q-5 -16 -14 -45.5t-13 -42.5q0 -2 -12 -37q-18 -35 -66 -35 q-44 0 -61 39q-4 4 -4 18q0 25 2 35q7 74 0 123q-2 9 -2 53q0 32 -11 78l-6 18q-7 15 -22 15q-27 0 -64 -15q-54 -20 -90 -69q-62 -84 -74 -180q-5 -38 6 -93q12 -60 41 -110q11 -23 31 -39l68 -55q83 -70 131 -148q58 -90 71 -168q13 -82 7 -121q-10 -71 -13 -82l-18 -47 q-10 -15 -10 -16q1 -3 14 -16q57 -54 66 -140q0 -9 -5 -39q-17 -70 -43 -118q-28 -57 -94 -91q-66 -37 -145 -40q-25 -5 -31 -5q-95 0 -172 35q-28 14 -53 39q-19 22 -25 49q-9 37 29 49q35 9 65 -6q15 -8 25 -24q15 -27 39 -45q46 -27 96 -15q55 15 90 62q33 43 47 71 q26 57 -8 109q-20 31 -55 66q-97 87 -203 170q-19 15 -61 53q-60 60 -72 145zM207 569q7 -81 47 -129q24 -30 70 -63l108 -78q1 -1 5 -3.5t7 -4t5 -0.5q4 2 5 5t0 8.5t-1 6.5q1 4 1 10t-0.5 11.5t-0.5 7.5q0 25 -2 35q-2 54 -31 131q-34 88 -121 182q-7 7 -16 15t-20 17.5 t-17 14.5l-4 4q-8 4 -11 -2l-6 -14q-26 -84 -18 -154z" />
<glyph unicode="&#xa8;" horiz-adv-x="659" d="M41 1544q-3 30 16.5 60t48.5 34q5 1 11.5 1t14 -0.5t11.5 -0.5q5 0 16.5 -2t16.5 -2q37 0 74 -16q51 -22 57 -76q3 -28 -6 -49q-17 -43 -44.5 -62.5t-74.5 -19.5q-81 3 -121 66q-15 21 -18 47q0 14 -2 20zM365 1528q-6 34 13.5 63t53.5 35q27 6 35 8q64 12 113 -20 q39 -23 36 -74q-3 -39 -22 -70q-19 -35 -66 -38h-18q-66 0 -115 43q-25 21 -30 53z" />
<glyph unicode="&#xa9;" horiz-adv-x="917" d="M41 719q-4 136 29 223q55 154 190 227q73 35 131 33q29 0 53 -6t50 -6q21 0 71 -8q61 -12 117 -39q119 -58 168 -195q12 -33 16 -86q1 -14 4 -43t4 -43q2 -57 -24 -145q-30 -106 -82 -176q-41 -55 -92 -82q-26 -18 -39 -23q-13 -8 -33 -12q-16 -4 -45 -7.5t-33 -4.5 q-12 0 -16 -2q-49 -7 -127 12q-63 15 -115 45q-4 2 -20.5 9.5t-24.5 12.5q-71 41 -112 109q-18 32 -35 78q-9 25 -31 108q-1 3 -2 10.5t-2 10.5zM158 782l6 -80q6 -71 37 -141q29 -73 102 -115q65 -35 139 -53q64 -16 119 4q71 24 109 86q34 52 69 164q13 46 21 123v61 q0 32 -17 78q-30 74 -81 140q-45 64 -136 77q-26 3 -61 13q-14 6 -33 2q-53 -10 -88 -33q-80 -55 -115 -109q-2 -6 -10 -14q-50 -70 -55 -135zM225 780q2 34 17 80q25 65 71 105q37 30 84 36q20 5 49 5q29 -3 52 -9q51 -10 100 -53q17 -14 31 -43q2 -2 2 -8q6 -20 -5 -33.5 t-32 -11.5q-32 7 -41 26q-19 28 -47 50q-24 18 -49 2q-17 -7 -35 -29q-37 -49 -45 -104q-10 -52 0 -91q7 -33 37 -71q20 -23 49 -17q59 11 88 33q25 17 61 6q13 -3 17 -12.5t-4 -19.5q-34 -46 -76 -56q-66 -16 -98 -16q-72 0 -123 26q-37 20 -56 50l-32 55q-21 49 -15 100z " />
<glyph unicode="&#xaa;" d="M41 82q0 18 1 54t1 54q0 8 1 24t1 24q0 106 2 161q4 126 8 183q6 93 6 96q15 165 41 262q22 97 91 188q50 63 116 68q104 10 172 -53q27 -27 35 -58q18 -55 21 -114q3 -32 5 -68.5t4 -80.5t3 -68q0 -8 1 -26t1 -26q0 -10 -1 -31.5t-1 -33.5q-1 -20 -1 -59.5t-1 -59.5 q-6 -63 -2 -188q0 -26 1 -77t1 -77q0 -61 -4 -92q-10 -66 -70 -80q-40 -9 -57 -4q-24 7 -29 25q-12 31 -14 49q-4 32 -4 51q-1 17 -4 81.5t-3 98.5q-1 24 -2 73t-2 73q0 10 -10 10h-63l-78 -6q-11 0 -14 -13q0 -9 -1.5 -27.5t-1.5 -27.5q-2 -30 -4 -91t-4 -91 q-4 -82 -14 -123q-6 -22 -8 -27q-7 -14 -19 -20q-37 -19 -71 -6q-20 7 -25 22q-4 20 -4 31zM195 526q0 -11 10 -8q24 0 74 4v-2h47q14 0 20 2q14 0 14 15q1 3 1 8t1 8v113q5 33 3 45q-3 102 -9 213l-6 92q-4 22 -16 74q-3 8 -10 4l-5 -4q-49 -61 -73 -134q-24 -84 -35 -215 q-4 -30 -8 -94q-1 -18 -4 -53.5t-4 -54.5v-13z" />
<glyph unicode="&#xab;" horiz-adv-x="774" d="M43 594q-6 28 10 47q28 32 43 47q116 133 191 232q20 26 59.5 75.5t59.5 75.5l6 6q29 33 75 17q31 -14 13 -41q-18 -33 -56 -84q-142 -189 -194 -252q-14 -17 -38 -51t-38 -50q-11 -17 0 -34q73 -105 80 -115q27 -38 162 -205q15 -20 69 -102q16 -28 21 -45 q12 -29 -19 -41q-6 -2 -18.5 -4t-19.5 -4q-41 4 -58 28q-31 35 -45 58q-39 70 -133 192q-21 28 -44.5 61t-51.5 72.5t-43 61.5q-4 6 -10.5 15.5t-8.5 12.5zM319 561q-9 23 5 43l24 35q45 61 76 117q94 168 143 252q9 15 28 41t26 36q3 6 8 11q36 39 90 10q18 -10 12 -33 l-6 -12q-19 -45 -46.5 -105t-55.5 -102q-20 -29 -53.5 -86.5t-43.5 -73.5q-15 -29 -65 -104l-10 -15q-9 -9 0 -20l36 -51l64 -82q79 -101 147 -227q9 -18 21 -54q6 -14 -8 -24q-15 -13 -54 -13q-41 -3 -61 33q-52 80 -59 96q-66 118 -117 181q-45 59 -74 100q-12 16 -27 47z " />
<glyph unicode="&#xac;" horiz-adv-x="774" d="M41.5 710q1.5 8 7.5 11q13 8 33 8h65v-2q96 4 146 8q18 1 51.5 4t50.5 4q38 0 56 2q21 0 133 5q18 1 78 -13q8 -2 24 -10q36 -17 39 -61q9 -102 6 -138q0 -12 -4 -32q-3 -25 -29 -35q-8 -3 -32 -8q-46 -3 -86 18q-33 14 -33 49q-1 6 -1 13.5t0.5 16t0.5 13.5q-2 27 -2 84 q0 11 -3.5 14t-13.5 3q-20 0 -143 -5q-25 0 -72 -0.5t-85.5 -0.5t-73.5 1q-35 0 -78 17q-20 7 -31 20q-5 6 -3.5 14z" />
<glyph unicode="&#xad;" horiz-adv-x="81" />
<glyph unicode="&#xae;" horiz-adv-x="661" d="M41 1130q0 108 43 187q29 57 96 76h6q3 0 9.5 -0.5t12 -0.5t9.5 1q4 0 9 2t11 5.5t9 4.5q48 16 108 0q9 -2 32 -7.5t34 -8.5q66 -19 127 -80q12 -11 35 -56q13 -33 32 -90q7 -21 7 -37q-1 -11 -2.5 -43.5t-4.5 -53.5t-10 -40q-5 -13 -12 -35.5t-12 -35.5q-22 -56 -76 -76 q-77 -29 -115 -33q-28 -4 -41 -2q-98 4 -155 27q-68 29 -95 71q-14 20 -24 49q-1 4 -11 35q-22 65 -22 141zM131 1126q0 -96 47 -188q20 -45 70 -64q37 -14 96 -18q29 -2 98 25q10 5 25 20q20 23 33 60q18 53 24 110q3 55 -6 107q-14 62 -57 118q-60 72 -146 52 q-27 -7 -51 2q-22 10 -49 -9q-40 -26 -55 -71q-29 -69 -29 -144zM195 1198q0 7 1 23t1 24v15q-5 21 16 28q28 14 63 17q62 3 123 -33q46 -30 58 -84q7 -34 -8 -58q-8 -13 -35 -40q-24 -16 -33 -25q-10 -7 -11 -13t7 -16q24 -28 37 -41q2 -2 32 -26l25 -25q11 -15 -6 -22 l-21 -7q-32 0 -67 21q-49 33 -72 59q-9 6 -12 -4q-2 -8 -5 -24.5t-5 -24.5q-11 -44 -52 -27q-26 10 -26 41v23q3 74 -4 127l-2 20q0 22 -4 72zM287 1208q4 -36 4 -57q0 -2 1 -6t1 -6q3 -12 12 -6l31 34q12 12 12 37v10q-3 15 -8 19.5t-18 3.5q-11 0 -15 -2 q-15 -3 -18.5 -7.5t-1.5 -19.5z" />
<glyph unicode="&#xaf;" horiz-adv-x="471" d="M55 1356q-10 23 11 33q12 4 16 4q32 0 96 2t94 2q9 0 27 1t27 1q49 0 80 -31q17 -17 12 -33q-3 -18 -25 -18h-6q-13 0 -28 -1t-33 -2.5t-29 -2.5l-100 -6q-53 -3 -86 10q-30 13 -41 24q-10 7 -15 17z" />
<glyph unicode="&#xb0;" horiz-adv-x="438" d="M41 1206q-3 75 29 135q14 23 24 31q7 10 21 14q100 26 157 9q34 -11 52 -27q73 -67 73 -158q-3 -133 -123 -198q-27 -15 -61 -15q-85 8 -123 52q-26 29 -35 69q-14 68 -14 88zM182 1208q-2 -42 13 -108q4 -13 8 -14.5t14 6.5q42 36 59 79q33 82 -22 156q-9 12 -25 12 q-20 0 -25.5 -3.5t-8.5 -20.5q-13 -80 -13 -107z" />
<glyph unicode="&#xb1;" horiz-adv-x="548" d="M41 815.5q-1 2.5 0 5.5q3 16 20 19q11 4 37 8l80 6q11 0 14 2.5t3 11.5q1 16 2 47t2 46q4 44 10 63q7 26 37 23q34 -5 67 -35q16 -16 19 -37q8 -65 10 -90q2 -14 6 -18t17 -3q42 5 84 -10q20 -12 30 -20q13 -12 10 -25q-5 -13 -22 -16q-7 -1 -21.5 -2.5t-21.5 -2.5 l-57 -6q-11 -2 -15 -6t-4 -14q1 -24 -12 -94q0 -7 -4 -15q-4 -18 -12.5 -24t-28.5 -8q-6 2 -18.5 5t-18.5 5q-35 14 -35 49q0 13 -8 41l-6 24q-1 3 -1 8.5t-0.5 9t-2.5 5.5q-6 6 -25 6q-16 2 -47 2q-36 3 -61 17l-13 6q-1 1 -4 3.5t-4.5 4t-3 4t-2.5 5zM54.5 526.5 q3.5 10.5 15.5 14.5q6 2 20 2q39 1 118 2t118 2q12 0 33 2t32 2q61 -3 98 -33q22 -17 17 -33q-1 -5 -5 -8.5t-7 -4.5t-9.5 -2.5t-9.5 -2.5h-8l-113 -6l-123 -6q-54 -3 -106 12q-25 5 -51 22l-17 17q-6 10 -2.5 20.5z" />
<glyph unicode="&#xb2;" horiz-adv-x="325" d="M41 1305q-3 40 25 86q20 33 61 43q26 6 53 0q30 -5 62 -23q32 -25 37 -53q4 -8 4 -29q2 -41 -11 -96q-6 -28 -26 -92q-24 -65 -45 -129q-5 -12 -15.5 -34.5t-11.5 -25.5l-33 -75q-3 -13 -10 -23q-3 -6 4 -6h10q5 0 16.5 1t16.5 1l43 -2q4 0 12 -4q11 -4 11 -10 q0 -7 -8 -11l-13 -6q-10 -3 -43 -8h-45h-47q-4 1 -11.5 2t-10.5 2q-10 3 -17 8q-12 7 -4 19q9 21 25.5 62.5t25.5 62.5q23 50 49 129l37 116q14 48 19 80q3 34 0 68q-1 7 -11 26q-11 14 -24 9q-13 -3 -23 -13q-13 -13 -26 -43q-1 -3 -5 -17.5t-6 -21.5l-2 -16q-3 -9 -12 -12 q-17 -6 -37 4q-14 11 -14 31z" />
<glyph unicode="&#xb3;" horiz-adv-x="346" d="M41 1329q3 41 29 70q4 6 16 18q24 24 51 27q8 2 25 2q37 2 86 -27q18 -10 28 -37q17 -43 0 -94q-14 -31 -32 -49q-2 -2 -8.5 -8t-8.5 -10q-4 -1 0 -4l6 -5q53 -19 64 -69q9 -45 4 -84l-2 -31q-2 -13 -5 -37t-5 -37l-13 -59q-2 -5 -6 -15.5t-6 -15.5q-7 -23 -39 -43 q-18 -13 -47 -20q-32 -4 -49 -2q-22 5 -33 8q-32 13 -43 45q-11 28 -8 51v23v4q3 24 27 24h8q15 -3 20.5 -7.5t8.5 -18.5l16 -60q4 -12 8 -18q0 -6 4 -6q5 -7 13 -4q28 14 40 45q10 35 13 61l12 70q6 38 6 80q0 27 -6 57l-6 23q-2 4 -8 4h-6q-24 -10 -33 -15q-21 -5 -27 -4 q-25 4 -39 15q-4 2 -8 6q-10 10 2 18q13 13 19 17q33 26 61 57q32 32 35 67q7 31 -4 58q-3 6 -11 6q-16 0 -28 -6q-49 -25 -58 -78l-2 -16q0 -7 -8 -11h-14q-13 0 -25 6q-17 10 -14 29z" />
<glyph unicode="&#xb4;" horiz-adv-x="380" d="M49 1450q54 58 78 82q10 12 22 25t26 28t22 23q17 20 41 20q34 3 67 -14q11 -3 23 -15q23 -17 2 -38q-35 -43 -109 -125q-12 -15 -28 -31q-26 -26 -56 -23q-28 0 -65 15q-15 10 -19 14q-20 17 -4 39z" />
<glyph unicode="&#xb5;" horiz-adv-x="702" d="M41 285q0 84 8 149q1 12 3 35t4 41.5t5 34.5q3 28 21 127q0 6 3 16t3 12q6 16 25 19q31 4 51 -6q21 -9 24 -35q5 -93 5 -115q1 -46 1 -138t1 -138q0 -74 10 -123q6 -35 18 -62q8 -19 25 -36q29 -32 67 -11q19 11 39 31q28 35 43 64q40 62 62 169q20 85 26 130q7 44 7 75 q2 33 2 97q0 23 4 69l6 21q3 11 16 18q45 15 84 -8q9 -6 12 -19q5 -40 5 -45q4 -49 5 -104.5t0.5 -123.5t0.5 -105q3 -133 22 -234q2 -12 10 -41q6 -25 -14 -35q-20 -8 -31 -8q-18 -3 -36 0q-42 0 -54 39l-18 68l-4 16q-13 -22 -17 -27q-2 -3 -12.5 -19t-17.5 -24 q-45 -56 -119 -69q-58 -11 -123 2q-2 0 -5.5 1t-4.5 1q-4 -2 -8 -6v-15v-125v-8q0 -12 10 -12h22q1 0 10.5 -2t14.5 -4q31 -9 22 -45q-7 -34 -34 -43q-65 -29 -121 4q-33 16 -43 61q-4 24 -4 41v242q0 22 -6 43q-20 50 -23 111q0 8 -1 24.5t-1 24.5z" />
<glyph unicode="&#xb6;" horiz-adv-x="794" d="M45 1081q-14 83 27 172q11 29 20 45q52 94 148 117q43 11 65 15q17 0 25 8q18 12 39 6q28 -8 57.5 -11t76.5 -3h58q20 6 76 -3q7 -2 45 -2q29 0 43 -6q25 -8 27 -22q1 -7 -6 -13.5t-21 -11.5q-7 -2 -21.5 -4t-15.5 -2q-10 -3 -10 -12q0 -15 2 -23q4 -29 4 -129v-92 q0 -27 3.5 -77.5t4.5 -65.5q2 -33 2 -99q0 -182 -2 -274q0 -115 -4 -170q0 -1 -6 -188q-4 -92 -8 -132q-3 -36 -26.5 -59.5t-59.5 -28.5q-27 -3 -33 21q-4 20 -4 33v61h2q-6 99 -6 102q-2 47 -2 144v256q0 1 -6 211q0 16 -1.5 67.5t-0.5 79.5q0 83 12 160q4 32 4 45 q8 98 8 150q-1 10 -2 13.5t-5 5t-13 1.5q-38 0 -56 -2q-7 0 -9.5 -2t-2.5 -10q4 -56 8 -90q14 -116 4 -254q-2 -14 -2 -41l-6 -170q-1 -18 -4 -52.5t-4 -50.5v-16q-1 -16 -2.5 -44.5t-2.5 -52t-1 -44.5q-2 -29 -4 -86.5t-4 -85.5q-3 -119 -29 -203q-34 -114 -156 -142 q-18 -3 -37 0q-14 2 -17.5 12.5t5.5 22.5q12 18 33 27q22 8 29 33q9 22 10 28q8 57 10 88q8 69 4 166q-5 104 -2 232q0 21 1 64t1 65v26q0 9 -2.5 12.5t-11.5 4.5q-78 12 -143 65q-33 26 -50 62q-31 64 -41 90t-14 63z" />
<glyph unicode="&#xb7;" horiz-adv-x="313" d="M44 719q-11 54 22 94q26 37 86 35q40 -4 86 -33q32 -22 32 -59q3 -59 -34 -105q-22 -28 -66 -24q-28 0 -59 14q-56 24 -67 78z" />
<glyph unicode="&#xb8;" horiz-adv-x="362" d="M43 -111q-6 11 6 19q14 11 31 4q26 -9 35 -14q15 -7 30 2q16 9 25 28q12 46 12 70q0 21 -2 29q-6 29 -28 34q-18 5 -41 15q-6 3 -27 18q-13 10 -6 25q6 13 10.5 38.5t7.5 35.5q4 16 8 24q5 11 21 14q29 3 53 -12q22 -13 19 -39q-4 -20 -21 -53q-6 -9 4 -12 q5 -2 15.5 -5.5t15.5 -5.5q52 -17 78 -47q30 -30 30 -71q3 -41 -10 -72q-13 -33 -39 -47q-53 -30 -110 -33q-68 0 -105 37z" />
<glyph unicode="&#xb9;" horiz-adv-x="243" d="M45 819q-6 9 6 15q1 1 15 8q2 1 7 2t7 2q8 3 8.5 3.5t-0.5 8.5v25v59q4 50 4 72q0 51 2 76q0 42 2 65q0 10 1 21.5t2.5 25t2.5 21.5l7 86q4 36 4 53v2h-4l-15 -8q-22 -11 -45 2l-2 2q-12 9 0 18l31 21q21 12 37 31q6 8 22 12q21 0 41 -10q19 -13 19 -33v-10 q-1 -13 -2 -37t-2 -37l-7 -68q0 -9 -1 -18.5t-2.5 -21.5t-2.5 -19q-2 -12 -2 -37q-1 -18 -2 -55t-2 -56q0 -25 -4 -75v-27v-57q0 -19 -2 -27q-3 -6 2 -6l20 -6q11 -6 11 -8q3 -9 -6 -13q-5 -3 -19 -8q-10 -4 -31 -4q-12 2 -73 2h-13q-13 4 -14 8z" />
<glyph unicode="&#xba;" horiz-adv-x="634" d="M43 618q2 15 4 47.5t4 47.5q1 10 4.5 39t5 41t5.5 37t7.5 41t9.5 37t13 40q43 115 121 193q48 48 117 33q41 -10 65 -31q3 -3 17 -8l35 -13q55 -22 75 -73q37 -94 45 -140q14 -79 15 -104q0 -1 6 -182q0 -82 -2 -123q0 -42 -6 -86q-6 -56 -15 -113q-12 -84 -39 -160 q-8 -25 -30 -59q-12 -24 -54 -53q-72 -43 -145 -43q-104 0 -170 84q-34 40 -47 96q-24 86 -29 158q-1 15 -4 43t-4 43q-9 153 -4 208zM227 492q1 -21 11 -107q4 -69 10 -104q18 -90 28 -119q19 -42 52 -68q9 -7 13 -6t9 12q6 9 10 21q38 109 46 201q0 8 12 127l12 118 q3 31 4.5 88.5t3.5 79.5q0 98 -12 164l-4 16q-7 19 -20.5 56.5t-20.5 56.5q-7 16 -16 29q-6 12 -11 15.5t-10.5 0t-13.5 -13.5q-22 -34 -45 -101q-15 -47 -37 -170q-14 -71 -21 -188v-108z" />
<glyph unicode="&#xbb;" horiz-adv-x="614" d="M41 139q5 33 8 37l105 240q5 11 12 23t15.5 26.5t13.5 23.5q35 54 51 127q2 6 2 23q0 21 -15 47l-86 180q-7 15 -19 41t-21.5 47t-18.5 39q-6 14 -17.5 38.5t-15.5 33.5q-8 19 -10 31q-3 16 14 24q15 8 43.5 2.5t38.5 -20.5q31 -45 39 -60q63 -112 90 -163l68 -127 q13 -27 27 -66q14 -28 4 -65q-23 -88 -62 -148t-71 -139q-34 -86 -68 -156q-10 -23 -25 -41q-12 -15 -38.5 -22.5t-45.5 -1.5q-18 8 -18 26zM207 125q3 10 10 20q44 65 160 275q46 83 61 151q9 40 8.5 48t-20.5 45q-30 58 -57 120q-59 132 -90 179q-24 38 -66 133 q-9 19 -3 26.5t28 7.5q49 3 71 -34q9 -13 38.5 -56.5t42.5 -63.5t35.5 -55.5t39 -66t31.5 -61.5q9 -19 26.5 -56.5t26.5 -56.5q2 -5 14 -29q15 -24 6 -51q-26 -95 -57 -149q-46 -87 -88 -164q-18 -31 -39 -76q-7 -13 -22.5 -38.5t-22.5 -39.5q-13 -25 -33 -36.5t-59 -12.5 q-1 0 -11 3t-16 5q-24 7 -14 33z" />
<glyph unicode="&#xbc;" horiz-adv-x="839" d="M43 27q30 109 47 151q18 45 50 129.5t46 120.5q10 26 31 73.5t29 69.5q19 43 106 263q84 212 107 262q15 32 36.5 94t32.5 88q5 15 23 51q13 23 39 23q34 0 55 -13q15 -11 12 -24q-4 -34 -8 -49q-35 -139 -76 -234q-26 -63 -90 -244q-55 -153 -123 -303q-5 -11 -71 -174 l-74 -182q-2 -5 -35 -68q-3 -9 -24 -45q-15 -32 -62 -32q-16 0 -31 6q-15 5 -19.5 12.5t-0.5 24.5zM51 1102l23 37q41 56 65 118q12 27 21 54q3 21 24 24q59 12 101 -24q14 -12 18 -41q2 -8 2 -27q0 -82 -2 -123q0 -13 -1 -27t-2.5 -31.5t-2.5 -27.5l-6 -90q0 -17 -6 -23 t-23 -6q-6 0 -41 5q-38 8 -41 51l-6 102q0 27 -6 41q-22 -28 -23 -29q-18 -30 -59 -20q-14 3 -27 10q-15 9 -8 27zM356 412q5 9 14.5 25t12.5 20q23 35 78 133l61 112q6 11 23 33q26 29 61 21q22 -6 23 -6q22 -8 16 -33q-5 -14 -8 -17l-115 -233q-20 -40 -24 -47q-4 -8 4 -8 q79 8 119 20q17 6 20 25q10 59 21 112q8 48 16 72q6 24 18 45q13 20 37.5 26t44.5 -5q21 -13 21 -39l-6 -86q-1 -15 -4.5 -44.5t-4.5 -43.5q-2 -17 -5 -50t-5 -49q0 -25 -2 -37q0 -51 -4 -153q0 -7 -1 -15t-2.5 -17.5t-2.5 -14.5q-3 -21 -10.5 -63.5t-10.5 -63.5 q-5 -45 -51 -45q-18 0 -26 2q-32 3 -35 35v49v112h-2l6 174v9q-4 4 -8 4q-1 0 -25 -6q-122 -27 -166 -25q-3 0 -45 6q-4 0 -12 4q-44 20 -21 62z" />
<glyph unicode="&#xbd;" horiz-adv-x="833" d="M47 1188l14 18q47 60 62 90q14 28 14 52q0 22 25 28h28q39 0 78 -24q32 -19 35 -58q2 -37 10 -106q1 -18 2 -53t2 -54q-1 -13 -2.5 -42t-4 -52.5t-7.5 -44.5q-5 -23 -22 -80q-7 -31 -50 -31q-5 0 -13.5 3.5t-10.5 3.5q-47 12 -47 57q-2 25 -10 76q-3 12 -3 24 q-4 78 -4 121q-2 2 -2 10q0 11 -10 11q-21 -6 -57 6q-8 2 -23 12q-17 14 -4 33zM84 -51q2 4 2 12q23 101 57 178q17 40 34 85t37 105t30 87l37 111t49 141q43 115 170 438l49 125q19 46 45 82q33 44 82 26q29 -12 26 -41q0 -12 -2 -18q-20 -101 -67 -236q-46 -130 -166 -436 q-8 -21 -61 -176q-52 -144 -140 -354q-11 -25 -32.5 -68l-30.5 -61q-17 -38 -60 -35q-24 -3 -47 10q-12 9 -12 25zM387 37q4 8 23 26l73 80q41 45 86 127q62 110 82 185q15 51 15 82q0 4 -3 5.5t-6 -1.5l-24 -21q-53 -51 -94 -141q-11 -22 -27 -62q-19 -40 -66 -28 q-24 9 -24 35q0 10 4 30q21 97 82 172q37 47 106 86q55 28 121 2q51 -17 58 -77v-27q2 -37 -17 -104q-37 -107 -86 -189q-28 -51 -98 -133l-37 -43q-3 -3 -2 -5.5t6 -2.5q77 -15 186 -33q15 -3 29 -10q12 -6 12 -15.5t-12 -17.5l-14 -6q-27 -7 -51 -4q-18 0 -50 4 q-22 2 -64 7t-63 7q-7 1 -22 1t-23 1q-45 4 -63 10q-16 3 -29 13q-30 18 -8 47z" />
<glyph unicode="&#xbe;" horiz-adv-x="1067" d="M43 1087q13 46 14 48q32 60 64 108q59 87 162 105q8 2 24 2q41 0 76 -15q49 -21 49 -75q-2 -22 -10 -56q-14 -45 -62 -143q-5 -12 -14.5 -32t-11.5 -25q-5 -12 -3.5 -15t13.5 -4q41 -5 59 -10q33 -10 56 -33q28 -35 22 -76q-9 -46 -39 -84q-19 -27 -67 -65 q-53 -41 -164 -101q-27 -11 -47 -14q-25 -8 -60 8q-35 15 -8 45q20 20 45 23q14 5 33 16l98 76q48 36 66 78q7 18 10 35v20q-3 16 -18 10q-14 -2 -37 -10q-41 -14 -86 -2q-14 5 -19 8q-39 16 -22 54q12 27 39 79q50 99 80 175q10 24 16 47v12q-10 0 -12 -2q-47 -22 -70 -62 q-42 -62 -57 -116q-6 -15 -6 -33q-3 -13 4 -29q12 -22 -13 -28q-18 -6 -51 2q-24 6 -39 24q-22 29 -14 55zM166 -86q5 15 16.5 43.5t16.5 42.5q5 13 25.5 71t33.5 89q44 105 119 262q25 52 78 153q16 33 43 96t37 85q21 56 104 254q46 106 70 155q30 65 65 127q2 6 9.5 16 t9.5 13q11 22 38 22q39 0 60 -16q21 -14 16 -35q-2 -5 -5 -17.5t-5 -17.5q-9 -24 -33.5 -91t-38.5 -103q-106 -262 -161 -393q-22 -53 -70 -144q-119 -230 -158 -307q-8 -14 -26 -55q-35 -72 -64 -121q-16 -24 -40.5 -69.5t-31.5 -57.5q-23 -39 -73 -39q-9 0 -15 2 q-29 6 -20 35zM565 362q3 14 10 27q54 115 101 195l49 92q2 6 10 18q12 23 42 28t50 -11q11 -11 11 -21q-1 -4 -2 -12t-2 -12q-5 -22 -39 -97l-80 -170l-4 -10q-2 -5 0 -7t6 -1q8 1 23.5 4t23.5 4q58 12 86 12q9 0 12 11q6 46 15 98q20 94 32 141q5 16 17 41q6 15 20 21 q34 10 60 0q23 -9 20 -35l-18 -168q-10 -78 -13 -137q-1 -20 -3 -58t-4 -68.5t-5 -56.5q-2 -23 -10 -84l-15 -100q-3 -25 -13.5 -35.5t-37.5 -11.5q-16 0 -24 2q-31 3 -31 35l-6 149q2 56 10 179q0 21 -3 24t-22 -2l-92 -24q-69 -17 -102 -13q-21 3 -49 13q-26 11 -23 40z " />
<glyph unicode="&#xbf;" horiz-adv-x="632" d="M41 291q6 68 29 129q44 125 151 201l62 38q9 6 16 13q54 37 57 102l6 90l7 107q0 12 2 18q7 22 26 19q28 0 49 -17t25 -43q0 -10 4 -26q0 -6 2 -52t4 -75l-6 -78q-9 -72 -67 -121q-18 -18 -41 -31q-74 -50 -117 -139q-35 -71 -41 -115q-14 -99 20 -166l19 -41 q10 -30 41 -57q6 -6 26 -18q19 -7 35 -2q63 12 92 63q12 16 27 47q13 30 8 62q-9 35 27 41q4 2 10 2q40 4 57.5 -10t20.5 -52q0 -33 -12 -63q-41 -105 -144 -142q-62 -20 -110 -20q-142 0 -211 98q-62 90 -72 166q-2 25 -2 72zM319 1239q0 26 3 53t22 49q18 18 43 15 q49 -6 82 -35q41 -33 35 -88q-9 -54 -47 -84q-25 -22 -58 -12q-2 2 -6 2q-77 22 -74 100z" />
<glyph unicode="&#xc0;" horiz-adv-x="704" d="M55 281v79l2 101q6 93 9 190q0 1 2 33.5t4 48.5q4 100 8 144q13 141 41 262q16 87 51 159l23 45q29 47 73 60q44 14 76 14q65 0 96 -8q109 -27 150 -133q29 -74 45 -162q13 -85 16 -153q0 -20 3 -62t3 -63q0 -129 -2 -195q1 -14 1 -29.5t-0.5 -35t-0.5 -29.5 q0 -45 -4 -139l-6 -177q-1 -19 -2 -56.5t-2 -55.5q0 -31 -2 -45q0 -24 -27 -47q-35 -21 -73 -27q-23 -3 -47 0q-33 8 -33 41q4 102 4 152q1 24 2 71t2 70l4 84v182v2q0 9 -2.5 11t-11.5 1q-11 0 -36 -1t-40 -1q-23 1 -79.5 4.5t-88.5 4.5q-6 0 -7.5 -2t-0.5 -9 q-7 -38 -4 -67q-4 -69 -8 -207q0 -47 2 -70q0 -106 -5 -147q-2 -10 -3 -22t-1.5 -26t-1.5 -22q0 -21 -6.5 -30t-27.5 -15q-20 -6 -41 0q-22 6 -25 27q-2 19 -7 57.5t-7 58.5q-2 23 -7.5 67.5t-7.5 66.5zM211 709q-1 -7 1 -9t11 -2h113q0 2 9.5 2t36.5 -0.5t75 0.5 q9 0 11.5 3t4.5 12q-1 17 -1 50t-1 50q-1 29 -4 88t-4 88q-2 60 -17 150q-10 61 -40 135q-5 15 -17 35q-13 20 -21.5 20.5t-21.5 -14.5q-2 -4 -8 -10q-31 -51 -35 -62q-61 -148 -76 -317l-12 -158q-4 -40 -4 -61zM242 1681q-3 23 18 31q12 6 29 6q39 -4 57 -12 q23 -10 37 -27q21 -31 68 -69q30 -24 53 -62l6 -10q7 -17 -10 -27q-15 -7 -25 -10h-22v-2q-30 4 -45 8q-26 7 -43 29q-30 32 -74 70q-36 25 -47 63q0 8 -2 12z" />
<glyph unicode="&#xc1;" horiz-adv-x="704" d="M55 281v79l2 101q6 93 9 190q0 1 2 33.5t4 48.5q4 100 8 144q13 141 41 262q16 87 51 159l23 45q29 47 73 60q44 14 76 14q65 0 96 -8q109 -27 150 -133q29 -74 45 -162q13 -85 16 -153q0 -20 3 -62t3 -63q0 -129 -2 -195q1 -14 1 -29.5t-0.5 -35t-0.5 -29.5 q0 -45 -4 -139l-6 -177q-1 -19 -2 -56.5t-2 -55.5q0 -31 -2 -45q0 -24 -27 -47q-35 -21 -73 -27q-23 -3 -47 0q-33 8 -33 41q4 102 4 152q1 24 2 71t2 70l4 84v182v2q0 9 -2.5 11t-11.5 1q-11 0 -36 -1t-40 -1q-23 1 -79.5 4.5t-88.5 4.5q-6 0 -7.5 -2t-0.5 -9 q-7 -38 -4 -67q-4 -69 -8 -207q0 -47 2 -70q0 -106 -5 -147q-2 -10 -3 -22t-1.5 -26t-1.5 -22q0 -21 -6.5 -30t-27.5 -15q-20 -6 -41 0q-22 6 -25 27q-2 19 -7 57.5t-7 58.5q-2 23 -7.5 67.5t-7.5 66.5zM211 709q-1 -7 1 -9t11 -2h113q0 2 9.5 2t36.5 -0.5t75 0.5 q9 0 11.5 3t4.5 12q-1 17 -1 50t-1 50q-1 29 -4 88t-4 88q-2 60 -17 150q-10 61 -40 135q-5 15 -17 35q-13 20 -21.5 20.5t-21.5 -14.5q-2 -4 -8 -10q-31 -51 -35 -62q-61 -148 -76 -317l-12 -158q-4 -40 -4 -61zM248 1563q50 54 71 75q16 20 64 68q13 20 37 20q36 0 61 -14 q12 -3 21 -12q20 -17 2 -35q-42 -52 -98 -115q-23 -23 -27 -28q-21 -21 -51 -21q-26 0 -60 15q-2 2 -7.5 5.5t-8.5 6.5q-17 17 -4 35z" />
<glyph unicode="&#xc2;" horiz-adv-x="704" d="M55 281v79l2 101q6 93 9 190q0 1 2 33.5t4 48.5q4 100 8 144q13 141 41 262q16 87 51 159l23 45q29 47 73 60q44 14 76 14q65 0 96 -8q109 -27 150 -133q29 -74 45 -162q13 -85 16 -153q0 -20 3 -62t3 -63q0 -129 -2 -195q1 -14 1 -29.5t-0.5 -35t-0.5 -29.5 q0 -45 -4 -139l-6 -177q-1 -19 -2 -56.5t-2 -55.5q0 -31 -2 -45q0 -24 -27 -47q-35 -21 -73 -27q-23 -3 -47 0q-33 8 -33 41q4 102 4 152q1 24 2 71t2 70l4 84v182v2q0 9 -2.5 11t-11.5 1q-11 0 -36 -1t-40 -1q-23 1 -79.5 4.5t-88.5 4.5q-6 0 -7.5 -2t-0.5 -9 q-7 -38 -4 -67q-4 -69 -8 -207q0 -47 2 -70q0 -106 -5 -147q-2 -10 -3 -22t-1.5 -26t-1.5 -22q0 -21 -6.5 -30t-27.5 -15q-20 -6 -41 0q-22 6 -25 27q-2 19 -7 57.5t-7 58.5q-2 23 -7.5 67.5t-7.5 66.5zM180 1513l33 56q24 34 47 63q3 5 21.5 28.5t25.5 37.5q15 24 62 28 q15 0 39 -4q44 -11 69 -53q12 -14 29 -45q43 -69 63 -115q4 -12 6 -22q9 -18 -12 -29q-20 -4 -26 -4q-54 4 -76 31q-5 6 -19.5 23t-21 25.5t-16 22.5t-15.5 27l-6 12q-5 7 -10 0q-3 -3 -8.5 -10t-8.5 -10l-63 -86q-20 -25 -49.5 -29t-57.5 15q-21 14 -6 38zM211 709 q-1 -7 1 -9t11 -2h113q0 2 9.5 2t36.5 -0.5t75 0.5q9 0 11.5 3t4.5 12q-1 17 -1 50t-1 50q-1 29 -4 88t-4 88q-2 60 -17 150q-10 61 -40 135q-5 15 -17 35q-13 20 -21.5 20.5t-21.5 -14.5q-2 -4 -8 -10q-31 -51 -35 -62q-61 -148 -76 -317l-12 -158q-4 -40 -4 -61z" />
<glyph unicode="&#xc3;" horiz-adv-x="704" d="M55 281v79l2 101q6 93 9 190q0 1 2 33.5t4 48.5q4 100 8 144q13 141 41 262q16 87 51 159l23 45q29 47 73 60q44 14 76 14q65 0 96 -8q109 -27 150 -133q29 -74 45 -162q13 -85 16 -153q0 -20 3 -62t3 -63q0 -129 -2 -195q1 -14 1 -29.5t-0.5 -35t-0.5 -29.5 q0 -45 -4 -139l-6 -177q-1 -19 -2 -56.5t-2 -55.5q0 -31 -2 -45q0 -24 -27 -47q-35 -21 -73 -27q-23 -3 -47 0q-33 8 -33 41q4 102 4 152q1 24 2 71t2 70l4 84v182v2q0 9 -2.5 11t-11.5 1q-11 0 -36 -1t-40 -1q-23 1 -79.5 4.5t-88.5 4.5q-6 0 -7.5 -2t-0.5 -9 q-7 -38 -4 -67q-4 -69 -8 -207q0 -47 2 -70q0 -106 -5 -147q-2 -10 -3 -22t-1.5 -26t-1.5 -22q0 -21 -6.5 -30t-27.5 -15q-20 -6 -41 0q-22 6 -25 27q-2 19 -7 57.5t-7 58.5q-2 23 -7.5 67.5t-7.5 66.5zM199 1554q36 55 96 58q78 -7 125 -41l20 -15q18 -15 37 -2q26 18 66 2 l8 -4q14 -14 2 -28q-17 -20 -45 -27q-21 -6 -39 -6q-109 4 -164 47q-18 10 -39 4l-20 -10q-21 -9 -43 2q-14 7 -4 20zM211 709q-1 -7 1 -9t11 -2h113q0 2 9.5 2t36.5 -0.5t75 0.5q9 0 11.5 3t4.5 12q-1 17 -1 50t-1 50q-1 29 -4 88t-4 88q-2 60 -17 150q-10 61 -40 135 q-5 15 -17 35q-13 20 -21.5 20.5t-21.5 -14.5q-2 -4 -8 -10q-31 -51 -35 -62q-61 -148 -76 -317l-12 -158q-4 -40 -4 -61z" />
<glyph unicode="&#xc4;" horiz-adv-x="704" d="M55 281v79l2 101q6 93 9 190q0 1 2 33.5t4 48.5q4 100 8 144q13 141 41 262q16 87 51 159l23 45q29 47 73 60q44 14 76 14q65 0 96 -8q109 -27 150 -133q29 -74 45 -162q13 -85 16 -153q0 -20 3 -62t3 -63q0 -129 -2 -195q1 -14 1 -29.5t-0.5 -35t-0.5 -29.5 q0 -45 -4 -139l-6 -177q-1 -19 -2 -56.5t-2 -55.5q0 -31 -2 -45q0 -24 -27 -47q-35 -21 -73 -27q-23 -3 -47 0q-33 8 -33 41q4 102 4 152q1 24 2 71t2 70l4 84v182v2q0 9 -2.5 11t-11.5 1q-11 0 -36 -1t-40 -1q-23 1 -79.5 4.5t-88.5 4.5q-6 0 -7.5 -2t-0.5 -9 q-7 -38 -4 -67q-4 -69 -8 -207q0 -47 2 -70q0 -106 -5 -147q-2 -10 -3 -22t-1.5 -26t-1.5 -22q0 -21 -6.5 -30t-27.5 -15q-20 -6 -41 0q-22 6 -25 27q-2 19 -7 57.5t-7 58.5q-2 23 -7.5 67.5t-7.5 66.5zM117 1597q-3 27 15 54.5t44 31.5h33q5 0 15.5 -2t15.5 -2q30 0 65 -14 q47 -18 53 -70q3 -24 -6 -45q-15 -39 -39.5 -56t-68.5 -17q-72 3 -109 59q-12 17 -16 43q0 12 -2 18zM211 709q-1 -7 1 -9t11 -2h113q0 2 9.5 2t36.5 -0.5t75 0.5q9 0 11.5 3t4.5 12q-1 17 -1 50t-1 50q-1 29 -4 88t-4 88q-2 60 -17 150q-10 61 -40 135q-5 15 -17 35 q-13 20 -21.5 20.5t-21.5 -14.5q-2 -4 -8 -10q-31 -51 -35 -62q-61 -148 -76 -317l-12 -158q-4 -40 -4 -61zM410 1583q-5 31 13 57.5t48 32.5q15 0 33 6q53 12 102 -18q36 -20 33 -68q-3 -38 -21 -63q-19 -32 -59 -35h-16q-57 0 -105 39q-23 23 -28 49z" />
<glyph unicode="&#xc5;" horiz-adv-x="704" d="M55 281v79l2 101q6 93 9 190q0 1 2 33.5t4 48.5q4 100 8 144q13 141 41 262q16 87 51 159l23 45q29 47 73 60q44 14 76 14q65 0 96 -8q109 -27 150 -133q29 -74 45 -162q13 -85 16 -153q0 -20 3 -62t3 -63q0 -129 -2 -195q1 -14 1 -29.5t-0.5 -35t-0.5 -29.5 q0 -45 -4 -139l-6 -177q-1 -19 -2 -56.5t-2 -55.5q0 -31 -2 -45q0 -24 -27 -47q-35 -21 -73 -27q-23 -3 -47 0q-33 8 -33 41q4 102 4 152q1 24 2 71t2 70l4 84v182v2q0 9 -2.5 11t-11.5 1q-11 0 -36 -1t-40 -1q-23 1 -79.5 4.5t-88.5 4.5q-6 0 -7.5 -2t-0.5 -9 q-7 -38 -4 -67q-4 -69 -8 -207q0 -47 2 -70q0 -106 -5 -147q-2 -10 -3 -22t-1.5 -26t-1.5 -22q0 -21 -6.5 -30t-27.5 -15q-20 -6 -41 0q-22 6 -25 27q-2 19 -7 57.5t-7 58.5q-2 23 -7.5 67.5t-7.5 66.5zM211 709q-1 -7 1 -9t11 -2h113q0 2 9.5 2t36.5 -0.5t75 0.5 q9 0 11.5 3t4.5 12q-1 17 -1 50t-1 50q-1 29 -4 88t-4 88q-2 60 -17 150q-10 61 -40 135q-5 15 -17 35q-13 20 -21.5 20.5t-21.5 -14.5q-2 -4 -8 -10q-31 -51 -35 -62q-61 -148 -76 -317l-12 -158q-4 -40 -4 -61zM250 1649q16 65 76 82q25 6 47 0q15 -4 43 -9 q47 -8 72 -37.5t16 -78.5l-6 -21q-16 -69 -95 -76h-12q-74 3 -119 56q-30 38 -22 84zM361.5 1624.5q-3.5 -36.5 19.5 -55.5q8 -8 18 2q17 26 21 59q0 33 -17 45q-4 4 -12 0q-26 -14 -29.5 -50.5z" />
<glyph unicode="&#xc6;" horiz-adv-x="1015" d="M41 92l6 80q2 10 2 33q2 18 5 52.5t5 51.5l7 74l6 61q15 136 26 207q4 28 13.5 82t13.5 82q6 38 15.5 80t23.5 95.5t20 78.5q4 20 35 152q17 75 41 133q5 15 16 37q23 42 72 63q78 34 164 6q6 0 14 -4q12 -1 37 -2t37 -2q23 -4 51 -5.5t46.5 -1.5t52.5 0.5t49 0.5 q36 0 71 -12q11 -2 31 -17q10 -8 8.5 -17.5t-12.5 -15.5q-7 -4 -25 -8q-45 -10 -57 -10q-82 0 -123 2q-16 0 -45 3.5t-39 4.5q-8 0 -9.5 -2.5t-0.5 -9.5q16 -71 16 -162q3 -111 0 -221q-1 -21 -4 -64t-4 -65q-2 -29 -2 -88q0 -8 6 -8h19h106q13 0 41 -8q6 0 19 -9 q12 -9 12 -20.5t-12 -20.5q-20 -14 -54 -18q-16 -3 -33.5 -4t-40 -1t-34.5 -1q-5 0 -13.5 0.5t-10.5 0l-6 -1.5t-4.5 -6t-1 -10.5t-1.5 -17.5q-9 -169 -6 -336q4 -86 26 -145q2 -7 19 -41q9 -17 29 -17q26 3 49 9q16 3 52.5 11t55.5 11q63 8 97 6q25 0 40 -10 q13 -8 14.5 -19t-9.5 -22q-7 -8 -31 -23q-39 -19 -90 -22q-46 -2 -119 -21q-86 -18 -145 -16q-30 0 -60 10q-45 12 -63 56q-35 65 -41 137q-14 120 -11 201v67l7 166v29q-20 4 -31 4q-66 -4 -96 -4q-15 -1 -19 -5t-6 -16q-3 -17 -8 -50.5t-8 -49.5q-8 -43 -21.5 -124.5 t-19.5 -113.5q-3 -23 -29 -170q-2 -20 -10 -55q-9 -41 -49 -41q-25 0 -37 2q-38 7 -35 45zM275.5 742q2.5 -4 27.5 -3l70 6h8q25 0 30.5 5.5t6.5 37.5q2 20 2 62q1 15 4.5 61t3.5 72q2 98 2 293q0 8 -2 24.5t-2 24.5q-4 0 -4 2l-6 -12q-30 -74 -54 -176q-9 -45 -34 -152 q-40 -165 -49 -221q-6 -20 -3.5 -24z" />
<glyph unicode="&#xc7;" horiz-adv-x="673" d="M41 657q0 121 22 250q31 191 127 342q36 59 91 111q66 60 155 57q1 0 13 -2t18 -4q57 -12 108 -47q27 -16 48 -51q1 -1 8 -15q3 -15 -7.5 -27t-25.5 -9q-30 4 -41 26q-6 12 -27 29q-20 13 -41 4q-40 -16 -59 -43q-2 -3 -21 -29t-28 -41q-62 -93 -100 -198 q-21 -55 -41 -166q-18 -115 -15 -266q0 -18 3.5 -49t4.5 -42l7 -75q10 -99 32 -181q18 -57 60 -106q33 -39 82 -51q12 -3 22 4q19 11 29 24q28 40 47 93q2 4 5 14t5 14q16 38 47 51q20 8 35 -4q23 -20 23 -43q-1 -5 -1 -13.5t-1 -12.5q-15 -72 -50 -135q-22 -38 -61 -56 q-34 -15 -72 -18l-12 -29q-6 -9 4 -12q18 -4 29 -8q45 -17 69 -43q29 -29 29 -66q3 -38 -10 -65q-9 -27 -35 -43q-44 -26 -100 -29q-63 0 -94 33q-2 3 -7 8.5t-6 7.5q-5 10 6 18q14 9 27 3q16 -3 33 -13q12 -7 28 2q16 12 21 27q12 40 12 63q0 19 -2 25q-7 28 -26 33 q-1 0 -15.5 4t-21.5 8q-4 2 -12.5 8t-12.5 8q-12 12 -4 23q4 11 8 37q-65 10 -119 43q-87 54 -131 164q-19 52 -34 155q-12 68 -19 178z" />
<glyph unicode="&#xc8;" horiz-adv-x="649" d="M41 276v402v31h2v172q0 92 4 284q1 15 1.5 42.5t1.5 51t3 44.5q0 26 15 73q14 31 49 29q6 0 14 -4q31 -7 72 -4q25 2 31 2.5t31 -2t32 -2.5q102 -11 109 -11q32 0 53 -18q7 -5 12 -14q6 -12 1.5 -23t-17.5 -14q-28 -4 -45 -4q-47 -2 -142 -2q-5 0 -14 -1t-14 -1 q-13 -3 -13 -15q2 -46 2.5 -55t-2 -55.5t-2.5 -55.5q-4 -43 -2.5 -192.5t0.5 -192.5v-10q0 -10 10 -10q17 0 23 2q16 0 48 1t48 1q43 0 84 -33q11 -8 17 -16q6 -10 1.5 -20t-16.5 -11l-51 -6q-73 -9 -147 -21q-9 -2 -12 -4.5t-3 -11.5q0 -20 1 -61t1 -62v-229q0 -50 17 -109 q10 -28 35 -57q27 -34 75 -27q58 7 107 15l37 6q30 10 57 10q27 -4 39 -12q26 -17 6 -37q-16 -16 -29 -21q-25 -13 -71 -24q-121 -28 -213 -25q-59 3 -99 19q-103 39 -131 151q-16 60 -16 137zM150 1681q-3 23 18 31q12 6 29 6q39 -4 57 -12q23 -10 37 -27q22 -33 67 -69 q32 -25 54 -62l6 -10q7 -17 -10 -27q-15 -7 -25 -10q-3 -1 -6.5 -1t-8.5 0.5t-8 0.5v-2q-30 4 -45 8q-26 7 -43 29q-33 36 -73 70q-36 25 -47 63q0 8 -2 12z" />
<glyph unicode="&#xc9;" horiz-adv-x="649" d="M41 276v402v31h2v172q0 92 4 284q1 15 1.5 42.5t1.5 51t3 44.5q0 26 15 73q14 31 49 29q6 0 14 -4q31 -7 72 -4q25 2 31 2.5t31 -2t32 -2.5q102 -11 109 -11q32 0 53 -18q7 -5 12 -14q6 -12 1.5 -23t-17.5 -14q-28 -4 -45 -4q-47 -2 -142 -2q-5 0 -14 -1t-14 -1 q-13 -3 -13 -15q2 -46 2.5 -55t-2 -55.5t-2.5 -55.5q-4 -43 -2.5 -192.5t0.5 -192.5v-10q0 -10 10 -10q17 0 23 2q16 0 48 1t48 1q43 0 84 -33q11 -8 17 -16q6 -10 1.5 -20t-16.5 -11l-51 -6q-73 -9 -147 -21q-9 -2 -12 -4.5t-3 -11.5q0 -20 1 -61t1 -62v-229q0 -50 17 -109 q10 -28 35 -57q27 -34 75 -27q58 7 107 15l37 6q30 10 57 10q27 -4 39 -12q26 -17 6 -37q-16 -16 -29 -21q-25 -13 -71 -24q-121 -28 -213 -25q-59 3 -99 19q-103 39 -131 151q-16 60 -16 137zM156 1563q50 54 71 75q16 20 64 68q13 20 37 20q36 0 61 -14q12 -3 21 -12 q20 -17 2 -35q-33 -41 -99 -115q-18 -18 -26 -28q-21 -21 -51 -21q-26 0 -60 15q-2 2 -7.5 5.5t-8.5 6.5q-17 17 -4 35z" />
<glyph unicode="&#xca;" horiz-adv-x="649" d="M41 276v402v31h2v172q0 92 4 284q1 15 1.5 42.5t1.5 51t3 44.5q0 26 15 73q14 31 49 29q6 0 14 -4q31 -7 72 -4q25 2 31 2.5t31 -2t32 -2.5q102 -11 109 -11q32 0 53 -18q7 -5 12 -14q6 -12 1.5 -23t-17.5 -14q-28 -4 -45 -4q-47 -2 -142 -2q-5 0 -14 -1t-14 -1 q-13 -3 -13 -15q2 -46 2.5 -55t-2 -55.5t-2.5 -55.5q-4 -43 -2.5 -192.5t0.5 -192.5v-10q0 -10 10 -10q17 0 23 2q16 0 48 1t48 1q43 0 84 -33q11 -8 17 -16q6 -10 1.5 -20t-16.5 -11l-51 -6q-73 -9 -147 -21q-9 -2 -12 -4.5t-3 -11.5q0 -20 1 -61t1 -62v-229q0 -50 17 -109 q10 -28 35 -57q27 -34 75 -27q58 7 107 15l37 6q30 10 57 10q27 -4 39 -12q26 -17 6 -37q-16 -16 -29 -21q-25 -13 -71 -24q-121 -28 -213 -25q-59 3 -99 19q-103 39 -131 151q-16 60 -16 137zM88 1513l33 56q24 34 47 63q3 5 21.5 28.5t25.5 37.5q7 12 18.5 18t19 7.5 t23.5 2.5q15 0 39 -4q46 -12 70 -53q12 -14 29 -45q43 -69 63 -115q4 -12 6 -22q9 -18 -12 -29q-20 -4 -27 -4q-53 3 -75 31q-5 6 -19.5 23t-21 25.5t-16 22.5t-15.5 27l-6 12q-5 7 -10 0q-3 -3 -8.5 -10t-8.5 -10l-63 -86q-20 -25 -49.5 -29t-57.5 15q-21 14 -6 38z" />
<glyph unicode="&#xcb;" horiz-adv-x="649" d="M25 1597q-3 27 15 54.5t44 31.5q4 1 10 1t13 -0.5t10 -0.5q5 0 15 -2t15 -2q31 0 66 -14q47 -18 53 -70q3 -24 -6 -45q-15 -39 -39.5 -56t-68.5 -17q-72 3 -109 59q-12 17 -16 43q0 12 -2 18zM41 276v402v31h2v172q0 92 4 284q1 15 1.5 42.5t1.5 51t3 44.5q0 26 15 73 q14 31 49 29q6 0 14 -4q31 -7 72 -4q25 2 31 2.5t31 -2t32 -2.5q102 -11 109 -11q32 0 53 -18q7 -5 12 -14q6 -12 1.5 -23t-17.5 -14q-28 -4 -45 -4q-47 -2 -142 -2q-5 0 -14 -1t-14 -1q-13 -3 -13 -15q2 -46 2.5 -55t-2 -55.5t-2.5 -55.5q-4 -43 -2.5 -192.5t0.5 -192.5 v-10q0 -10 10 -10q17 0 23 2q16 0 48 1t48 1q43 0 84 -33q11 -8 17 -16q6 -10 1.5 -20t-16.5 -11l-51 -6q-73 -9 -147 -21q-9 -2 -12 -4.5t-3 -11.5q0 -20 1 -61t1 -62v-229q0 -50 17 -109q10 -28 35 -57q27 -34 75 -27q58 7 107 15l37 6q30 10 57 10q27 -4 39 -12 q26 -17 6 -37q-16 -16 -29 -21q-25 -13 -71 -24q-121 -28 -213 -25q-59 3 -99 19q-103 39 -131 151q-16 60 -16 137zM317 1583q-5 31 13 57.5t49 32.5q15 0 33 6q53 12 102 -18q36 -20 33 -68q-3 -38 -21 -63q-19 -32 -59 -35h-16q-57 0 -105 39q-24 24 -29 49z" />
<glyph unicode="&#xcc;" horiz-adv-x="284" d="M4 1671q-3 23 19 31q12 6 28 6q40 -4 58 -12q21 -9 36 -27q22 -33 68 -70q31 -25 53 -61l6 -10q7 -17 -10 -27q-16 -8 -24 -10h-23v-2q-30 4 -45 8q-26 7 -43 29q-25 28 -74 69q-35 25 -47 64q0 8 -2 12zM43 834q1 42 2 125.5t2 125.5q4 176 4 263q0 18 2 28q3 27 29 33 q8 2 27 2q44 -6 88 -35q32 -26 32 -63q-2 -123 -2 -334q0 -53 -1 -127t-1 -104q0 -29 1 -61.5t2.5 -72t2.5 -61.5v-2l7 -133l6 -348v-11q0 -25 -7 -35.5t-30 -19.5q-56 -22 -109 -8q-16 4 -22 8q-17 7 -17 25q-2 8 -2 22v158q-1 27 -1.5 76t-1.5 89.5t-3 76.5 q-13 211 -8 383z" />
<glyph unicode="&#xcd;" horiz-adv-x="284" d="M10 1552q50 54 72 76q20 25 63 68q13 20 37 20q37 0 62 -14q11 -3 20 -12q20 -17 2 -35q-42 -52 -98 -115q-19 -19 -27 -29q-20 -20 -51 -20q-27 0 -59 14q-2 2 -8 6t-9 7q-16 16 -4 34zM43 834q1 42 2 125.5t2 125.5q4 176 4 263q0 18 2 28q3 27 29 33q8 2 27 2 q44 -6 88 -35q32 -26 32 -63q-2 -123 -2 -334q0 -53 -1 -127t-1 -104q0 -29 1 -61.5t2.5 -72t2.5 -61.5v-2l7 -133l6 -348v-11q0 -25 -7 -35.5t-30 -19.5q-56 -22 -109 -8q-16 4 -22 8q-17 7 -17 25q-2 8 -2 22v158q-1 27 -1.5 76t-1.5 89.5t-3 76.5q-13 211 -8 383z" />
<glyph unicode="&#xce;" horiz-adv-x="284" d="M-57 1503l32 56q17 24 48 63q3 5 21.5 28.5t25.5 37.5q7 12 18.5 18t19 7.5t23.5 2.5q15 0 39 -4q46 -12 70 -53q9 -11 28 -45q46 -74 64 -115q4 -12 6 -22q9 -18 -12 -29q-20 -4 -27 -4q-54 4 -76 31q-58 70 -71 98q-5 10 -7 12q-5 7 -10 0q-3 -3 -8 -10t-8 -10l-64 -86 q-20 -25 -49 -29.5t-57 14.5q-21 14 -6 39zM43 834q1 42 2 125.5t2 125.5q4 176 4 263q0 18 2 28q3 27 29 33q8 2 27 2q44 -6 88 -35q32 -26 32 -63q-2 -123 -2 -334q0 -53 -1 -127t-1 -104q0 -29 1 -61.5t2.5 -72t2.5 -61.5v-2l7 -133l6 -348v-11q0 -25 -7 -35.5t-30 -19.5 q-56 -22 -109 -8q-16 4 -22 8q-17 7 -17 25q-2 8 -2 22v158q-1 27 -1.5 76t-1.5 89.5t-3 76.5q-13 211 -8 383z" />
<glyph unicode="&#xcf;" horiz-adv-x="284" d="M-121 1587q-3 27 15.5 54.5t44.5 31.5q4 1 9.5 1t12.5 -0.5t10 -0.5q5 0 15.5 -2t15.5 -2q31 0 66 -14q47 -18 53 -70q3 -24 -6 -45q-15 -39 -40 -56.5t-69 -17.5q-71 3 -108 60q-14 19 -17 43q0 12 -2 18zM43 834q1 42 2 125.5t2 125.5q4 176 4 263q0 18 2 28 q3 27 29 33q8 2 27 2q44 -6 88 -35q32 -26 32 -63q-2 -123 -2 -334q0 -53 -1 -127t-1 -104q0 -29 1 -61.5t2.5 -72t2.5 -61.5v-2l7 -133l6 -348v-11q0 -25 -7 -35.5t-30 -19.5q-56 -22 -109 -8q-16 4 -22 8q-17 7 -17 25q-2 8 -2 22v158q-1 27 -1.5 76t-1.5 89.5t-3 76.5 q-13 211 -8 383zM172 1573q-5 31 13 57.5t48 32.5q15 0 33 6q54 12 103 -18q35 -20 32 -68q-3 -39 -20 -63q-19 -32 -59 -35h-17q-56 0 -104 39q-24 24 -29 49z" />
<glyph unicode="&#xd0;" horiz-adv-x="696" d="M41 908q1 9 12 14q9 3 39 8q10 2 35 2q10 0 10 12q2 12 2 35q0 115 2 170q0 16 1 33.5t2.5 38t2.5 32.5q3 41 9 84q0 2 2 21.5t4 30.5q3 15 10.5 20.5t24.5 7.5h18q2 0 21.5 -4.5t23 -5t21 -4.5t23.5 -6t20.5 -6.5t22.5 -8t20 -8.5t21.5 -10.5t19.5 -11.5q46 -25 88 -70 q79 -85 114 -184q24 -66 33 -140q10 -69 10 -165q0 -11 1 -34.5t1 -37.5q0 -9 -1 -26t-1 -25q0 -53 -2 -80q-1 -15 -3 -49t-4.5 -60.5t-6.5 -50.5q-19 -94 -64 -172l-45 -82q-30 -53 -75 -92l-13 -8q-54 -29 -110 -64q-37 -16 -84 -10q-26 0 -41 18q-9 12 -21 15 q-14 3 -18.5 8t-5.5 20q-1 12 -2 36t-2 36q-4 54 -4 82v133q-2 34 -3.5 76t-4 96.5t-3.5 87.5q-2 49 -2 156q0 32 -4 86q0 10 -2 12.5t-12 5.5q-5 1 -15 2t-14 2q-23 3 -43 17q-9 8 -8 17zM295 1272q8 -62 8 -98q6 -85 6 -173q1 -8 1 -26t1 -27q0 -12 13 -12q4 0 12 0.5 t14.5 0.5t11.5 -1q18 -3 44 -10q16 -4 16 -19q0 -17 -14 -20q-2 -1 -13.5 -6.5t-17.5 -6.5q-7 -2 -15.5 -3t-18.5 -1.5t-15 -1.5q-12 0 -15.5 -3t-3.5 -15q-1 -14 -2 -41t-2 -41q-1 -35 -2 -104t-2 -103q-4 -188 2 -256q5 -56 2 -123v-55l2 -8q2 1 5.5 2t4.5 2 q5 7 16.5 20.5t16.5 20.5q69 79 109 215q13 48 22 188v119h2v37q0 164 -22 272q-23 111 -55 168q-45 81 -87 123q-6 6 -18 14l-6 -2v-26z" />
<glyph unicode="&#xd1;" horiz-adv-x="710" d="M49 766q-2 48 2 149q1 8 1.5 31.5t2.5 36.5l11 107q2 14 3 43t3 43q1 9 2.5 57.5t7.5 73.5q0 5 -1 14.5t-1 13.5q0 18 16 31q39 33 94 14q8 -1 24 -8l17 -6q16 -9 25 -25q4 -12 8 -18q10 -13 19.5 -28.5t15 -26t14.5 -31.5l12 -28t12 -32.5t11 -29.5q16 -40 29.5 -85.5 t29 -105t23.5 -88.5q6 -21 16.5 -62.5t16.5 -62.5q5 -19 10 -26q-2 31 -2 92q-1 21 0.5 61t1.5 52q0 4 1 10.5t1 9.5q-1 21 0 44t3 50.5t3 42.5l13 107q3 43 8 69q8 44 8 101v28q3 13 18 17q45 3 74 -23q8 -8 16 -24q18 -72 23 -117q3 -63 12 -125v-22q0 -72 -2 -109 q0 -2 -1 -7.5t-1 -8.5l2 -205l-1 -56q0 -55 1 -55l11 -313q4 -82 2 -125q0 -74 -9 -145q-9 -38 -22 -50q-31 -21 -64 -26q-21 0 -28 14q-6 12 -19 12q-23 0 -30 25q-3 8 -7.5 24.5t-7.5 24.5q-3 9 -28.5 94t-40.5 129q-28 86 -86 308l-78 321q0 1 -0.5 2t-1.5 3.5t-2 4.5 q-10 -66 -7 -118l5 -324q0 -29 -1 -85t-1 -83q0 -61 2 -92l4 -127v-21q-3 -49 -41 -69q-36 -22 -78 -25q-2 -2 -4 -2q-29 3 -42 13t-14 40q-4 156 -4 234l-2 24q0 124 0.5 149.5t-3.5 149.5t-5 150zM178 1509q36 55 96 58q78 -7 125 -41l21 -15q18 -15 37 -2q25 18 65 2 l8 -4q14 -14 2 -28q-17 -20 -45 -27q-21 -6 -38 -6q-109 4 -164 47q-18 10 -39 4q-3 -1 -21 -10q-21 -9 -43 2q-14 7 -4 20z" />
<glyph unicode="&#xd2;" horiz-adv-x="714" d="M45 621q-3 72 4 167l4 74q6 95 21 185l20 120q23 88 51 156q30 73 107 94q15 6 33 6q56 9 73 9q60 0 115 -27q9 -5 31 -10q34 -8 57 -41q15 -26 23 -45q46 -104 61 -217q2 -22 17 -152q10 -92 4 -172l2 -18q1 -52 1 -67.5t-8 -68t-10 -69.5q-14 -115 -61 -301 q-10 -42 -37 -94q-59 -111 -180 -132q-114 -20 -189 58q-27 27 -47 76q-35 84 -53 172q-22 115 -29 190zM223 1696q-3 22 19 30q14 7 28 7q37 -4 58 -13q24 -10 37 -26q23 -35 67 -70q31 -25 53 -61l7 -11q6 -16 -11 -26q-16 -8 -24 -10h-23v-3q-21 3 -45 9q-27 7 -43 28 q-30 32 -74 70q-36 25 -47 63q0 9 -2 13zM233 725q-7 -64 5 -178q4 -63 24 -180q15 -93 53 -179q3 -10 29 -51q7 -11 12 -11t11 11q25 49 34 78q47 150 58 242q2 16 8 58.5t9.5 73t4.5 58.5q2 59 2 178l-10 140l-18 147q-1 8 -4.5 24.5t-4.5 24.5q-7 34 -29 95t-26 73 q-6 14 -16 6q-38 -20 -49 -51q-30 -82 -35 -100q-9 -32 -19 -93.5t-14 -78.5q-11 -57 -20 -211z" />
<glyph unicode="&#xd3;" horiz-adv-x="714" d="M45 621q-3 72 4 167l4 74q6 95 21 185l20 120q23 88 51 156q30 73 107 94q15 6 33 6q56 9 73 9q60 0 115 -27q9 -5 31 -10q34 -8 57 -41q15 -26 23 -45q46 -104 61 -217q2 -22 17 -152q10 -92 4 -172l2 -18q1 -52 1 -67.5t-8 -68t-10 -69.5q-14 -115 -61 -301 q-10 -42 -37 -94q-59 -111 -180 -132q-114 -20 -189 58q-27 27 -47 76q-35 84 -53 172q-22 115 -29 190zM229 1577q50 54 72 76q12 15 64 67q14 21 36 21q35 0 62 -15q11 -3 20 -12q20 -17 2 -35q-34 -42 -98 -114q-19 -19 -27 -29q-20 -20 -51 -20q-27 0 -59 14 q-2 2 -8 5.5t-9 6.5q-17 17 -4 35zM233 725q-7 -64 5 -178q4 -63 24 -180q15 -93 53 -179q3 -10 29 -51q7 -11 12 -11t11 11q25 49 34 78q47 150 58 242q2 16 8 58.5t9.5 73t4.5 58.5q2 59 2 178l-10 140l-18 147q-1 8 -4.5 24.5t-4.5 24.5q-7 34 -29 95t-26 73q-6 14 -16 6 q-38 -20 -49 -51q-30 -82 -35 -100q-9 -32 -19 -93.5t-14 -78.5q-11 -57 -20 -211z" />
<glyph unicode="&#xd4;" horiz-adv-x="714" d="M45 621q-3 72 4 167l4 74q6 95 21 185l20 120q23 88 51 156q30 73 107 94q15 6 33 6q56 9 73 9q60 0 115 -27q9 -5 31 -10q34 -8 57 -41q15 -26 23 -45q46 -104 61 -217q2 -22 17 -152q10 -92 4 -172l2 -18q1 -52 1 -67.5t-8 -68t-10 -69.5q-14 -115 -61 -301 q-10 -42 -37 -94q-59 -111 -180 -132q-114 -20 -189 58q-27 27 -47 76q-35 84 -53 172q-22 115 -29 190zM162 1528l33 55q29 42 47 64q4 6 22 29t25 36q16 25 61 29q15 0 39 -4q45 -12 70 -54q9 -11 28 -45q47 -76 64 -114q3 -10 6 -23q9 -18 -12 -28q-25 -5 -27 -5 q-54 4 -76 31q-58 70 -71 98l-2 5q-2 6 -4 8q-5 8 -11 0q-3 -3 -8 -10.5t-8 -10.5l-64 -86q-20 -25 -49 -29t-57 15q-21 14 -6 39zM233 725q-7 -64 5 -178q4 -63 24 -180q15 -93 53 -179q3 -10 29 -51q7 -11 12 -11t11 11q25 49 34 78q47 150 58 242q2 16 8 58.5t9.5 73 t4.5 58.5q2 59 2 178l-10 140l-18 147q-1 8 -4.5 24.5t-4.5 24.5q-7 34 -29 95t-26 73q-6 14 -16 6q-38 -20 -49 -51q-30 -82 -35 -100q-9 -32 -19 -93.5t-14 -78.5q-11 -57 -20 -211z" />
<glyph unicode="&#xd5;" horiz-adv-x="714" d="M45 621q-3 72 4 167l4 74q6 95 21 185l20 120q23 88 51 156q30 73 107 94q15 6 33 6q56 9 73 9q60 0 115 -27q9 -5 31 -10q34 -8 57 -41q15 -26 23 -45q46 -104 61 -217q2 -22 17 -152q10 -92 4 -172l2 -18q1 -52 1 -67.5t-8 -68t-10 -69.5q-14 -115 -61 -301 q-10 -42 -37 -94q-59 -111 -180 -132q-114 -20 -189 58q-27 27 -47 76q-35 84 -53 172q-22 115 -29 190zM180 1569q36 54 96 57q78 -7 125 -41l21 -14q18 -15 37 -2q25 18 65 2l8 -4q15 -15 3 -29q-17 -20 -46 -27q-21 -6 -38 -6q-109 4 -164 47q-18 10 -39 4q-3 -1 -21 -10 q-21 -9 -43 2q-15 7 -4 21zM233 725q-7 -64 5 -178q4 -63 24 -180q15 -93 53 -179q3 -10 29 -51q7 -11 12 -11t11 11q25 49 34 78q47 150 58 242q2 16 8 58.5t9.5 73t4.5 58.5q2 59 2 178l-10 140l-18 147q-1 8 -4.5 24.5t-4.5 24.5q-7 34 -29 95t-26 73q-6 14 -16 6 q-38 -20 -49 -51q-30 -82 -35 -100q-9 -32 -19 -93.5t-14 -78.5q-11 -57 -20 -211z" />
<glyph unicode="&#xd6;" horiz-adv-x="714" d="M45 621q-3 72 4 167l4 74q6 95 21 185l20 120q23 88 51 156q30 73 107 94q15 6 33 6q56 9 73 9q60 0 115 -27q9 -5 31 -10q34 -8 57 -41q15 -26 23 -45q46 -104 61 -217q2 -22 17 -152q10 -92 4 -172l2 -18q1 -52 1 -67.5t-8 -68t-10 -69.5q-14 -115 -61 -301 q-10 -42 -37 -94q-59 -111 -180 -132q-114 -20 -189 58q-27 27 -47 76q-35 84 -53 172q-22 115 -29 190zM98 1612q-3 27 15.5 54.5t44.5 31.5q4 1 9.5 1t12.5 -0.5t10 -0.5q5 0 15.5 -2t15.5 -2q29 0 66 -15q47 -18 53 -69q3 -24 -6 -45q-15 -39 -40 -56.5t-69 -17.5 q-71 3 -108 59q-14 19 -17 43q0 13 -2 19zM233 725q-7 -64 5 -178q4 -63 24 -180q15 -93 53 -179q3 -10 29 -51q7 -11 12 -11t11 11q25 49 34 78q47 150 58 242q2 16 8 58.5t9.5 73t4.5 58.5q2 59 2 178l-10 140l-18 147q-1 8 -4.5 24.5t-4.5 24.5q-7 34 -29 95t-26 73 q-6 14 -16 6q-38 -20 -49 -51q-30 -82 -35 -100q-9 -32 -19 -93.5t-14 -78.5q-11 -57 -20 -211zM391 1597q-5 31 13.5 58t48.5 33q14 0 32 6q53 11 103 -19q36 -20 33 -67q-3 -39 -21 -64q-19 -32 -59 -35h-17q-56 0 -104 39q-24 24 -29 49z" />
<glyph unicode="&#xd7;" horiz-adv-x="479" d="M45 524l53 90q30 46 74 119q18 29 18.5 39.5t-14.5 40.5q-14 28 -27 61t-28.5 73t-24.5 63q0 2 -1 6t-1 6q-2 15 15 25q15 7 40.5 0t34.5 -21l39 -63q7 -12 19 -34.5t18 -31.5q6 -11 12 -2q27 40 35 55q13 21 35 43q14 12 37 13t37 -11q13 -9 10 -22q-7 -28 -18 -47 q-2 -4 -74 -133q-11 -19 0 -39l37 -74q6 -11 21.5 -38.5t23.5 -43.5q10 -26 20 -63q5 -16 -12 -25q-4 0 -6 -2q-23 -6 -51 2.5t-41 28.5q-44 67 -58 94q-6 6 -12 18q-12 -18 -47 -69q-3 -4 -12.5 -20t-14.5 -25q-18 -25 -43 -43q-37 -22 -82 -2q-25 9 -12 32z" />
<glyph unicode="&#xd8;" horiz-adv-x="835" d="M43 588q-5 78 2 188q12 203 78 389q28 79 86 164q48 65 129 78q42 7 98 -25q11 -9 31 -12q48 -8 72 -16q33 -10 69 -51q5 -3 12.5 -12.5t10.5 -12.5q9 -10 12 -10t10 14q16 35 29 53q24 41 41 62q13 21 39 18q29 -3 49 -29q8 -12 2 -24q-2 -8 -7.5 -27.5t-8.5 -29.5 l-62 -166q-11 -28 -2 -58q35 -128 37 -221q0 -36 4 -94q2 -45 -6 -131q-7 -83 -37 -211q-25 -106 -84 -211q-43 -75 -94 -123q-41 -44 -111 -61q-15 -4 -39.5 -8t-29.5 -5q-74 10 -115 29l-10 5q-10 5 -13 3.5t-12 -18.5q-1 -3 -2 -4q-26 -39 -41 -56q-6 -8 -28 -12 q-30 -3 -54 12q-23 10 -16 39q6 21 16 41q6 9 12.5 19.5t13.5 23t11 19.5q14 19 0 43q-18 34 -33 69q-26 56 -41 158q-10 67 -18 201zM225 639q-1 -39 13 -205l6 -53l6 -16l8 14q24 44 64 131q120 261 231 541q12 31 2 57q-25 69 -49 109l-39 61q-12 12 -21 12l-40 8 q-12 2 -23 -8q-25 -25 -37 -59q-47 -106 -88 -277q-36 -144 -33 -315zM307 188q19 -44 47 -63q12 -12 25 -2q3 1 8 4t8 4q35 20 72 78q54 80 84 197q36 134 43 301v51l-2 2h-4q-2 -3 -5 -10.5t-5 -10.5q-86 -176 -95 -192q-91 -176 -166 -324l-10 -20q-3 -9 0 -15z" />
<glyph unicode="&#xd9;" horiz-adv-x="710" d="M41 1255q0 13 2 40t2 40v51q0 27 23 35q29 8 47 6q30 -2 69 -16q6 -2 14 -8t11 -8q18 -9 18 -35v-64q0 -39 -2 -110t-2 -129t4 -109q4 -46 4 -65h2v-441q0 -120 27 -237q8 -30 14 -43q26 -52 95 -62q21 -3 41 17q24 24 30 57q16 82 17 90q12 86 12 211q0 26 4 78.5 t4 77.5v8q0 3 6 162q1 27 5 101t4 114q0 34 4 104l12 160q2 25 2 72q0 32 25 39q24 8 38 8q43 0 66 -8q15 -6 21 -14t6 -25v-41q0 -27 2 -84t2 -84q0 -21 0.5 -60.5t0.5 -72t-1 -60.5l-6 -129q-1 -30 -6.5 -83.5t-6.5 -67.5q-6 -69 -6 -72q-5 -30 -20 -190q-10 -93 -13 -111 q-12 -78 -24 -115q-16 -46 -58 -88q-79 -79 -190 -100q-78 -16 -145 10q-73 28 -97 96q-16 43 -26 103q-21 129 -21 260q0 121 -2 182q-1 29 -1.5 119.5t-2.5 140.5q-4 78 -4 350zM221 1681q-3 23 19 31q12 6 28 6q40 -4 58 -12q21 -9 36 -27q21 -31 68 -69q30 -24 53 -62 l6 -10q7 -17 -10 -27q-16 -8 -24 -10q-3 -1 -6.5 -1t-8.5 0.5t-8 0.5v-2q-30 4 -45 8q-26 7 -43 29q-30 32 -74 70q-36 25 -47 63q0 8 -2 12z" />
<glyph unicode="&#xda;" horiz-adv-x="710" d="M41 1255q0 13 2 40t2 40v51q0 27 23 35q29 8 47 6q30 -2 69 -16q6 -2 14 -8t11 -8q18 -9 18 -35v-64q0 -39 -2 -110t-2 -129t4 -109q4 -46 4 -65h2v-441q0 -120 27 -237q8 -30 14 -43q26 -52 95 -62q21 -3 41 17q24 24 30 57q16 82 17 90q12 86 12 211q0 26 4 78.5 t4 77.5v8q0 3 6 162q1 27 5 101t4 114q0 34 4 104l12 160q2 25 2 72q0 32 25 39q24 8 38 8q43 0 66 -8q15 -6 21 -14t6 -25v-41q0 -27 2 -84t2 -84q0 -21 0.5 -60.5t0.5 -72t-1 -60.5l-6 -129q-1 -30 -6.5 -83.5t-6.5 -67.5q-6 -69 -6 -72q-5 -30 -20 -190q-10 -93 -13 -111 q-12 -78 -24 -115q-16 -46 -58 -88q-79 -79 -190 -100q-78 -16 -145 10q-73 28 -97 96q-16 43 -26 103q-21 129 -21 260q0 121 -2 182q-1 29 -1.5 119.5t-2.5 140.5q-4 78 -4 350zM227 1563q38 41 72 75q20 25 63 68q13 20 37 20q37 0 62 -14q11 -3 20 -12q20 -17 2 -35 q-42 -52 -98 -115q-23 -23 -27 -28q-21 -21 -51 -21q-25 0 -59 15q-2 2 -8 5.5t-9 6.5q-17 17 -4 35z" />
<glyph unicode="&#xdb;" horiz-adv-x="710" d="M41 1255q0 13 2 40t2 40v51q0 27 23 35q29 8 47 6q30 -2 69 -16q6 -2 14 -8t11 -8q18 -9 18 -35v-64q0 -39 -2 -110t-2 -129t4 -109q4 -46 4 -65h2v-441q0 -120 27 -237q8 -30 14 -43q26 -52 95 -62q21 -3 41 17q24 24 30 57q16 82 17 90q12 86 12 211q0 26 4 78.5 t4 77.5v8q0 3 6 162q1 27 5 101t4 114q0 34 4 104l12 160q2 25 2 72q0 32 25 39q24 8 38 8q43 0 66 -8q15 -6 21 -14t6 -25v-41q0 -27 2 -84t2 -84q0 -21 0.5 -60.5t0.5 -72t-1 -60.5l-6 -129q-1 -30 -6.5 -83.5t-6.5 -67.5q-6 -69 -6 -72q-5 -30 -20 -190q-10 -93 -13 -111 q-12 -78 -24 -115q-16 -46 -58 -88q-79 -79 -190 -100q-78 -16 -145 10q-73 28 -97 96q-16 43 -26 103q-21 129 -21 260q0 121 -2 182q-1 29 -1.5 119.5t-2.5 140.5q-4 78 -4 350zM160 1513l33 56q24 34 47 63q3 5 21.5 28.5t25.5 37.5q7 12 18.5 18t19 7.5t23.5 2.5 q15 0 39 -4q46 -12 70 -53q9 -11 28 -45q46 -74 64 -115q4 -12 6 -22q9 -18 -12 -29q-20 -4 -27 -4q-54 4 -76 31q-58 70 -71 98q-5 10 -7 12q-5 7 -10 0q-3 -3 -8 -10t-8 -10l-64 -86q-20 -25 -49 -29t-57 15q-21 14 -6 38z" />
<glyph unicode="&#xdc;" horiz-adv-x="710" d="M41 1255q0 13 2 40t2 40v51q0 27 23 35q29 8 47 6q30 -2 69 -16q6 -2 14 -8t11 -8q18 -9 18 -35v-64q0 -39 -2 -110t-2 -129t4 -109q4 -46 4 -65h2v-441q0 -120 27 -237q8 -30 14 -43q26 -52 95 -62q21 -3 41 17q24 24 30 57q16 82 17 90q12 86 12 211q0 26 4 78.5 t4 77.5v8q0 3 6 162q1 27 5 101t4 114q0 34 4 104l12 160q2 25 2 72q0 32 25 39q24 8 38 8q43 0 66 -8q15 -6 21 -14t6 -25v-41q0 -27 2 -84t2 -84q0 -21 0.5 -60.5t0.5 -72t-1 -60.5l-6 -129q-1 -30 -6.5 -83.5t-6.5 -67.5q-6 -69 -6 -72q-5 -30 -20 -190q-10 -93 -13 -111 q-12 -78 -24 -115q-16 -46 -58 -88q-79 -79 -190 -100q-78 -16 -145 10q-73 28 -97 96q-16 43 -26 103q-21 129 -21 260q0 121 -2 182q-1 29 -1.5 119.5t-2.5 140.5q-4 78 -4 350zM96 1597q-3 27 15.5 54.5t44.5 31.5h32q5 0 15.5 -2t15.5 -2q31 0 66 -14q47 -18 53 -70 q3 -24 -6 -45q-15 -39 -40 -56t-69 -17q-71 3 -108 59q-14 19 -17 43q0 12 -2 18zM389 1583q-5 31 13 57.5t49 32.5q14 0 32 6q54 12 103 -18q35 -20 32 -68q-3 -39 -20 -63q-19 -32 -59 -35h-17q-56 0 -104 39q-24 24 -29 49z" />
<glyph unicode="&#xdd;" horiz-adv-x="645" d="M35 1346q-1 20 6.5 28.5t32.5 20.5q4 2 12 2q44 0 94 -29q29 -17 35 -53q8 -38 10 -66q5 -73 29 -166q5 -19 12.5 -57t12.5 -57t18.5 -55t21 -65.5t7.5 -55.5q0 -5 2 -7l4 -4l2 4l6 35q8 61 14 88l25 115q2 9 19 87t28 120q7 29 25 119q5 24 18 24q1 0 3 1t3 1 q8 0 27 0.5t28 0.5t23.5 -2.5t26.5 -8.5q16 -8 16 -33q0 -28 -12 -86q-39 -201 -41 -215q-2 -12 -23 -121q-12 -56 -24 -172q-1 -7 -11 -67q-15 -76 -22 -125q-4 -27 -27 -74q-4 -8 -4 -16q0 -41 4 -119q6 -132 6 -262q0 -4 -2 -12.5t-2 -12.5q0 -25 -28 -35q-38 -15 -93 -4 q-31 6 -34 35q-2 21 -9.5 62t-9.5 61q-3 22 -8 149v53.5t4 65.5q4 25 -10 39t-21 39q-13 44 -41 125t-34 100q-23 70 -39 152q-6 29 -23.5 115t-25.5 133q-2 12 -9.5 63t-13.5 78q-4 22 -8 64zM195 1563q50 54 71 75q16 20 64 68q13 20 37 20q36 0 61 -14q12 -3 21 -12 q20 -17 2 -35q-33 -41 -99 -115q-18 -18 -26 -28q-21 -21 -52 -21q-25 0 -59 15q-2 2 -7.5 5.5t-8.5 6.5q-17 17 -4 35z" />
<glyph unicode="&#xde;" horiz-adv-x="614" d="M41 674l6 297q2 69 14 194v27q0 28 9 111q4 29 8 79q2 29 13 41t40 13q34 3 70 -13q26 -12 35 -41q8 -40 8 -61q0 -19 1 -57t1 -56q0 -15 -1 -42t-1 -40l-1 -9q-1 -9 1 -9q0 -4 6 -10q20 -4 33 -4q69 -12 133 -39q44 -20 86 -72q52 -61 65 -149q19 -134 -41 -238 q-41 -62 -88 -84q-54 -26 -78 -33l-108 -37q-17 -3 -14 -18q0 -113 2 -168q5 -67 -9 -160q-8 -35 -10 -55q-6 -28 -37 -37q-46 -9 -88 8q-31 10 -28 43v72q0 41 -9 160q-4 49 -8 147q-4 57 -8 187q-2 18 -2 53zM227 631l6 -88q0 -13 13 -6q27 12 59 28q24 11 45 39 q43 64 43 141q2 56 -18 129q-18 58 -58 101q-34 34 -65 41q-14 4 -14 -10q-5 -25 -5 -33z" />
<glyph unicode="&#xdf;" horiz-adv-x="866" d="M41 -29q-2 9 4 17q3 3 23 18q28 14 63 17q15 1 19 1.5t9 3.5t6 8t3 17q6 24 6 49q0 76 -2 113q-3 100 -2.5 280.5t-1.5 282.5q-4 140 -4 211q0 23 3.5 65t4.5 56l6 84q6 74 27 141q20 66 84 105q56 33 125 33q155 0 256 -125q45 -56 59 -150q11 -57 4 -129 q-10 -159 -88 -272q-4 -6 -31 -33q-8 -9 -7 -12.5t11 -10.5q34 -19 46 -28q70 -47 106 -133q39 -90 51 -179q2 -8 2 -22q4 -77 -4 -131q-9 -78 -57 -137q-46 -60 -131 -80q-71 -17 -150 -11q-39 0 -69 27q-22 18 0 37q5 5 14 8q46 17 80 10q3 -1 9 -2t9 -2q24 -8 49 13 q51 45 60 108q17 137 -10 246q-14 65 -39 131q-20 59 -62 90q-24 16 -41 21q-25 7 -41 18q-18 9 -34 25q-20 22 4 43q6 6 10 8q104 64 143 213q20 77 17 145q-7 98 -35 160q-2 6 -10 18t-9 13q-6 14 -26 14q-44 -3 -99 -31q-26 -12 -36 -41q-18 -50 -21 -102v-148h2 q0 -17 -0.5 -48.5t-0.5 -57.5t1 -49q1 -24 2.5 -67t2.5 -78.5t1 -67.5q2 -129 2 -385q0 -28 -8 -86l-12 -86q-4 -27 -23 -70q-18 -38 -53 -59q-48 -31 -104 -37h-74q-13 0 -29 8q-8 3 -10 12z" />
<glyph unicode="&#xe0;" d="M41 82q0 18 1 54t1 54q0 8 1 24t1 24q0 106 2 161q4 126 8 183q6 93 6 96q15 165 41 262q22 97 91 188q50 63 116 68q104 10 172 -53q27 -27 35 -58q18 -55 21 -114q3 -32 5 -68.5t4 -80.5t3 -68q0 -8 1 -26t1 -26q0 -10 -1 -31.5t-1 -33.5q-1 -20 -1 -59.5t-1 -59.5 q-6 -63 -2 -188q0 -26 1 -77t1 -77q0 -61 -4 -92q-10 -66 -70 -80q-40 -9 -57 -4q-24 7 -29 25q-12 31 -14 49q-4 32 -4 51q-1 17 -4 81.5t-3 98.5q-1 24 -2 73t-2 73q0 10 -10 10h-63l-78 -6q-11 0 -14 -13q0 -9 -1.5 -27.5t-1.5 -27.5q-2 -30 -4 -91t-4 -91 q-4 -82 -14 -123q-6 -22 -8 -27q-7 -14 -19 -20q-37 -19 -71 -6q-20 7 -25 22q-4 20 -4 31zM195 526q0 -11 10 -8q24 0 74 4v-2h47q14 0 20 2q14 0 14 15q1 3 1 8t1 8v113q5 33 3 45q-3 102 -9 213l-6 92q-4 22 -16 74q-3 8 -10 4l-5 -4q-49 -61 -73 -134q-24 -84 -35 -215 q-4 -30 -8 -94q-1 -18 -4 -53.5t-4 -54.5v-13zM215 1458q-3 23 18 31q12 6 29 6q39 -4 57 -12q23 -10 37 -27q22 -33 68 -70q31 -25 53 -61l6 -10q7 -17 -10 -27q-16 -8 -24 -10q-3 -1 -6.5 -1t-8.5 0.5t-8 0.5v-2q-30 4 -45 8q-26 7 -43 29q-25 28 -74 69q-35 25 -47 64 q0 8 -2 12z" />
<glyph unicode="&#xe1;" d="M41 82q0 18 1 54t1 54q0 8 1 24t1 24q0 106 2 161q4 126 8 183q6 93 6 96q15 165 41 262q22 97 91 188q50 63 116 68q104 10 172 -53q27 -27 35 -58q18 -55 21 -114q3 -32 5 -68.5t4 -80.5t3 -68q0 -8 1 -26t1 -26q0 -10 -1 -31.5t-1 -33.5q-1 -20 -1 -59.5t-1 -59.5 q-6 -63 -2 -188q0 -26 1 -77t1 -77q0 -61 -4 -92q-10 -66 -70 -80q-40 -9 -57 -4q-24 7 -29 25q-12 31 -14 49q-4 32 -4 51q-1 17 -4 81.5t-3 98.5q-1 24 -2 73t-2 73q0 10 -10 10h-63l-78 -6q-11 0 -14 -13q0 -9 -1.5 -27.5t-1.5 -27.5q-2 -30 -4 -91t-4 -91 q-4 -82 -14 -123q-6 -22 -8 -27q-7 -14 -19 -20q-37 -19 -71 -6q-20 7 -25 22q-4 20 -4 31zM195 526q0 -11 10 -8q24 0 74 4v-2h47q14 0 20 2q14 0 14 15q1 3 1 8t1 8v113q5 33 3 45q-3 102 -9 213l-6 92q-4 22 -16 74q-3 8 -10 4l-5 -4q-49 -61 -73 -134q-24 -84 -35 -215 q-4 -30 -8 -94q-1 -18 -4 -53.5t-4 -54.5v-13zM221 1339q50 54 72 76q20 25 63 68q13 20 37 20q37 0 62 -14q11 -3 20 -12q20 -17 2 -35q-42 -52 -98 -115q-19 -19 -27 -29q-20 -20 -51 -20q-27 0 -59 14q-2 2 -8 6t-9 7q-16 17 -4 34z" />
<glyph unicode="&#xe2;" d="M41 82q0 18 1 54t1 54q0 8 1 24t1 24q0 106 2 161q4 126 8 183q6 93 6 96q15 165 41 262q22 97 91 188q50 63 116 68q104 10 172 -53q27 -27 35 -58q18 -55 21 -114q3 -32 5 -68.5t4 -80.5t3 -68q0 -8 1 -26t1 -26q0 -10 -1 -31.5t-1 -33.5q-1 -20 -1 -59.5t-1 -59.5 q-6 -63 -2 -188q0 -26 1 -77t1 -77q0 -61 -4 -92q-10 -66 -70 -80q-40 -9 -57 -4q-24 7 -29 25q-12 31 -14 49q-4 32 -4 51q-1 17 -4 81.5t-3 98.5q-1 24 -2 73t-2 73q0 10 -10 10h-63l-78 -6q-11 0 -14 -13q0 -9 -1.5 -27.5t-1.5 -27.5q-2 -30 -4 -91t-4 -91 q-4 -82 -14 -123q-6 -22 -8 -27q-7 -14 -19 -20q-37 -19 -71 -6q-20 7 -25 22q-4 20 -4 31zM154 1290l32 56q24 34 47 63q4 6 22.5 29.5t25.5 36.5q7 12 18.5 18t19 7.5t23.5 2.5q15 0 39 -4q46 -12 70 -53q9 -11 28 -45q46 -74 64 -115q4 -12 6 -22q9 -18 -12 -29 q-20 -4 -27 -4q-54 4 -76 31q-5 6 -19.5 23t-21 25.5t-16 22.5t-15.5 27l-6 12q-5 7 -10 0q-3 -3 -8 -10t-8 -10l-64 -86q-20 -25 -49 -29.5t-57 14.5q-21 14 -6 39zM195 526q0 -11 10 -8q24 0 74 4v-2h47q14 0 20 2q14 0 14 15q1 3 1 8t1 8v113q5 33 3 45q-3 102 -9 213 l-6 92q-4 22 -16 74q-3 8 -10 4l-5 -4q-49 -61 -73 -134q-24 -84 -35 -215q-4 -30 -8 -94q-1 -18 -4 -53.5t-4 -54.5v-13z" />
<glyph unicode="&#xe3;" d="M41 82q0 18 1 54t1 54q0 8 1 24t1 24q0 106 2 161q4 126 8 183q6 93 6 96q15 165 41 262q22 97 91 188q50 63 116 68q104 10 172 -53q27 -27 35 -58q18 -55 21 -114q3 -32 5 -68.5t4 -80.5t3 -68q0 -8 1 -26t1 -26q0 -10 -1 -31.5t-1 -33.5q-1 -20 -1 -59.5t-1 -59.5 q-6 -63 -2 -188q0 -26 1 -77t1 -77q0 -61 -4 -92q-10 -66 -70 -80q-40 -9 -57 -4q-24 7 -29 25q-12 31 -14 49q-4 32 -4 51q-1 17 -4 81.5t-3 98.5q-1 24 -2 73t-2 73q0 10 -10 10h-63l-78 -6q-11 0 -14 -13q0 -9 -1.5 -27.5t-1.5 -27.5q-2 -30 -4 -91t-4 -91 q-4 -82 -14 -123q-6 -22 -8 -27q-7 -14 -19 -20q-37 -19 -71 -6q-20 7 -25 22q-4 20 -4 31zM172 1331q36 55 96 58q78 -7 125 -41l21 -15q18 -15 37 -2q25 18 65 2l8 -4q14 -14 2 -29q-16 -19 -45 -26q-21 -6 -39 -6q-108 4 -163 47q-18 10 -39 4q-3 -1 -21 -10 q-21 -9 -43 2q-14 7 -4 20zM195 526q0 -11 10 -8q24 0 74 4v-2h47q14 0 20 2q14 0 14 15q1 3 1 8t1 8v113q5 33 3 45q-3 102 -9 213l-6 92q-4 22 -16 74q-3 8 -10 4l-5 -4q-49 -61 -73 -134q-24 -84 -35 -215q-4 -30 -8 -94q-1 -18 -4 -53.5t-4 -54.5v-13z" />
<glyph unicode="&#xe4;" d="M41 82q0 18 1 54t1 54q0 8 1 24t1 24q0 106 2 161q4 126 8 183q6 93 6 96q15 165 41 262q22 97 91 188q50 63 116 68q104 10 172 -53q27 -27 35 -58q18 -55 21 -114q3 -32 5 -68.5t4 -80.5t3 -68q0 -8 1 -26t1 -26q0 -10 -1 -31.5t-1 -33.5q-1 -20 -1 -59.5t-1 -59.5 q-6 -63 -2 -188q0 -26 1 -77t1 -77q0 -61 -4 -92q-10 -66 -70 -80q-40 -9 -57 -4q-24 7 -29 25q-12 31 -14 49q-4 32 -4 51q-1 17 -4 81.5t-3 98.5q-1 24 -2 73t-2 73q0 10 -10 10h-63l-78 -6q-11 0 -14 -13q0 -9 -1.5 -27.5t-1.5 -27.5q-2 -30 -4 -91t-4 -91 q-4 -82 -14 -123q-6 -22 -8 -27q-7 -14 -19 -20q-37 -19 -71 -6q-20 7 -25 22q-4 20 -4 31zM90 1374q-3 27 15.5 54.5t44.5 31.5h32q5 0 15.5 -2t15.5 -2q31 0 66 -14q47 -18 53 -70q3 -24 -6 -45q-15 -39 -40 -56.5t-69 -17.5q-71 3 -108 60q-14 19 -17 43q0 12 -2 18z M195 526q0 -11 10 -8q24 0 74 4v-2h47q14 0 20 2q14 0 14 15q1 3 1 8t1 8v113q5 33 3 45q-3 102 -9 213l-6 92q-4 22 -16 74q-3 8 -10 4l-5 -4q-49 -61 -73 -134q-24 -84 -35 -215q-4 -30 -8 -94q-1 -18 -4 -53.5t-4 -54.5v-13zM383 1360q-5 31 13 57.5t48 32.5q15 0 33 6 q54 12 103 -18q35 -20 32 -68q-3 -39 -20 -63q-19 -32 -60 -35h-16q-56 0 -104 39q-24 24 -29 49z" />
<glyph unicode="&#xe5;" d="M41 82q0 18 1 54t1 54q0 8 1 24t1 24q0 106 2 161q4 126 8 183q6 93 6 96q15 165 41 262q22 97 91 188q50 63 116 68q104 10 172 -53q27 -27 35 -58q18 -55 21 -114q3 -32 5 -68.5t4 -80.5t3 -68q0 -8 1 -26t1 -26q0 -10 -1 -31.5t-1 -33.5q-1 -20 -1 -59.5t-1 -59.5 q-6 -63 -2 -188q0 -26 1 -77t1 -77q0 -61 -4 -92q-10 -66 -70 -80q-40 -9 -57 -4q-24 7 -29 25q-12 31 -14 49q-4 32 -4 51q-1 17 -4 81.5t-3 98.5q-1 24 -2 73t-2 73q0 10 -10 10h-63l-78 -6q-11 0 -14 -13q0 -9 -1.5 -27.5t-1.5 -27.5q-2 -30 -4 -91t-4 -91 q-4 -82 -14 -123q-6 -22 -8 -27q-7 -14 -19 -20q-37 -19 -71 -6q-20 7 -25 22q-4 20 -4 31zM195 526q0 -11 10 -8q24 0 74 4v-2h47q14 0 20 2q14 0 14 15q1 3 1 8t1 8v113q5 33 3 45q-3 102 -9 213l-6 92q-4 22 -16 74q-3 8 -10 4l-5 -4q-49 -61 -73 -134q-24 -84 -35 -215 q-4 -30 -8 -94q-1 -18 -4 -53.5t-4 -54.5v-13zM223 1425q16 65 76 82q25 6 47 0q7 -2 43 -8q47 -8 72 -38t16 -79l-6 -20q-16 -69 -94 -76h-12q-75 3 -119 55q-31 39 -23 84zM335 1401.5q-4 -36.5 19 -55.5q8 -8 19 2q16 24 20 59q0 34 -16 45q-4 4 -12 0q-26 -14 -30 -50.5 z" />
<glyph unicode="&#xe6;" horiz-adv-x="880" d="M39 57q0 21 1 63t1 64q2 8 2 25q0 27 10 145q5 71 31 238q15 102 33 201q37 161 43 184q12 51 47 115q17 35 47 65q36 36 86 45q78 14 152 -22q10 -6 32 -6q33 2 101 2q53 0 82 4q40 6 88 -11q27 -13 34 -26q15 -19 -4 -29q-10 -5 -37 -14q-20 -4 -28 -4l-113 -6 q-10 0 -29 2t-28 2q-6 2 -15 2q-10 0 -12 -2.5t0 -12.5l6 -47q9 -106 9 -143q2 -51 2 -156v-20q0 -9 2.5 -11.5t11.5 -1.5q8 1 28 4.5t31 4.5q51 0 76 2q46 0 66 -6q8 -2 26 -11q15 -7 15.5 -19.5t-11.5 -21.5q-9 -9 -20 -12q-36 -12 -60 -12q-50 0 -112 -10l-47 -7 q-13 0 -13 -12q0 -26 -1 -78.5t-1 -77.5q-2 -16 -2 -49q0 -35 -2 -103.5t-2 -103.5q0 -21 8 -75q3 -22 29 -25q8 -2 27 -2q42 0 65 2q7 0 22.5 1t22.5 1q14 2 45 2q22 -6 27 -8q21 -11 10 -29q-12 -20 -20 -26q-37 -29 -86 -39q-40 -4 -64 -4q-37 -2 -110 -2q-41 0 -82 12 q-59 18 -68 78q0 1 -3 35t-3 51v180h2v229q0 16 -4 20t-21 1q-37 -4 -112 -4q-9 0 -12 -3t-5 -12l-6 -38q-10 -58 -18 -179q-2 -30 -7 -92t-7 -92q-10 -80 -13 -94q0 -7 -3.5 -19t-4.5 -16q-8 -21 -31 -31q-32 -14 -69 -8q-30 7 -33 33q0 4 -1 10.5t-1 9.5zM248 680 q0 -10 10 -10q74 8 111 10q17 0 20.5 3.5t3.5 18.5v244l-6 121q0 6 -2 10l-6 8l-6 -4q-2 -4 -6 -8q-35 -48 -58 -119q-35 -100 -61 -274z" />
<glyph unicode="&#xe7;" horiz-adv-x="499" d="M43 528v121q2 12 2 25.5t-1 30t-1 26.5q1 19 1.5 54t1.5 64.5t3 55.5q0 51 10 109q10 65 45 112q43 64 105 72q29 5 70 -2q45 -9 88 -31q74 -43 84 -137q2 -19 -2 -51q0 -23 -15 -33t-35 -8l-26 6q-26 11 -33 33l-4 16t-4 19q-17 52 -33 73q-5 7 -12 2q-3 -4 -9 -13 t-8 -13q-30 -65 -32 -111q-13 -152 -7 -284l-2 -15v-65v-174q0 -23 3.5 -65t3.5 -52q4 -66 12 -100q3 -39 26 -72q1 -1 5 -6t6 -6q9 -12 13.5 -11t10.5 13q14 33 17 43q3 14 11 43t11 43q4 27 23.5 40.5t46.5 8.5q25 -3 28 -27q5 -30 5 -39q-4 -74 -23 -121q-29 -64 -82 -88 q-27 -13 -65 -20q-4 -11 -9 -19q-6 -9 4 -12q18 -4 29 -8q47 -17 70 -43q28 -28 28 -66q3 -38 -10 -65q-9 -27 -35 -43q-44 -26 -100 -29q-63 0 -94 33q-2 3 -6.5 8.5t-5.5 7.5q-6 11 6 19q13 9 26 2q18 -3 33 -12q13 -8 29 2q15 11 20 26q13 43 13 64q0 15 -3 24 q-7 28 -26 33q-1 0 -15.5 4t-21.5 8q-4 2 -12.5 8.5t-12.5 8.5q-11 11 -4 22q6 14 9 31l-9 2q-60 18 -90 74q-26 47 -35 104q-12 82 -12 170z" />
<glyph unicode="&#xe8;" horiz-adv-x="479" d="M41 817q0 97 2 144q0 11 1 23t2.5 26.5t2.5 23.5q2 8 2 23q2 15 5 43.5t5 42.5q3 20 11.5 27.5t29.5 7.5q97 4 146 -2q15 -2 43.5 -4.5t42.5 -4.5q46 -5 63 -8q9 -2 25 -14q7 -6 6 -14.5t-10 -14.5q-1 0 -3.5 -1t-4.5 -1q-76 -21 -131 -14q-20 4 -58 4q-8 0 -9.5 -2.5 t-0.5 -9.5l6 -41q10 -71 10 -174v-150q0 -13 3 -15.5t18 -0.5q13 0 33 4h63q13 0 45 -4l19 -6q14 -6 15 -15.5t-11 -17.5q-13 -10 -27 -10q-17 -3 -50 -8.5t-50 -8.5l-43 -6q-11 0 -11 -12v-13q0 -201 2 -301q0 -32 3.5 -92.5t3.5 -73.5q0 -5 1 -15t1 -15q3 -21 22 -27 q3 0 8.5 -1t8.5 -1q85 -6 86 -6q15 0 47 -8q3 -1 18 -11q13 -9 2 -20q-4 -8 -16 -20q-29 -19 -58 -25q-84 -18 -141 -8q-2 0 -26.5 2t-36.5 4q-25 6 -54 20q-38 15 -41 58q-4 32 -4 51q-4 62 -8 182q-2 53 -2 164v6h-2q0 18 0.5 50t0.5 57.5t-1 48.5q-4 122 -4 184z M104 1432q-3 22 19 30q12 6 29 6q39 -4 57 -12q24 -10 37 -26q23 -35 67 -70q32 -25 54 -62l6 -10q6 -16 -11 -26q-20 -10 -24 -11q-3 -1 -6.5 -1t-8.5 0.5t-8 0.5v-2q-30 4 -45 8q-26 7 -43 29q-33 36 -73 70q-37 26 -48 63q0 9 -2 13z" />
<glyph unicode="&#xe9;" horiz-adv-x="479" d="M41 817q0 97 2 144q0 11 1 23t2.5 26.5t2.5 23.5q2 8 2 23q2 15 5 43.5t5 42.5q3 20 11.5 27.5t29.5 7.5q97 4 146 -2q15 -2 43.5 -4.5t42.5 -4.5q46 -5 63 -8q9 -2 25 -14q7 -6 6 -14.5t-10 -14.5q-1 0 -3.5 -1t-4.5 -1q-76 -21 -131 -14q-20 4 -58 4q-8 0 -9.5 -2.5 t-0.5 -9.5l6 -41q10 -71 10 -174v-150q0 -13 3 -15.5t18 -0.5q13 0 33 4h63q13 0 45 -4l19 -6q14 -6 15 -15.5t-11 -17.5q-13 -10 -27 -10q-17 -3 -50 -8.5t-50 -8.5l-43 -6q-11 0 -11 -12v-13q0 -201 2 -301q0 -32 3.5 -92.5t3.5 -73.5q0 -5 1 -15t1 -15q3 -21 22 -27 q3 0 8.5 -1t8.5 -1q85 -6 86 -6q15 0 47 -8q3 -1 18 -11q13 -9 2 -20q-4 -8 -16 -20q-29 -19 -58 -25q-84 -18 -141 -8q-2 0 -26.5 2t-36.5 4q-25 6 -54 20q-38 15 -41 58q-4 32 -4 51q-4 62 -8 182q-2 53 -2 164v6h-2q0 18 0.5 50t0.5 57.5t-1 48.5q-4 122 -4 184z M111 1313q63 68 71 76q12 15 64 67q14 21 37 21q34 0 61 -15q12 -3 21 -12q20 -17 2 -35q-33 -41 -99 -115q-18 -18 -26 -28q-21 -21 -52 -21q-25 0 -59 15q-2 2 -7.5 5.5t-8.5 6.5q-17 17 -4 35z" />
<glyph unicode="&#xea;" horiz-adv-x="479" d="M41 817q0 97 2 144q0 11 1 23t2.5 26.5t2.5 23.5q2 8 2 23q2 15 5 43.5t5 42.5q3 20 11.5 27.5t29.5 7.5q97 4 146 -2q15 -2 43.5 -4.5t42.5 -4.5q46 -5 63 -8q9 -2 25 -14q7 -6 6 -14.5t-10 -14.5q-1 0 -3.5 -1t-4.5 -1q-76 -21 -131 -14q-20 4 -58 4q-8 0 -9.5 -2.5 t-0.5 -9.5l6 -41q10 -71 10 -174v-150q0 -13 3 -15.5t18 -0.5q13 0 33 4h63q13 0 45 -4l19 -6q14 -6 15 -15.5t-11 -17.5q-13 -10 -27 -10q-17 -3 -50 -8.5t-50 -8.5l-43 -6q-11 0 -11 -12v-13q0 -201 2 -301q0 -32 3.5 -92.5t3.5 -73.5q0 -5 1 -15t1 -15q3 -21 22 -27 q3 0 8.5 -1t8.5 -1q85 -6 86 -6q15 0 47 -8q3 -1 18 -11q13 -9 2 -20q-4 -8 -16 -20q-29 -19 -58 -25q-84 -18 -141 -8q-2 0 -26.5 2t-36.5 4q-25 6 -54 20q-38 15 -41 58q-4 32 -4 51q-4 62 -8 182q-2 53 -2 164v6h-2q0 18 0.5 50t0.5 57.5t-1 48.5q-4 122 -4 184zM43 1264 l33 55q24 34 47 63q3 5 21.5 28.5t25.5 37.5q16 25 61 29q15 0 39 -4q45 -12 70 -54q12 -14 29 -45q44 -71 63 -114q4 -10 6 -23q9 -18 -12 -29q-20 -4 -27 -4q-53 3 -75 31q-5 6 -19.5 23t-21 25.5t-16 22.5t-15.5 27l-2 5q-2 6 -4 8q-5 8 -10 0q-3 -3 -8.5 -10.5 t-8.5 -10.5l-63 -86q-20 -25 -49.5 -29t-57.5 15q-21 14 -6 39z" />
<glyph unicode="&#xeb;" horiz-adv-x="479" d="M-20 1348q-3 27 15 54.5t44 31.5q4 1 10 1t13 -0.5t10 -0.5q5 0 15 -2t15 -2q28 0 66 -15q47 -18 53 -69q3 -25 -6 -46q-15 -39 -40 -56t-69 -17q-71 3 -108 59q-12 17 -16 43q0 13 -2 19zM41 817q0 97 2 144q0 11 1 23t2.5 26.5t2.5 23.5q2 8 2 23q2 15 5 43.5t5 42.5 q3 20 11.5 27.5t29.5 7.5q97 4 146 -2q15 -2 43.5 -4.5t42.5 -4.5q46 -5 63 -8q9 -2 25 -14q7 -6 6 -14.5t-10 -14.5q-1 0 -3.5 -1t-4.5 -1q-76 -21 -131 -14q-20 4 -58 4q-8 0 -9.5 -2.5t-0.5 -9.5l6 -41q10 -71 10 -174v-150q0 -13 3 -15.5t18 -0.5q13 0 33 4h63 q13 0 45 -4l19 -6q14 -6 15 -15.5t-11 -17.5q-13 -10 -27 -10q-17 -3 -50 -8.5t-50 -8.5l-43 -6q-11 0 -11 -12v-13q0 -201 2 -301q0 -32 3.5 -92.5t3.5 -73.5q0 -5 1 -15t1 -15q3 -21 22 -27q3 0 8.5 -1t8.5 -1q85 -6 86 -6q15 0 47 -8q3 -1 18 -11q13 -9 2 -20 q-4 -8 -16 -20q-29 -19 -58 -25q-84 -18 -141 -8q-2 0 -26.5 2t-36.5 4q-25 6 -54 20q-38 15 -41 58q-4 32 -4 51q-4 62 -8 182q-2 53 -2 164v6h-2q0 18 0.5 50t0.5 57.5t-1 48.5q-4 122 -4 184zM272 1333q-5 31 13 57.5t49 32.5q12 0 33 7q52 11 102 -19q36 -20 33 -68 q-3 -38 -21 -63q-19 -32 -59 -35h-16q-57 0 -105 39q-24 24 -29 49z" />
<glyph unicode="&#xec;" horiz-adv-x="274" d="M-2 1434q-3 22 18 30q12 6 29 6q39 -4 57 -12q24 -10 37 -26q22 -33 68 -70q30 -24 53 -62l6 -10q6 -16 -10 -26q-19 -10 -25 -11h-22v-2q-21 3 -45 9q-27 7 -43 28q-30 32 -74 70q-36 25 -47 63q0 9 -2 13zM43 623q0 168 2 202q4 78 4 230q0 36 10 78q8 34 43 34 q37 2 84 -22q19 -13 29 -41q14 -51 14 -90v-211v-203q0 -62 -1 -187t-1 -188q0 -73 2 -110q1 -5 2 -16.5t2 -16.5q6 -25 -18 -45q-7 -7 -16 -10q-49 -24 -93 -21h-16q-23 4 -31 14t-10 35q-4 59 -4 264q0 51 -1 152.5t-1 151.5z" />
<glyph unicode="&#xed;" horiz-adv-x="274" d="M4 1315q50 54 72 76q16 20 63 67q14 21 37 21q35 0 62 -15q11 -3 20 -12q20 -17 2 -35q-34 -42 -98 -114q-19 -19 -27 -29q-21 -21 -51 -21q-25 0 -59 15q-2 2 -8 5.5t-9 6.5q-17 17 -4 35zM43 623q0 168 2 202q4 78 4 230q0 36 10 78q8 34 43 34q37 2 84 -22 q19 -13 29 -41q14 -51 14 -90v-211v-203q0 -62 -1 -187t-1 -188q0 -73 2 -110q1 -5 2 -16.5t2 -16.5q6 -25 -18 -45q-7 -7 -16 -10q-49 -24 -93 -21h-16q-23 4 -31 14t-10 35q-4 59 -4 264q0 51 -1 152.5t-1 151.5z" />
<glyph unicode="&#xee;" horiz-adv-x="274" d="M-63 1266l32 55q24 34 47 63q3 5 21.5 28.5t25.5 37.5q16 25 62 29q15 0 39 -4q44 -11 69 -54q12 -14 29 -45q47 -76 64 -114q4 -10 6 -23q9 -18 -13 -29q-20 -4 -26 -4q-54 4 -76 31q-5 6 -19.5 23t-21 25.5t-16 22.5t-15.5 27q0 1 -2 6t-4 7q-5 7 -10 0q-3 -3 -8 -10.5 t-8 -10.5l-64 -86q-20 -25 -49 -29t-57 15q-21 14 -6 39zM43 623q0 168 2 202q4 78 4 230q0 36 10 78q8 34 43 34q37 2 84 -22q19 -13 29 -41q14 -51 14 -90v-211v-203q0 -62 -1 -187t-1 -188q0 -73 2 -110q1 -5 2 -16.5t2 -16.5q6 -25 -18 -45q-7 -7 -16 -10 q-49 -24 -93 -21h-16q-23 4 -31 14t-10 35q-4 59 -4 264q0 51 -1 152.5t-1 151.5z" />
<glyph unicode="&#xef;" horiz-adv-x="274" d="M-127 1350q-3 27 15 54.5t44 31.5h33q5 0 15.5 -2t15.5 -2q28 0 65 -15q48 -19 54 -69q3 -24 -6 -45q-15 -39 -40 -56.5t-69 -17.5q-72 3 -109 59q-12 17 -16 43q0 13 -2 19zM43 623q0 168 2 202q4 78 4 230q0 36 10 78q8 34 43 34q37 2 84 -22q19 -13 29 -41 q14 -51 14 -90v-211v-203q0 -62 -1 -187t-1 -188q0 -73 2 -110q1 -5 2 -16.5t2 -16.5q6 -25 -18 -45q-7 -7 -16 -10q-49 -24 -93 -21h-16q-23 4 -31 14t-10 35q-4 59 -4 264q0 51 -1 152.5t-1 151.5zM166 1335q-5 31 13 57.5t48 32.5q12 0 33 7q52 11 102 -19q36 -20 33 -67 q-4 -40 -20 -64q-19 -32 -60 -35h-16q-56 0 -104 39q-24 24 -29 49z" />
<glyph unicode="&#xf0;" horiz-adv-x="645" d="M41 319q0 75 27 158q35 103 90 166q39 45 88 72q42 22 82 16q12 0 18 -2q7 0 19 -4q9 -5 10 -13t-8 -14q-40 -31 -82 -102q-23 -41 -35 -92q-23 -105 -23 -164q-3 -102 45 -193q21 -43 58 -67q10 -8 15.5 -7.5t14.5 9.5q19 19 27 35q23 35 33 59q29 86 35 127 q12 79 14 115q0 62 -18 123q-32 98 -56 147l-61 135q-2 3 -5 10.5t-5 10.5q-4 8 -6.5 9.5t-5 0.5t-7.5 -8l-31 -37q-13 -13 -22 -25q-33 -30 -82 -8q-20 10 -10 29q9 22 18 31q10 14 31 37.5t29 33.5q13 15 12.5 19t-17.5 16q-43 34 -59 64v2q-19 31 19 34q37 0 67 -18 l47 -31q7 -5 10.5 -4.5t10.5 6.5q8 7 26.5 20t20.5 15q27 19 67 6l9 -6q21 -11 6 -29q-15 -17 -39 -38q0 -1 -31 -25q-6 -6 0 -12l8 -6q68 -62 109 -146q2 -8 10 -20q49 -89 82 -234q8 -50 8 -76v-102q2 -62 -31 -156q-18 -49 -49 -94q-39 -51 -90 -76q-79 -43 -178 -30 q-55 3 -90 41q-28 25 -53 53q-19 23 -27 41q-45 110 -45 198z" />
<glyph unicode="&#xf1;" horiz-adv-x="681" d="M41 1077v19q0 34 31 53q28 17 67 20h23q45 3 71 -41q40 -73 62 -139q8 -28 19.5 -81.5t15.5 -67.5q22 -95 67 -232l56 -166l18 -49l6 -4v68q-8 98 -16 147q-17 135 -17 332q0 16 1 49t1 51q0 12 5 84q3 46 51 49q26 2 65 -8q54 -20 54 -76q1 -19 1 -56.5t1 -55.5 q1 -25 4 -76t4 -76v-78q-2 -53 -2 -161q0 -50 4 -144l6 -119q1 -1 0.5 -45t-0.5 -45q0 -18 -2 -28q-2 -49 -10 -156q0 -15 -17 -29q-42 -31 -92 -28q-10 2 -26 -2q-17 -2 -25.5 2.5t-15.5 19.5q-1 3 -12.5 30t-16.5 42q-12 37 -38 105t-32 83q-9 26 -26.5 77t-26.5 77 l-68 194q0 1 -4 9v-76q0 -19 4 -55l7 -195q0 -21 2 -61t2 -60q-1 -13 -11 -119q-3 -18 -18 -30q-52 -43 -111 -37q-20 0 -28 9t-8 30q0 40 -3.5 114t-3.5 91q-1 27 -2 81t-2 82q-1 16 -4.5 69t-3.5 81v113q1 16 1 49t1 49q2 28 2 59.5t-1 70.5t-1 60q0 45 -8 127zM164 1305 q36 54 96 57q78 -7 125 -41l21 -14q18 -14 36 -2q26 18 66 2l8 -4q14 -14 2 -29q-17 -20 -45 -27q-21 -6 -39 -6q-109 4 -164 47q-18 10 -39 4l-20 -10q-21 -9 -43 2q-15 7 -4 21z" />
<glyph unicode="&#xf2;" horiz-adv-x="634" d="M43 618q2 15 4 47.5t4 47.5q1 10 4.5 39t5 41t5.5 37t7.5 41t9.5 37t13 40q43 115 121 193q48 48 117 33q41 -10 65 -31q3 -3 17 -8l35 -13q55 -22 75 -73q37 -94 45 -140q14 -79 15 -104q0 -1 6 -182q0 -82 -2 -123q0 -42 -6 -86q-6 -56 -15 -113q-12 -84 -39 -160 q-8 -25 -30 -59q-12 -24 -54 -53q-72 -43 -145 -43q-104 0 -170 84q-34 40 -47 96q-24 86 -29 158q-1 15 -4 43t-4 43q-9 153 -4 208zM176 1417q-3 23 19 31q12 6 28 6q40 -4 58 -12q21 -9 36 -27q21 -31 68 -69q30 -24 53 -62l6 -10q7 -17 -10 -27q-16 -8 -24 -10 q-3 -1 -6.5 -1t-8.5 0.5t-8 0.5v-2q-30 4 -45 8q-26 7 -43 29q-25 28 -74 69q-35 25 -47 64q0 8 -2 12zM227 492q1 -21 11 -107q4 -69 10 -104q18 -90 28 -119q19 -42 52 -68q9 -7 13 -6t9 12q6 9 10 21q38 109 46 201q0 8 12 127l12 118q3 31 4.5 88.5t3.5 79.5 q0 98 -12 164l-4 16q-7 19 -20.5 56.5t-20.5 56.5q-7 16 -16 29q-6 12 -11 15.5t-10.5 0t-13.5 -13.5q-22 -34 -45 -101q-15 -47 -37 -170q-14 -71 -21 -188v-108z" />
<glyph unicode="&#xf3;" horiz-adv-x="634" d="M43 618q2 15 4 47.5t4 47.5q1 10 4.5 39t5 41t5.5 37t7.5 41t9.5 37t13 40q43 115 121 193q48 48 117 33q41 -10 65 -31q3 -3 17 -8l35 -13q55 -22 75 -73q37 -94 45 -140q14 -79 15 -104q0 -1 6 -182q0 -82 -2 -123q0 -42 -6 -86q-6 -56 -15 -113q-12 -84 -39 -160 q-8 -25 -30 -59q-12 -24 -54 -53q-72 -43 -145 -43q-104 0 -170 84q-34 40 -47 96q-24 86 -29 158q-1 15 -4 43t-4 43q-9 153 -4 208zM182 1298q50 54 72 76q20 25 63 68q13 20 37 20q37 0 62 -14q11 -3 20 -12q20 -17 2 -35q-42 -52 -98 -115q-19 -19 -27 -29 q-20 -20 -51 -20q-28 0 -59 14q-2 2 -8 6t-9 7q-16 16 -4 34zM227 492q1 -21 11 -107q4 -69 10 -104q18 -90 28 -119q19 -42 52 -68q9 -7 13 -6t9 12q6 9 10 21q38 109 46 201q0 8 12 127l12 118q3 31 4.5 88.5t3.5 79.5q0 98 -12 164l-4 16q-7 19 -20.5 56.5t-20.5 56.5 q-7 16 -16 29q-6 12 -11 15.5t-10.5 0t-13.5 -13.5q-22 -34 -45 -101q-15 -47 -37 -170q-14 -71 -21 -188v-108z" />
<glyph unicode="&#xf4;" horiz-adv-x="634" d="M43 618q2 15 4 47.5t4 47.5q1 10 4.5 39t5 41t5.5 37t7.5 41t9.5 37t13 40q43 115 121 193q48 48 117 33q41 -10 65 -31q3 -3 17 -8l35 -13q55 -22 75 -73q37 -94 45 -140q14 -79 15 -104q0 -1 6 -182q0 -82 -2 -123q0 -42 -6 -86q-6 -56 -15 -113q-12 -84 -39 -160 q-8 -25 -30 -59q-12 -24 -54 -53q-72 -43 -145 -43q-104 0 -170 84q-34 40 -47 96q-24 86 -29 158q-1 15 -4 43t-4 43q-9 153 -4 208zM115 1249l32 56q17 24 48 63q3 5 21.5 28.5t25.5 37.5q7 12 18.5 18t19 7.5t23.5 2.5q15 0 39 -4q46 -12 70 -53q9 -11 28 -45 q46 -74 64 -115q4 -12 6 -22q9 -18 -12 -29q-20 -4 -27 -4q-54 4 -76 31q-58 70 -71 98q-5 10 -7 12q-5 7 -10 0q-3 -3 -8 -10t-8 -10l-64 -86q-20 -25 -49 -29.5t-57 14.5q-21 14 -6 39zM227 492q1 -21 11 -107q4 -69 10 -104q18 -90 28 -119q19 -42 52 -68q9 -7 13 -6 t9 12q6 9 10 21q38 109 46 201q0 8 12 127l12 118q3 31 4.5 88.5t3.5 79.5q0 98 -12 164l-4 16q-7 19 -20.5 56.5t-20.5 56.5q-7 16 -16 29q-6 12 -11 15.5t-10.5 0t-13.5 -13.5q-22 -34 -45 -101q-15 -47 -37 -170q-14 -71 -21 -188v-108z" />
<glyph unicode="&#xf5;" horiz-adv-x="634" d="M43 618q2 15 4 47.5t4 47.5q1 10 4.5 39t5 41t5.5 37t7.5 41t9.5 37t13 40q43 115 121 193q48 48 117 33q41 -10 65 -31q3 -3 17 -8l35 -13q55 -22 75 -73q37 -94 45 -140q14 -79 15 -104q0 -1 6 -182q0 -82 -2 -123q0 -42 -6 -86q-6 -56 -15 -113q-12 -84 -39 -160 q-8 -25 -30 -59q-12 -24 -54 -53q-72 -43 -145 -43q-104 0 -170 84q-34 40 -47 96q-24 86 -29 158q-1 15 -4 43t-4 43q-9 153 -4 208zM133 1290q36 55 96 58q78 -7 125 -41l21 -15q18 -15 37 -2q25 18 65 2l8 -4q14 -14 2 -28q-17 -20 -45 -27q-21 -6 -39 -6q-108 4 -163 47 q-18 10 -39 4q-3 -1 -21 -10q-21 -9 -43 2q-14 7 -4 20zM227 492q1 -21 11 -107q4 -69 10 -104q18 -90 28 -119q19 -42 52 -68q9 -7 13 -6t9 12q6 9 10 21q38 109 46 201q0 8 12 127l12 118q3 31 4.5 88.5t3.5 79.5q0 98 -12 164l-4 16q-7 19 -20.5 56.5t-20.5 56.5 q-7 16 -16 29q-6 12 -11 15.5t-10.5 0t-13.5 -13.5q-22 -34 -45 -101q-15 -47 -37 -170q-14 -71 -21 -188v-108z" />
<glyph unicode="&#xf6;" horiz-adv-x="634" d="M43 618q2 15 4 47.5t4 47.5q1 10 4.5 39t5 41t5.5 37t7.5 41t9.5 37t13 40q43 115 121 193q48 48 117 33q41 -10 65 -31q3 -3 17 -8l35 -13q55 -22 75 -73q37 -94 45 -140q14 -79 15 -104q0 -1 6 -182q0 -82 -2 -123q0 -42 -6 -86q-6 -56 -15 -113q-12 -84 -39 -160 q-8 -25 -30 -59q-12 -24 -54 -53q-72 -43 -145 -43q-104 0 -170 84q-34 40 -47 96q-24 86 -29 158q-1 15 -4 43t-4 43q-9 153 -4 208zM51 1333q-3 27 15.5 54.5t44.5 31.5h32q5 0 15.5 -2t15.5 -2q31 0 66 -14q47 -18 53 -70q3 -24 -6 -45q-15 -39 -40 -56.5t-69 -17.5 q-71 3 -108 60q-14 19 -17 43q0 12 -2 18zM227 492q1 -21 11 -107q4 -69 10 -104q18 -90 28 -119q19 -42 52 -68q9 -7 13 -6t9 12q6 9 10 21q38 109 46 201q0 8 12 127l12 118q3 31 4.5 88.5t3.5 79.5q0 98 -12 164l-4 16q-7 19 -20.5 56.5t-20.5 56.5q-7 16 -16 29 q-6 12 -11 15.5t-10.5 0t-13.5 -13.5q-22 -34 -45 -101q-15 -47 -37 -170q-14 -71 -21 -188v-108zM344 1319q-5 31 13 57.5t49 32.5q14 0 32 6q54 12 103 -18q35 -20 32 -68q-3 -39 -20 -63q-19 -32 -59 -35h-17q-56 0 -104 39q-24 24 -29 49z" />
<glyph unicode="&#xf7;" horiz-adv-x="567" d="M41 713q1 9 12 14l27 6h59q45 -2 170 12q85 12 121 9q27 -3 57 -13q11 -2 27 -14q15 -7 12 -22q-3 -11 -20 -15q-4 -2 -17 -2q-20 1 -57.5 -3t-46.5 -5q-16 -2 -48 -4t-48 -4q-51 -7 -121 -4q-12 0 -80 10q-24 4 -39 18q-9 8 -8 17zM145 494q3 38 35 63q16 10 35 16 q33 10 45 11q72 6 107 -49q10 -12 10 -43q0 -32 -19 -60q-16 -28 -45 -37q-7 -2 -21 -4t-20 -4q-8 2 -25 5t-26 5q-21 5 -51 31q-28 28 -25 66zM157.5 933.5q4.5 29.5 26.5 53.5q29 36 60 31q42 0 78 -19q55 -25 49 -84q-10 -73 -74 -88q-2 0 -6 -1t-6 -1q-71 3 -109 47 q-23 32 -18.5 61.5z" />
<glyph unicode="&#xf8;" horiz-adv-x="860" d="M43 -18q3 24 16 47q12 22 37 63.5t31 50.5q1 1 2 4.5t2 4.5q21 38 25 47q2 9 -3 27.5t-6 23.5l-12 106q-4 36 -5.5 80t-1 74t2.5 82t2 76q2 62 23 215q13 90 43 204q20 80 53 136q33 62 92 106q50 38 109 41q23 3 47 -4q29 -5 65 -23q28 -12 33 -36q5 -11 10 -13l43 -24 q10 -6 13 4l18 39q2 4 16 28q18 30 54 27q26 -3 45 -14q26 -15 18 -43l-37 -121q-1 -5 -7.5 -22t-6.5 -25q0 -12 14 -45q22 -78 31 -152q13 -106 10 -198q-7 -204 -45 -361q-30 -125 -51 -178q-25 -65 -61 -115q-47 -65 -123 -86q-38 -10 -93 -14q-124 7 -190 61q-6 5 -9 4 t-7 -8l-19 -37q-8 -16 -47 -65q-10 -14 -24 -17q-34 -13 -82 5q-31 11 -25 45zM313 524l4 -8l7 6q12 23 69 144q65 137 103 225l92 209q10 23 -2 43q-21 40 -41 69q-10 15 -35 45q-9 12 -18 0q-26 -33 -27 -34q-71 -104 -96 -209q-16 -71 -35 -185q-8 -56 -10 -79 q-2 -22 -5.5 -69t-5.5 -71v-71v-15zM344 217q13 -43 37 -74q20 -28 57 -51q12 -7 19 -6t16 12q16 16 25 31q34 57 49 102q65 195 76 363l6 84q2 21 3 44.5t1.5 52t1.5 44.5q-1 0 -3 1t-3 1q-1 -3 -4 -9t-4 -9l-86 -176q-120 -245 -156 -314l-35 -67q-6 -14 0 -29z" />
<glyph unicode="&#xf9;" horiz-adv-x="612" d="M39 793h2v165q0 37 4 107q1 14 16 57q13 36 50 33q46 -3 79 -29q24 -17 27 -41q9 -67 8 -84q-2 -29 -2 -86q-1 -8 0.5 -23t1.5 -20q0 -151 2 -227q0 -149 4 -223q4 -93 11 -129q9 -48 30 -98q16 -41 54 -62q13 -8 18 4q22 48 27 92q0 1 6 74l12 115q2 4 2 10l12 168 q10 141 11 172q0 110 -2 133q-2 8 -2 25q4 28 8 88q3 45 0 90q0 18 5 26t19 9q49 9 84 -13q20 -10 23 -30q1 -16 6 -50t6 -51q9 -69 6 -90q-2 -24 -3 -52t-1.5 -62t-1.5 -52q-3 -132 -16 -227q-3 -18 -8 -96q-1 -11 -6 -75.5t-11 -98.5q-9 -54 -33 -107q-19 -42 -55 -65 q-77 -52 -164 -43q-63 6 -121 45q-29 23 -49 67q-28 54 -37 113q-12 56 -12 115q0 66 -4 202zM172 1432q-3 22 18 30q12 6 29 6q39 -4 57 -12q24 -10 37 -26q22 -33 68 -70q30 -24 53 -62l6 -10q6 -16 -10 -26q-20 -10 -24 -11h-23v-2q-30 4 -45 8q-26 7 -43 29 q-30 32 -74 70q-36 25 -47 63q0 9 -2 13z" />
<glyph unicode="&#xfa;" horiz-adv-x="612" d="M39 793h2v165q0 37 4 107q1 14 16 57q13 36 50 33q46 -3 79 -29q24 -17 27 -41q9 -67 8 -84q-2 -29 -2 -86q-1 -8 0.5 -23t1.5 -20q0 -151 2 -227q0 -149 4 -223q4 -93 11 -129q9 -48 30 -98q16 -41 54 -62q13 -8 18 4q22 48 27 92q0 1 6 74l12 115q2 4 2 10l12 168 q10 141 11 172q0 110 -2 133q-2 8 -2 25q4 28 8 88q3 45 0 90q0 18 5 26t19 9q49 9 84 -13q20 -10 23 -30q1 -16 6 -50t6 -51q9 -69 6 -90q-2 -24 -3 -52t-1.5 -62t-1.5 -52q-3 -132 -16 -227q-3 -18 -8 -96q-1 -11 -6 -75.5t-11 -98.5q-9 -54 -33 -107q-19 -42 -55 -65 q-77 -52 -164 -43q-63 6 -121 45q-29 23 -49 67q-28 54 -37 113q-12 56 -12 115q0 66 -4 202zM178 1313q50 54 72 76q16 20 63 67q14 21 37 21q35 0 62 -15q11 -3 20 -12q20 -17 2 -35q-42 -52 -98 -115q-23 -23 -27 -28q-21 -21 -51 -21q-25 0 -59 15q-2 2 -8 5.5t-9 6.5 q-17 17 -4 35z" />
<glyph unicode="&#xfb;" horiz-adv-x="612" d="M39 793h2v165q0 37 4 107q1 14 16 57q13 36 50 33q46 -3 79 -29q24 -17 27 -41q9 -67 8 -84q-2 -29 -2 -86q-1 -8 0.5 -23t1.5 -20q0 -151 2 -227q0 -149 4 -223q4 -93 11 -129q9 -48 30 -98q16 -41 54 -62q13 -8 18 4q22 48 27 92q0 1 6 74l12 115q2 4 2 10l12 168 q10 141 11 172q0 110 -2 133q-2 8 -2 25q4 28 8 88q3 45 0 90q0 18 5 26t19 9q49 9 84 -13q20 -10 23 -30q1 -16 6 -50t6 -51q9 -69 6 -90q-2 -24 -3 -52t-1.5 -62t-1.5 -52q-3 -132 -16 -227q-3 -18 -8 -96q-1 -11 -6 -75.5t-11 -98.5q-9 -54 -33 -107q-19 -42 -55 -65 q-77 -52 -164 -43q-63 6 -121 45q-29 23 -49 67q-28 54 -37 113q-12 56 -12 115q0 66 -4 202zM111 1264l32 55q24 34 47 63q4 6 22.5 29.5t25.5 36.5q16 25 61 29q15 0 39 -4q45 -12 70 -54q9 -11 28 -45q47 -76 64 -114q4 -10 6 -23q9 -18 -12 -29q-20 -4 -27 -4 q-54 4 -76 31q-5 6 -19.5 23t-21 25.5t-16 22.5t-15.5 27l-2 5q-2 6 -4 8q-5 8 -10 0q-3 -3 -8 -10.5t-8 -10.5l-64 -86q-20 -25 -49 -29t-57 15q-21 14 -6 39z" />
<glyph unicode="&#xfc;" horiz-adv-x="612" d="M39 793h2v165q0 37 4 107q1 14 16 57q13 36 50 33q46 -3 79 -29q24 -17 27 -41q9 -67 8 -84q-2 -29 -2 -86q-1 -8 0.5 -23t1.5 -20q0 -151 2 -227q0 -149 4 -223q4 -93 11 -129q9 -48 30 -98q16 -41 54 -62q13 -8 18 4q22 48 27 92q0 1 6 74l12 115q2 4 2 10l12 168 q10 141 11 172q0 110 -2 133q-2 8 -2 25q4 28 8 88q3 45 0 90q0 18 5 26t19 9q49 9 84 -13q20 -10 23 -30q1 -16 6 -50t6 -51q9 -69 6 -90q-2 -24 -3 -52t-1.5 -62t-1.5 -52q-3 -132 -16 -227q-3 -18 -8 -96q-1 -11 -6 -75.5t-11 -98.5q-9 -54 -33 -107q-19 -42 -55 -65 q-77 -52 -164 -43q-63 6 -121 45q-29 23 -49 67q-28 54 -37 113q-12 56 -12 115q0 66 -4 202zM47 1348q-3 27 15 54.5t44 31.5h33q5 0 15.5 -2t15.5 -2q28 0 66 -15q47 -18 53 -69q3 -25 -6 -46q-15 -39 -40 -56t-69 -17q-71 3 -108 59q-14 19 -17 43q0 13 -2 19zM340 1333 q-5 31 13 57.5t48 32.5q12 0 33 7q53 11 103 -19q35 -20 32 -68q-3 -39 -20 -63q-19 -32 -60 -35h-16q-56 0 -104 39q-24 24 -29 49z" />
<glyph unicode="&#xfd;" horiz-adv-x="677" d="M41 1153q3 32 33 35q62 6 112 -27q7 -5 21 -24q15 -34 20 -58l49 -182q25 -87 80 -231l6 -9q18 60 35 111q6 21 21.5 68.5t23.5 74.5l37 129q4 22 17 66q6 25 18.5 36.5t38.5 12.5q33 0 53 -10q19 -8 25 -17.5t2 -29.5q-1 -16 -15 -68q-24 -90 -34 -158 q-3 -15 -6.5 -44.5t-6.5 -43.5q-20 -90 -34 -135q-14 -53 -50 -155q-2 -3 -4 -9t-4 -8q-18 -27 -18 -88q0 -16 1 -46t1 -44v-106v-119q3 -66 -68 -88q-41 -13 -76 -2q-40 11 -40 53q0 125 -3 248q0 13 -1 36.5t-1 34.5q0 7 5 70q0 19 -11 33q-36 41 -59 102 q-70 184 -100 297q-40 156 -58 234q-6 18 -6 22q-4 24 -4 39zM211 1313q50 54 72 76q16 20 63 67q14 21 37 21q34 0 61 -15q12 -3 21 -12q20 -17 2 -35q-42 -52 -98 -115q-23 -23 -27 -28q-21 -21 -51 -21q-26 0 -60 15q-2 2 -7.5 5.5t-8.5 6.5q-17 17 -4 35z" />
<glyph unicode="&#xfe;" horiz-adv-x="641" d="M41 213q0 20 4 66q4 36 4 55l6 149q3 33 4 70.5t1 83t1 70.5q2 72 2 217q0 33 -2 98t-2 98q-8 171 -4 256v8q0 30 11 40.5t36 15.5q36 6 70 -6q36 -14 41 -41q13 -48 16 -68q13 -51 13 -123q0 -24 3.5 -29t26.5 -6q55 -4 160 -41q53 -18 80 -67q30 -49 39 -74 q52 -155 47 -285q-3 -132 -76 -229q-53 -73 -145 -109q-44 -17 -129 -36q-9 -1 -10.5 -3.5t-1.5 -11.5q-2 -17 -5.5 -50.5t-5.5 -49.5q-1 -8 -5 -24.5t-5 -24.5q-10 -77 -10 -90q-2 -33 -27 -68q-17 -20 -45 -20q-17 0 -41 4q-33 7 -33 32q-6 10 -9.5 23t-4.5 22t-1.5 26 t-0.5 24v30h2q-4 46 -4 68zM242 436q0 -9 10 -6q2 0 10 4q85 40 111 109q15 36 26 75q18 62 15 111q-3 116 -31 213q-19 67 -37 98q-21 32 -49 39q-4 2 -12.5 5.5t-12.5 5.5q-22 9 -25 7t-3 -28q1 -23 2.5 -64t2.5 -75t1 -64q0 -88 -4 -264q0 -36 -4 -110v-56z" />
<glyph unicode="&#xff;" horiz-adv-x="677" d="M41 1153q3 32 33 35q62 6 112 -27q7 -5 21 -24q15 -34 20 -58l49 -182q25 -87 80 -231l6 -9q18 60 35 111q6 21 21.5 68.5t23.5 74.5l37 129q4 22 17 66q6 25 18.5 36.5t38.5 12.5q33 0 53 -10q19 -8 25 -17.5t2 -29.5q-1 -16 -15 -68q-24 -90 -34 -158 q-3 -15 -6.5 -44.5t-6.5 -43.5q-20 -90 -34 -135q-14 -53 -50 -155q-2 -3 -4 -9t-4 -8q-18 -27 -18 -88q0 -16 1 -46t1 -44v-106v-119q3 -66 -68 -88q-41 -13 -76 -2q-40 11 -40 53q0 125 -3 248q0 13 -1 36.5t-1 34.5q0 7 5 70q0 19 -11 33q-36 41 -59 102 q-70 184 -100 297q-40 156 -58 234q-6 18 -6 22q-4 24 -4 39zM80 1348q-3 27 15 54.5t44 31.5q4 1 10 1t13 -0.5t10 -0.5q5 0 15.5 -2t15.5 -2q27 0 65 -15q48 -19 54 -69q3 -23 -7 -46q-15 -39 -39.5 -56t-68.5 -17q-72 3 -109 59q-12 17 -16 43q0 13 -2 19zM373 1333 q-5 31 13 57.5t48 32.5q12 0 33 7q52 11 102 -19q36 -20 33 -68q-3 -39 -20 -63q-19 -32 -60 -35h-16q-57 0 -105 39q-23 23 -28 49z" />
<glyph unicode="&#x152;" horiz-adv-x="1048" d="M43 635l6 129l6 76q12 150 49 288q2 8 23 74q18 63 88 148q31 34 84 61q34 19 78 19q67 0 125 -37q7 -7 10 -7h6l25 35q11 11 16 13q9 4 35 8q19 1 53 -3.5t41 -4.5t20.5 -1t20.5 -1q49 -2 152 -2q26 0 59 -11q15 -5 18 -8q19 -12 17 -25q0 -2 -0.5 -4.5t-2 -4t-2.5 -3 t-3.5 -3t-3 -2t-3.5 -1.5l-4 -2l-30 -6q-4 -1 -12.5 -1t-12.5 -1q-16 0 -49 -1t-51 -1q-71 0 -142 12q-9 0 -6 -8l6 -49q2 -18 5.5 -55t5.5 -56q8 -61 10 -96q4 -33 4 -100q3 -51 0 -103q0 -26 -4 -80q0 -12 2 -18q0 -3 1.5 -5t4.5 -1q12 0 34 2t32 2h116q11 -1 31.5 -4 t28.5 -4q28 -5 59 -23q19 -14 19 -25q-2 -15 -21 -22q-39 -16 -78 -10q-71 11 -155 8h-56q-10 -1 -13 -5t-3 -16q-2 -31 -2 -94v-246q0 -8 -4 -28q0 -72 10 -160q3 -24 19 -47q11 -22 34 -19q37 3 78 9q13 1 27.5 3t31.5 5t27 4q9 1 20 0t24.5 -3t19.5 -3l12 -6 q25 -14 6 -37q-16 -16 -37 -25q-36 -15 -90 -22q-82 -13 -115 -15q-89 -9 -125 -2q-69 10 -94 64q-5 10 -12 0q-8 -11 -10 -21q-5 -18 -25 -30q-41 -26 -82 -29q-89 -6 -168 37q-46 24 -77 69q-45 67 -72 160q-27 103 -33 205q-5 74 -2 166zM223 561q-4 -48 4 -145 q7 -68 17 -115q20 -101 61 -174q8 -15 12.5 -17t17.5 1q4 1 7 2q21 6 31 26q4 10 15.5 33t17.5 37q33 79 49 176q12 61 18 123q2 22 7 66.5t7 66.5q1 8 4 37.5t3 46.5q2 43 2 129q0 41 4 119v22q3 109 -17 209q-13 67 -51 113q-7 9 -11 9.5t-13 -7.5q-39 -39 -54 -66 q-47 -83 -71 -172q-31 -132 -39 -202q-10 -86 -13 -150q-4 -56 -8 -168z" />
<glyph unicode="&#x153;" horiz-adv-x="962" d="M41 487q4 116 8 172q10 168 53 287q18 53 25 68q22 63 80 125q51 53 131 47q26 -3 55 -17q28 -10 53 -16q7 -1 33 -10q9 -3 12 -2t7 10q4 11 14 14q20 10 41 13q78 7 141 4q66 0 101 -4q11 -1 69 -11q18 -2 43 -20q16 -12 13 -27q-3 -16 -21 -20q-21 -6 -39 -6h-72 q-41 2 -120 2q-13 0 -13 -13q4 -58 4 -82q0 -53 -4 -155v-27q-1 -14 -2 -41t-2 -41v-28q0 -11 13 -11h4q43 8 127 4q18 0 65 -14q8 0 14 -6q21 -8 21 -23t-18 -22q-23 -11 -39 -14q-41 -5 -99 2q-36 5 -84 -13q-10 -3 -10 -12v-53q0 -40 -3 -120t-3 -120q0 -71 2 -108 q0 -24 4 -60q4 -27 22.5 -42t45.5 -15q77 0 92 2q28 6 63 2q11 0 27 -8q22 -10 8 -31q-7 -14 -26 -29q-42 -22 -95 -28t-159 -6q-43 0 -80 18q-43 19 -62 53l-4 6q-4 8 -10 2q-2 -1 -27 -20q-64 -40 -139 -43q-45 0 -65 4q-74 13 -121 90q-26 45 -39 101q-1 5 -12 55t-13 76 q-11 142 -10 161zM227 410q3 -34 17 -150q10 -58 51 -131q1 -3 12 -20q9 -6 12 2q12 16 27 47q21 51 33 104q15 66 29 152q4 28 13 85.5t13 86.5l12 78q14 121 13 155q0 59 -10 137q-13 66 -41 115l-13 19q-7 10 -18 2l-19 -23q-30 -49 -39 -72q-27 -55 -47 -131 q-35 -128 -39 -198q-6 -86 -6 -174v-84z" />
<glyph unicode="&#x178;" horiz-adv-x="645" d="M35 1346q-1 20 6.5 28.5t32.5 20.5q4 2 12 2q44 0 94 -29q29 -17 35 -53q8 -38 10 -66q5 -73 29 -166q5 -19 12.5 -57t12.5 -57t18.5 -55t21 -65.5t7.5 -55.5q0 -5 2 -7l4 -4l2 4l6 35q8 61 14 88l25 115q2 9 19 87t28 120q7 29 25 119q5 24 18 24q1 0 3 1t3 1 q8 0 27 0.5t28 0.5t23.5 -2.5t26.5 -8.5q16 -8 16 -33q0 -28 -12 -86q-39 -201 -41 -215q-2 -12 -23 -121q-12 -56 -24 -172q-1 -7 -11 -67q-15 -76 -22 -125q-4 -27 -27 -74q-4 -8 -4 -16q0 -41 4 -119q6 -132 6 -262q0 -4 -2 -12.5t-2 -12.5q0 -25 -28 -35q-38 -15 -93 -4 q-31 6 -34 35q-2 21 -9.5 62t-9.5 61q-3 22 -8 149v53.5t4 65.5q4 25 -10 39t-21 39q-13 44 -41 125t-34 100q-23 70 -39 152q-6 29 -23.5 115t-25.5 133q-2 12 -9.5 63t-13.5 78q-4 22 -8 64zM63 1597q-3 27 15.5 54.5t44.5 31.5q4 1 10 1t13 -0.5t10 -0.5q5 0 15 -2t15 -2 q31 0 66 -14q47 -18 53 -70q3 -24 -6 -45q-15 -39 -40 -56t-69 -17q-71 3 -108 59q-12 17 -16 43q0 9 -3 18zM356 1583q-5 31 13 57.5t49 32.5q15 0 33 6q53 12 102 -18q36 -20 33 -68q-3 -38 -21 -63q-19 -32 -59 -35h-17q-56 0 -104 39q-24 24 -29 49z" />
<glyph unicode="&#x2c6;" horiz-adv-x="528" d="M47 1393l37 61l51 70q5 7 25 31.5t28 39.5q17 29 68 33q5 0 41 -6q50 -11 78 -57q17 -24 31 -49q46 -76 69 -127q4 -6 8 -25q9 -21 -14 -31q-15 -6 -29 -6q-59 3 -84 35q-59 71 -77 108q-4 8 -9 13q-5 7 -10 0q-3 -3 -18 -23l-70 -94q-22 -28 -55 -32t-62 16 q-23 16 -8 43z" />
<glyph unicode="&#x2dc;" horiz-adv-x="485" d="M45 1569q39 60 107 63q83 -7 137 -45l22 -16q21 -14 41 -2q29 20 72 2l8 -4q18 -15 4 -31q-21 -24 -51 -31q-21 -6 -43 -6q-116 4 -180 51q-19 13 -41 4q-6 -2 -23 -10q-25 -9 -47 2q-18 7 -6 23z" />
<glyph unicode="&#x2000;" horiz-adv-x="870" />
<glyph unicode="&#x2001;" horiz-adv-x="1741" />
<glyph unicode="&#x2002;" horiz-adv-x="870" />
<glyph unicode="&#x2003;" horiz-adv-x="1741" />
<glyph unicode="&#x2004;" horiz-adv-x="580" />
<glyph unicode="&#x2005;" horiz-adv-x="435" />
<glyph unicode="&#x2006;" horiz-adv-x="290" />
<glyph unicode="&#x2007;" horiz-adv-x="290" />
<glyph unicode="&#x2008;" horiz-adv-x="217" />
<glyph unicode="&#x2009;" horiz-adv-x="348" />
<glyph unicode="&#x200a;" horiz-adv-x="96" />
<glyph unicode="&#x2010;" horiz-adv-x="686" d="M41 755q1 11 16 19q9 5 37 10q7 2 56 7h59q77 -5 293 -5q51 0 76 -6q18 -5 45 -16q6 -2 14 -10q19 -22 -4 -39q-24 -15 -53 -15q-44 0 -64 2h-31h-90q-7 0 -22.5 1.5t-22.5 1.5q-121 0 -182 2q-44 0 -78 10q-25 8 -37 18q-13 9 -12 20z" />
<glyph unicode="&#x2011;" horiz-adv-x="686" d="M41 755q1 11 16 19q9 5 37 10q7 2 56 7h59q77 -5 293 -5q51 0 76 -6q18 -5 45 -16q6 -2 14 -10q19 -22 -4 -39q-24 -15 -53 -15q-44 0 -64 2h-31h-90q-7 0 -22.5 1.5t-22.5 1.5q-121 0 -182 2q-44 0 -78 10q-25 8 -37 18q-13 9 -12 20z" />
<glyph unicode="&#x2012;" horiz-adv-x="686" d="M41 755q1 11 16 19q9 5 37 10q7 2 56 7h59q77 -5 293 -5q51 0 76 -6q18 -5 45 -16q6 -2 14 -10q19 -22 -4 -39q-24 -15 -53 -15q-44 0 -64 2h-31h-90q-7 0 -22.5 1.5t-22.5 1.5q-121 0 -182 2q-44 0 -78 10q-25 8 -37 18q-13 9 -12 20z" />
<glyph unicode="&#x2013;" horiz-adv-x="649" d="M41 618q2 10 16 15q6 2 19 2q42 0 94 10l61 6l76 6q7 1 21.5 2.5t21.5 2.5q53 8 156 8q30 2 74 -17q8 -4 20 -16q10 -9 8 -19.5t-14 -15.5q-15 -6 -29 -6h-63v4l-129 -12q-56 -4 -86 -8q-13 -1 -37 -4.5t-35 -4.5q-78 -7 -139 15l-27 14q-11 7 -8 18z" />
<glyph unicode="&#x2014;" horiz-adv-x="739" d="M41 645q2 13 25 17q20 4 34 4q37 0 111 -4h262q10 0 30 -2.5t29 -2.5q36 0 52 2q25 4 71 -4q23 -7 31 -16q13 -8 12.5 -18.5t-12.5 -18.5q-10 -6 -35 -10q-10 -2 -33 -2h-180v2q-20 0 -57.5 -0.5t-68 -0.5t-56.5 1q-116 5 -156 14q-26 7 -41 15q-21 8 -18 24z" />
<glyph unicode="&#x2018;" horiz-adv-x="264" d="M43 1090q3 17 8 26q8 19 34.5 83t41.5 99q10 29 14 39q15 34 49 25q36 -11 33 -51l-4 -19l-51 -168l-18 -57q0 -2 -1.5 -5.5t-1.5 -4.5q-9 -26 -21.5 -32t-37.5 3l-25 12q-29 19 -20 50z" />
<glyph unicode="&#x2019;" horiz-adv-x="258" d="M41 1100q3 19 10 43q8 31 25.5 94.5t25.5 95.5q4 8 4 13q10 26 35 20q33 -6 60 -27q21 -21 12 -49l-25 -78l-43 -116q-6 -19 -16 -35q-15 -24 -47 -27q-12 -3 -23 8q-18 24 -18 58z" />
<glyph unicode="&#x201a;" horiz-adv-x="329" d="M43 78q-4 33 0 49q5 32 39 45q37 16 86 10q38 -6 76 -32q45 -28 45 -80v-11q-8 -88 -37 -133q-6 -8 -14 -24q-20 -49 -80 -49q-21 0 -37 8q-24 8 -12 33q7 14 18 22q26 24 23 68q0 4 -9 8q-12 4 -20 4q-62 14 -78 82z" />
<glyph unicode="&#x201c;" horiz-adv-x="438" d="M41 1034q0 28 14 53q59 116 90 173q2 3 19 26q14 17 38.5 13.5t33.5 -23.5q5 -10 -3 -27q-9 -24 -40 -92q-6 -15 -17.5 -45.5t-17.5 -46.5q-4 -9 -13.5 -27.5t-13.5 -27.5q-15 -26 -37 -23q-36 4 -49 27q-4 8 -4 20zM219 1055q15 49 33 96q16 39 53 115q2 5 8.5 15.5 t8.5 16.5q13 20 38 17.5t33 -19.5q4 -6 4 -20q0 -1 -6 -19l-43 -137l-31 -82q-1 -4 -12 -20q-9 -17 -29 -17q-14 0 -40 13q-26 15 -17 41z" />
<glyph unicode="&#x201d;" horiz-adv-x="419" d="M43 1079q8 20 43 123q0 1 29 84q3 14 8 23q7 17 16.5 21t26.5 -1q30 -9 49 -31q12 -12 12 -32q-1 -2 -3.5 -12.5t-4.5 -16.5q-40 -109 -80 -188l-6 -13q-10 -17 -21 -20.5t-30 2.5q-19 9 -25 14q-22 19 -14 47zM186 1020q10 42 21 76q6 21 59 182q3 12 19 43q17 28 47 16 q21 -11 33 -20q17 -14 14 -37q-1 -3 -2 -9t-2.5 -12.5t-3.5 -11.5q-5 -14 -18.5 -48.5t-20.5 -53.5q-22 -59 -58 -148q0 -6 -4 -14q-8 -15 -17 -20t-26 -2q-22 3 -34 20t-7 39z" />
<glyph unicode="&#x201e;" horiz-adv-x="329" d="M43 78q-4 33 0 49q5 32 39 45q37 16 86 10q38 -6 76 -32q45 -28 45 -80v-11q-8 -88 -37 -133q-6 -8 -14 -24q-20 -49 -80 -49q-21 0 -37 8q-24 8 -12 33q7 14 18 22q26 24 23 68q0 4 -9 8q-12 4 -20 4q-62 14 -78 82z" />
<glyph unicode="&#x2022;" horiz-adv-x="397" d="M43 844q-8 52 20 112q3 7 17 25q24 34 65 37q5 1 15.5 2.5t18.5 2.5t14 1q88 -4 131 -47q27 -27 30 -70v-26q0 -82 -41 -146l-24 -26q-20 -20 -45 -23q-101 -10 -160 55q-34 36 -41 103z" />
<glyph unicode="&#x2026;" horiz-adv-x="323" d="M45 82q10 39 43 53q44 17 76 15q37 3 78 -17q18 -12 20 -14q29 -19 19 -53q-34 -124 -156 -107l-10 4q-43 9 -61.5 44t-8.5 75z" />
<glyph unicode="&#x202f;" horiz-adv-x="348" />
<glyph unicode="&#x2039;" horiz-adv-x="415" d="M49 571q-18 29 2 62q18 25 35 65q25 56 75.5 157.5t61.5 125.5q16 32 31 59q13 26 31 47q9 14 17.5 16.5t25.5 -3.5q3 -1 8 -4t8 -4q11 -9 6 -25q0 -2 -4 -6q-64 -159 -151 -348q-8 -18 -23.5 -55t-17.5 -42q-10 -26 2 -49l37 -75q67 -112 81 -138q8 -14 88 -172 q3 -5 13 -35q3 -18 -15 -24q-20 -5 -22 -6q-56 3 -74 41q-29 66 -61 123q-28 56 -121 227q-20 34 -33 63z" />
<glyph unicode="&#x203a;" horiz-adv-x="376" d="M41 1085q-4 15 14 19q19 0 27 -2q29 -6 51 -31q36 -36 66 -113q37 -104 131 -344q12 -24 0 -47q-4 -10 -24.5 -56t-29.5 -71q-44 -107 -71 -217q-9 -31 -26.5 -43t-53.5 -12q-5 0 -21 4q-38 9 -26 47q4 18 13.5 49.5t12.5 44.5q31 101 86 240l7.5 17.5t5.5 14t3.5 9.5 t1.5 8.5t-0.5 6.5t-1.5 8t-3.5 8.5t-5.5 13t-7 16.5q-17 49 -22 68q-12 36 -35 107.5t-35 107.5q-16 57 -49 125q-4 6 -8 22z" />
<glyph unicode="&#x205f;" horiz-adv-x="435" />
<glyph unicode="&#x20ac;" horiz-adv-x="722" d="M49 653q-20 17 4 31q6 4 13.5 6.5t18.5 4.5t15 3q4 2 17 2q6 0 10 11q0 4 1 12.5t1 13.5q2 41 10 123q2 2 2 10q0 13 -3 16.5t-15 6.5q-18 2 -49 10q-12 6 -23 17q-13 14 4 24q13 8 33 8h49q15 0 15 13q8 39 10 61q13 111 57 205q46 104 146 143q43 17 75 17 q53 3 111 -17q41 -10 78 -43q40 -29 49 -80q10 -29 -4 -53q-7 -13 -23 -16q-29 -4 -49 8q-15 9 -18 27q-16 47 -49 77q-15 12 -33 4q-49 -21 -80 -69q-31 -47 -57 -135q-14 -52 -25 -136q-3 -9 6 -12q18 -4 25 -8q6 -2 18 -10q13 -13 -6 -25q-1 -1 -33 -6q-12 0 -16.5 -3 t-5.5 -15q-4 -32 -4 -50q-2 -20 -5.5 -58t-5.5 -58q0 -13 13 -13l49 -6q16 -3 28 -12q16 -4 13 -18q0 -13 -17 -17q-9 -3 -39 -8h-36q-15 0 -15 -12q-2 -6 -2 -21q0 -19 -0.5 -54t-0.5 -64t1 -54q7 -111 27 -186q5 -19 22 -68q19 -44 76 -86q12 -9 23 2q41 38 57 82l18 64 q6 18 23 24q25 11 55 -2q15 -8 15 -18q4 -16 4 -25l-11 -84q-11 -52 -59 -90q-47 -35 -100 -35q-78 -7 -138 21q-46 20 -98 65q-26 21 -49 80q-22 50 -37 141q-10 62 -10 113l-6 107h2v77q0 7 -1.5 10.5t-4 4.5t-9.5 2q-16 3 -38 10q-13 5 -19 10z" />
<glyph unicode="&#x2122;" horiz-adv-x="927" d="M41.5 1301q1.5 10 13.5 14q16 8 41 8q0 1 40 1l40 -1h47q32 0 142 14q46 5 59 2q27 -4 39 -18q14 -14 -2 -27l-23 -10q-59 -22 -84 -27q-13 0 -10 -14q11 -63 6 -106q-2 -18 -2 -54l-6 -178q0 -23 -8 -69q-6 -31 -39 -31q-19 -3 -37 0q-33 5 -41 37q-14 68 -14 114 q0 12 -1 34t-1 34q-3 22 0 43q0 13 1 37t1 37q1 15 4 45.5t4 46.5q1 9 -1 11.5t-11 2.5h-47q-43 3 -74 17q-18 7 -29 18q-9 9 -7.5 19zM463 864v111q7 128 22 225q4 25 4 78q-3 30 25 33q52 9 96 -17q10 -7 27 -32q6 -14 17.5 -38.5t15.5 -33.5q1 -2 2.5 -6.5l2.5 -7.5 t4 -5.5t7 -3.5q10 15 12 23q40 82 45 117q3 25 33 32q38 3 68 -10q23 -10 26 -35q7 -42 9 -71q8 -63 8 -193l-6 -186q0 -9 -4 -29q-3 -23 -27 -29q-27 -8 -49 -2q-22 4 -25 23q-1 6 -2.5 16.5t-2.5 19.5t-1 17l-12 217q0 1 -1 3t-1 3l-11 -22q-15 -30 -49 -33q-37 -6 -69 10 q-12 5 -31 29q-2 4 -6 8q-3 3 -5.5 2t-2.5 -4q0 -1 -1 -3t-1 -3q0 -17 -5 -115l-12 -116q0 -7 -4 -15q0 -2 -4 -10q-7 -17 -41 -17.5t-41 13.5l-6 14q-4 28 -4 43z" />
<glyph unicode="&#x25fc;" horiz-adv-x="1167" d="M0 0v1167h1167v-1167h-1167z" />
<glyph unicode="&#xfb01;" horiz-adv-x="790" d="M43 1087q0 17 2 25q4 25 -2 39q-6 12 8 23q34 24 74 18l37 -6h20q18 4 82 4q43 3 86 0q34 0 72 -6q25 -4 41 -17q14 -10 12.5 -22t-18.5 -19q-18 -6 -41 -6h-115q-43 0 -63 -2q-9 0 -11 -2t-2 -10q2 -14 2 -47v-311q0 -21 4 -27q2 -3 6 -4t7 -0.5t7.5 2.5t6.5 2 q18 0 52 3t52 3q8 -1 28 0.5t28 -0.5q19 -5 24 -8q14 -8 15 -19t-11 -20q-14 -14 -26 -16q-30 -10 -60 -13q-36 -4 -104 -8h-8q-2 0 -6.5 -1.5t-5 -1.5t-4 -2t-2.5 -4t-1 -6.5t0 -9.5q2 -15 2.5 -44.5t1.5 -38.5l7 -398q0 -10 1 -30.5t1 -30.5q0 -30 -17 -64 q-11 -25 -37 -28q-41 -9 -79 2q-26 6 -39 32q-14 32 -17 70v123v59h-2q0 10 0.5 29t0.5 33.5t-1 27.5q-6 298 -6 299q-5 189 -2 428zM559 623q0 168 2 202q4 78 4 230q0 36 10 78q8 34 43 34q37 2 84 -22q19 -13 29 -41q14 -51 14 -90v-211v-203q0 -62 -1 -187t-1 -188 q0 -73 2 -110q1 -5 2.5 -16.5t2.5 -16.5q5 -24 -19 -45q-7 -7 -16 -10q-49 -24 -92 -21h-17q-23 4 -31 14t-10 35q-4 59 -4 264q0 51 -1 152.5t-1 151.5z" />
<glyph unicode="&#xfb02;" horiz-adv-x="1009" d="M43 1087q0 17 2 25q4 25 -2 39q-6 12 8 23q34 24 74 18l37 -6h20q18 4 82 4q43 3 86 0q34 0 72 -6q25 -4 41 -17q14 -10 12.5 -22t-18.5 -19q-18 -6 -41 -6h-115q-43 0 -63 -2q-9 0 -11 -2t-2 -10q2 -14 2 -47v-311q0 -21 4 -27q2 -3 6 -4t7 -0.5t7.5 2.5t6.5 2 q18 0 52 3t52 3q8 -1 28 0.5t28 -0.5q19 -5 24 -8q14 -8 15 -19t-11 -20q-14 -14 -26 -16q-30 -10 -60 -13q-36 -4 -104 -8h-8q-2 0 -6.5 -1.5t-5 -1.5t-4 -2t-2.5 -4t-1 -6.5t0 -9.5q2 -15 2.5 -44.5t1.5 -38.5l7 -398q0 -10 1 -30.5t1 -30.5q0 -30 -17 -64 q-11 -25 -37 -28q-41 -9 -79 2q-26 6 -39 32q-14 32 -17 70v123v59h-2q0 10 0.5 29t0.5 33.5t-1 27.5q-6 298 -6 299q-5 189 -2 428zM557 465q0 237 2 356q0 61 4 193q2 37 10 116q1 3 2.5 9.5t2.5 9.5q14 42 57 39q35 -3 59 -17q23 -10 29 -34q13 -49 20 -111q6 -64 2 -192 q-2 -70 -2 -211v-371q0 -11 1 -33.5t1 -34.5t-1 -34t-1 -33q0 -25 3 -27t26 -2h82q51 0 76 -6q12 -3 26 -10q22 -15 5 -35q-9 -13 -21 -19q-45 -27 -106 -24h-39h-58q-37 0 -53 2l-59 6q-5 0 -17 4q-23 7 -33 21.5t-12 40.5q0 100 -2 151q0 41 -2 123t-2 123z" />
</font>
</defs>
</svg>
